<svg width="327" height="493" viewBox="0 0 327 493" fill="none" xmlns="http://www.w3.org/2000/svg">
<path d="M1.59273 34.4266C1.64535 19.5089 1.67166 12.0501 6.30573 7.39219C10.9398 2.73432 18.3984 2.66979 33.3157 2.54074L294.16 0.284104C309.606 0.150478 317.329 0.0836644 322.081 4.87668C326.833 9.66969 326.699 17.3918 326.432 32.8359L319.034 460.851C318.773 476 318.642 483.574 313.848 488.183C309.054 492.792 301.48 492.624 286.333 492.29L31.4039 486.658C16.5766 486.331 9.16292 486.167 4.59762 481.483C0.0323284 476.799 0.0584851 469.384 0.110798 454.553L1.59273 34.4266Z" fill="url(#paint0_linear_717_9345)"/>
<defs>
<linearGradient id="paint0_linear_717_9345" x1="-1.07539e-05" y1="229.708" x2="305.499" y2="303.228" gradientUnits="userSpaceOnUse">
<stop stop-color="#FEE4D1"/>
<stop offset="1" stop-color="#FBC6B5"/>
</linearGradient>
</defs>
</svg>
