<svg width="637" height="464" viewBox="0 0 637 464" fill="none" xmlns="http://www.w3.org/2000/svg">
<g clip-path="url(#clip0_513_14672)">
<mask id="mask0_513_14672" style="mask-type:luminance" maskUnits="userSpaceOnUse" x="5" y="-80" width="640" height="640">
<path d="M645 -80H5V560H645V-80Z" fill="white"/>
</mask>
<g mask="url(#mask0_513_14672)">
<path d="M461.625 328.855H187.406C167.248 328.855 150.906 312.514 150.906 292.355V107.429C150.906 87.2712 167.248 70.9297 187.406 70.9297H461.625C481.783 70.9297 498.125 87.2712 498.125 107.429V292.355C498.125 312.514 481.783 328.855 461.625 328.855Z" fill="white"/>
<path d="M151.822 99.4073H497.209C494.106 82.9853 478.8 70.9297 462.274 70.9297H186.757C170.231 70.9297 155.346 83.2305 151.822 99.4073Z" fill="#CAD5F3"/>
<path d="M151.869 99.4072H497.16" stroke="black" stroke-linecap="round" stroke-linejoin="round"/>
<path d="M462.291 328.855H186.74C166.95 328.855 150.906 312.812 150.906 293.022V106.763C150.906 86.973 166.95 70.9297 186.74 70.9297H462.291C482.081 70.9297 498.125 86.973 498.125 106.763V293.022C498.125 312.812 482.081 328.855 462.291 328.855Z" stroke="black" stroke-linecap="round" stroke-linejoin="round"/>
<path d="M182.27 79.4301C185.898 79.4301 188.839 82.3712 188.839 85.9992C188.839 89.6272 185.898 92.5684 182.27 92.5684C178.642 92.5684 175.701 89.6272 175.701 85.9992C175.701 82.3712 178.642 79.4301 182.27 79.4301Z" fill="#FFB29B"/>
<path d="M203.114 79.4301C206.742 79.4301 209.683 82.3712 209.683 85.9992C209.683 89.6272 206.742 92.5684 203.114 92.5684C199.486 92.5684 196.545 89.6272 196.545 85.9992C196.545 82.3712 199.486 79.4301 203.114 79.4301Z" fill="#FBB348"/>
<path d="M223.96 79.4301C227.588 79.4301 230.529 82.3712 230.529 85.9992C230.529 89.6272 227.588 92.5684 223.96 92.5684C220.332 92.5684 217.391 89.6272 217.391 85.9992C217.391 82.3712 220.332 79.4301 223.96 79.4301Z" fill="#92ACEF"/>
<path d="M182.27 79.4301C185.898 79.4301 188.839 82.3712 188.839 85.9992C188.839 89.6272 185.898 92.5684 182.27 92.5684C178.642 92.5684 175.701 89.6272 175.701 85.9992C175.701 82.3712 178.642 79.4301 182.27 79.4301Z" stroke="black" stroke-linecap="round" stroke-linejoin="round"/>
<path d="M203.114 79.4301C206.742 79.4301 209.683 82.3712 209.683 85.9992C209.683 89.6272 206.742 92.5684 203.114 92.5684C199.486 92.5684 196.545 89.6272 196.545 85.9992C196.545 82.3712 199.486 79.4301 203.114 79.4301Z" stroke="black" stroke-linecap="round" stroke-linejoin="round"/>
<path d="M223.96 79.4301C227.588 79.4301 230.529 82.3712 230.529 85.9992C230.529 89.6272 227.588 92.5684 223.96 92.5684C220.332 92.5684 217.391 89.6272 217.391 85.9992C217.391 82.3712 220.332 79.4301 223.96 79.4301Z" stroke="black" stroke-linecap="round" stroke-linejoin="round"/>
<path d="M324.999 210.443C351.164 210.443 372.374 231.653 372.374 257.817C372.374 283.981 351.164 305.191 324.999 305.191C298.835 305.191 277.625 283.981 277.625 257.817C277.625 231.653 298.835 210.443 324.999 210.443Z" fill="white"/>
<path d="M283.555 248.247C287.897 229.36 304.812 215.275 325.017 215.275C348.512 215.275 367.559 234.322 367.559 257.817C367.559 281.312 348.512 300.359 325.017 300.359C301.521 300.359 282.475 281.312 282.475 257.817C282.475 254.527 282.848 251.323 283.555 248.247Z" stroke="#F35322" stroke-width="11.674"/>
<path d="M324.999 220.162C345.795 220.162 362.654 237.021 362.654 257.817C362.654 278.613 345.795 295.472 324.999 295.472C304.202 295.472 287.344 278.613 287.344 257.817C287.344 237.021 304.202 220.162 324.999 220.162Z" stroke="black" stroke-linecap="round" stroke-linejoin="round"/>
<path d="M324.999 210.443C351.164 210.443 372.374 231.653 372.374 257.817C372.374 283.981 351.164 305.191 324.999 305.191C298.835 305.191 277.625 283.981 277.625 257.817C277.625 231.653 298.835 210.443 324.999 210.443Z" stroke="black" stroke-linecap="round" stroke-linejoin="round"/>
<path d="M325 238.848C335.477 238.848 343.969 247.341 343.969 257.817C343.969 268.293 335.477 276.786 325 276.786C314.524 276.786 306.031 268.293 306.031 257.817C306.031 247.341 314.524 238.848 325 238.848Z" fill="white"/>
<path d="M325 238.848C335.477 238.848 343.969 247.341 343.969 257.817C343.969 268.293 335.477 276.786 325 276.786C314.524 276.786 306.031 268.293 306.031 257.817C306.031 247.341 314.524 238.848 325 238.848Z" stroke="black" stroke-linecap="round" stroke-linejoin="round"/>
<mask id="mask1_513_14672" style="mask-type:luminance" maskUnits="userSpaceOnUse" x="5" y="-80" width="640" height="640">
<path d="M5 -80H645V560H5V-80Z" fill="white"/>
</mask>
<g mask="url(#mask1_513_14672)">
<path d="M310.327 182.847C313.223 188.932 323.417 191.49 329.859 192.311C338.809 193.47 351.369 192.744 352.141 192.101C353.501 190.967 353.225 183.226 353.225 183.226C352.879 175.903 342.945 173.393 328.505 174.538C326.508 172.545 321.229 172.424 321.343 175.823C315.556 177.759 308.456 178.904 310.327 182.847Z" fill="#FEECDF"/>
<path d="M310.327 182.847C313.223 188.932 323.417 191.49 329.859 192.311C338.809 193.47 351.369 192.744 352.141 192.101C353.501 190.967 353.225 183.226 353.225 183.226C352.879 175.903 342.945 173.393 328.505 174.538C326.508 172.545 321.229 172.424 321.343 175.823C315.556 177.759 308.456 178.904 310.327 182.847Z" stroke="black" stroke-width="0.986679" stroke-linecap="round" stroke-linejoin="round"/>
<path d="M322.114 177.1C319.327 175.425 317.222 167.668 317.222 167.668C317.222 167.668 317.811 162.1 321.944 163.766C324.776 164.955 328.504 174.533 328.504 174.533" fill="#FEECDF"/>
<path d="M322.114 177.1C319.327 175.425 317.222 167.668 317.222 167.668C317.222 167.668 317.811 162.1 321.944 163.766C324.776 164.955 328.504 174.533 328.504 174.533" stroke="black" stroke-width="0.986679" stroke-linecap="round" stroke-linejoin="round"/>
<path d="M316.243 179.99C316.243 179.99 312.649 175.098 311.492 169.027C311.174 167.356 311.869 162.46 316.002 164.125C318.967 165.369 321.135 175.256 322.675 176.334C324.215 177.411 327.23 177.11 328.957 177.038" fill="#FEECDF"/>
<path d="M316.243 179.99C316.243 179.99 312.649 175.098 311.492 169.027C311.174 167.356 311.869 162.46 316.002 164.125C318.967 165.369 321.135 175.256 322.675 176.334C324.215 177.411 327.23 177.11 328.957 177.038" stroke="black" stroke-width="0.986679" stroke-linecap="round" stroke-linejoin="round"/>
<path d="M324.056 179.2C321.455 179.062 317.846 179.153 316.606 177.538C315.367 175.924 314.426 171.033 311.95 168.66C310.075 166.859 307.5 167.319 306.957 170.207C306.282 173.877 308.776 179.737 310.325 182.847" fill="#FEECDF"/>
<path d="M324.056 179.2C321.455 179.062 317.846 179.153 316.606 177.538C315.367 175.924 314.426 171.033 311.95 168.66C310.075 166.859 307.5 167.319 306.957 170.207C306.282 173.877 308.776 179.737 310.325 182.847" stroke="black" stroke-width="0.986679" stroke-linecap="round" stroke-linejoin="round"/>
<path d="M442.652 182.07L218.631 176.243C206.904 175.843 197.669 166.531 197.912 154.532C197.862 153.787 198.2 142.447 198.2 142.447C198.556 130.566 207.947 121.612 219.769 121.916C221.321 121.809 443.743 129.017 443.743 129.017C455.081 129.537 464.205 138.865 463.877 150.937L463.584 161.567C463.249 173.181 453.967 182.17 442.652 182.07Z" fill="#CAD5F3"/>
<path d="M442.652 182.07L218.631 176.243C206.904 175.843 197.669 166.531 197.912 154.532C197.862 153.787 198.2 142.447 198.2 142.447C198.556 130.566 207.947 121.612 219.769 121.916C221.321 121.809 443.743 129.017 443.743 129.017C455.081 129.537 464.205 138.865 463.877 150.937L463.584 161.567C463.249 173.181 453.967 182.17 442.652 182.07Z" stroke="black" stroke-width="0.990811" stroke-linecap="round" stroke-linejoin="round"/>
<path d="M444.117 182.11L220.096 176.284C208.368 175.884 199.134 166.572 199.377 154.572C199.327 153.827 199.665 142.487 199.665 142.487C200.021 130.606 209.623 121.592 221.235 121.955C222.752 122.056 445.208 129.056 445.208 129.056C456.546 129.576 465.67 138.904 465.342 150.976L465.048 161.607C464.714 173.22 455.431 182.21 444.117 182.11Z" fill="#CAD5F3"/>
<path d="M444.117 182.11L220.096 176.284C208.368 175.884 199.134 166.572 199.377 154.572C199.327 153.827 199.665 142.487 199.665 142.487C200.021 130.606 209.623 121.592 221.235 121.955C222.752 122.056 445.208 129.056 445.208 129.056C456.546 129.576 465.67 138.904 465.342 150.976L465.048 161.607C464.714 173.22 455.431 182.21 444.117 182.11Z" stroke="black" stroke-width="0.990811" stroke-linecap="round" stroke-linejoin="round"/>
<path d="M228.575 134.019C236.868 134.245 243.404 141.297 243.173 149.77C242.943 158.243 236.034 164.929 227.742 164.703C219.449 164.477 212.914 157.425 213.144 148.952C213.374 140.479 220.283 133.793 228.575 134.019Z" fill="white"/>
<path d="M228.575 134.019C236.868 134.245 243.404 141.297 243.173 149.77C242.943 158.243 236.034 164.929 227.742 164.703C219.449 164.477 212.914 157.425 213.144 148.952C213.374 140.479 220.283 133.793 228.575 134.019Z" stroke="black" stroke-width="0.990811" stroke-linecap="round" stroke-linejoin="round"/>
<path d="M301.377 165.386L267.449 164.436" stroke="black" stroke-width="0.990811" stroke-linecap="round" stroke-linejoin="round"/>
<path d="M267.705 150.535L384.155 153.9" stroke="black" stroke-width="0.990811" stroke-linecap="round" stroke-linejoin="round"/>
<path d="M268.166 136.546L384.97 140.115" stroke="black" stroke-width="0.990811" stroke-linecap="round" stroke-linejoin="round"/>
<path d="M457.174 213.212C478.597 225.041 491.646 223.349 503.907 211.885C522.707 194.307 517.547 161.947 485.729 145.007C470.034 136.657 473.405 116.926 462.67 107.169C455.391 100.486 443.967 102.303 438.413 106.211C432.708 110.308 428.932 115.606 428.517 121.19C428.02 134.223 428.534 145.602 437.381 154.276C439.11 155.961 447.753 158.754 446.533 160.914C433.378 184.469 434.823 200.29 457.174 213.212Z" fill="#FFB29B"/>
<path d="M457.174 213.212C478.597 225.041 491.646 223.349 503.907 211.885C522.707 194.307 517.547 161.947 485.729 145.007C470.034 136.657 473.405 116.926 462.67 107.169C455.391 100.486 443.967 102.303 438.413 106.211C432.708 110.308 428.932 115.606 428.517 121.19C428.02 134.223 428.534 145.602 437.381 154.276C439.11 155.961 447.753 158.754 446.533 160.914C433.378 184.469 434.823 200.29 457.174 213.212Z" stroke="black" stroke-width="0.986679" stroke-linecap="round" stroke-linejoin="round"/>
<path d="M441.858 207.182C441.858 207.182 436.419 263.404 436.013 278.696C435.505 298.295 436.931 309.17 438.602 317.25C448.767 346.608 478.759 325.998 480.03 307.917C480.286 304.281 483.074 273.961 487.311 259.077C494.682 233.251 476.455 201.271 441.858 207.182Z" fill="#B9B9B9"/>
<path d="M441.858 207.182C441.858 207.182 436.419 263.404 436.013 278.696C435.505 298.295 436.931 309.17 438.602 317.25C448.767 346.608 478.759 325.998 480.03 307.917C480.286 304.281 483.074 273.961 487.311 259.077C494.682 233.251 476.455 201.271 441.858 207.182Z" stroke="black" stroke-width="0.986679"/>
<path d="M437.587 311.504C438.595 318.467 440.379 323.406 442.133 328.745C444.956 337.65 469.243 394.48 469.243 394.48C500.704 404.954 517.596 407.556 512.766 383.097L479.838 305.487" fill="#B9B9B9"/>
<path d="M437.587 311.504C438.595 318.467 440.379 323.406 442.133 328.745C444.956 337.65 469.243 394.48 469.243 394.48C500.704 404.954 517.596 407.556 512.766 383.097L479.838 305.487" stroke="black" stroke-width="0.986679" stroke-linecap="round" stroke-linejoin="round"/>
<path d="M467.77 384.415C460.184 385.484 442.754 397.3 439.211 414.61C439.211 414.61 438.708 418.141 440.169 420.878C443.682 420.927 519.136 421.024 521.201 420.925C522.27 419.666 523.23 414.93 523.23 414.93C523.23 414.93 527.462 396.366 512.284 381.651C512.284 381.651 507.916 390.039 500.875 392.235C490.432 395.512 476.224 383.213 467.77 384.415Z" fill="white"/>
<path d="M467.77 384.415C460.184 385.484 442.754 397.3 439.211 414.61C439.211 414.61 438.708 418.141 440.169 420.878C443.682 420.927 519.136 421.024 521.201 420.925C522.27 419.666 523.23 414.93 523.23 414.93C523.23 414.93 527.462 396.366 512.284 381.651C512.284 381.651 507.916 390.039 500.875 392.235C490.432 395.512 476.224 383.213 467.77 384.415Z" stroke="black" stroke-width="0.986679" stroke-linecap="round" stroke-linejoin="round"/>
<path d="M523.22 414.991C523.22 414.991 522.07 420.033 521.202 420.963C520.124 420.924 440.137 420.901 440.137 420.901C440.137 420.901 438.684 417.963 439.208 414.716L523.22 414.991Z" fill="#CAD5F3"/>
<path d="M523.22 414.991C523.22 414.991 522.07 420.033 521.202 420.963C520.124 420.924 440.137 420.901 440.137 420.901C440.137 420.901 438.684 417.963 439.208 414.716L523.22 414.991Z" stroke="black" stroke-width="0.986679" stroke-linecap="round" stroke-linejoin="round"/>
<path d="M508.742 414.917L508.792 420.945" stroke="black" stroke-width="0.986679" stroke-linecap="round" stroke-linejoin="round"/>
<path d="M505.643 414.888L505.671 420.931" stroke="black" stroke-width="0.986679" stroke-linecap="round" stroke-linejoin="round"/>
<path d="M502.543 414.955L502.563 420.939" stroke="black" stroke-width="0.986679" stroke-linecap="round" stroke-linejoin="round"/>
<path d="M490.145 414.839L490.048 420.935" stroke="black" stroke-width="0.986679" stroke-linecap="round" stroke-linejoin="round"/>
<path d="M477.584 414.866L477.59 420.924" stroke="black" stroke-width="0.986679" stroke-linecap="round" stroke-linejoin="round"/>
<path d="M474.5 414.858L474.454 420.888" stroke="black" stroke-width="0.986679" stroke-linecap="round" stroke-linejoin="round"/>
<path d="M465.156 414.802L465.053 420.936" stroke="black" stroke-width="0.986679" stroke-linecap="round" stroke-linejoin="round"/>
<path d="M449.512 414.822L449.525 420.843" stroke="black" stroke-width="0.986679" stroke-linecap="round" stroke-linejoin="round"/>
<path d="M446.418 414.755L446.36 420.955" stroke="black" stroke-width="0.986679" stroke-linecap="round" stroke-linejoin="round"/>
<path d="M457.006 401.373C455.284 399.257 451.966 396.849 449.03 396.869" stroke="black" stroke-width="0.986679" stroke-linecap="round" stroke-linejoin="round"/>
<path d="M464.612 396.666C463.23 395.417 459.874 392.063 454.687 391.5" stroke="black" stroke-width="0.986679" stroke-linecap="round" stroke-linejoin="round"/>
<path d="M471.82 391.521C468.703 388.748 464.665 387.034 461.614 386.841" stroke="black" stroke-width="0.986679" stroke-linecap="round" stroke-linejoin="round"/>
<path d="M445.298 201.686C456 194.845 504.489 193.464 505.965 235.876C506.879 262.169 504.116 289.536 504.116 289.536C503.791 314.915 470.028 314.688 468.28 308.677C466.548 302.831 465.525 295.515 463.733 283.886C461.933 272.203 460.127 239.23 460.127 239.23L445.298 201.686Z" fill="#B9B9B9"/>
<path d="M445.298 201.686C456 194.845 504.489 193.464 505.965 235.876C506.879 262.169 504.116 289.536 504.116 289.536C503.791 314.915 470.028 314.688 468.28 308.677C466.548 302.831 465.525 295.515 463.733 283.886C461.933 272.203 460.127 239.23 460.127 239.23L445.298 201.686Z" stroke="black" stroke-width="0.986679" stroke-linecap="round" stroke-linejoin="round"/>
<path d="M501.225 294.084C504.824 296.145 511.996 300.764 520.407 307.02C528.817 313.277 548.207 328.512 558.371 337.962C572.522 359.733 565.051 372.641 537.7 380.156C537.7 380.156 501.974 350.498 490.619 339.865C482.468 332.286 471.15 320.359 467.566 306.41" fill="#B9B9B9"/>
<path d="M501.225 294.084C504.824 296.145 511.996 300.764 520.407 307.02C528.817 313.277 548.207 328.512 558.371 337.962C572.522 359.733 565.051 372.641 537.7 380.156C537.7 380.156 501.974 350.498 490.619 339.865C482.468 332.286 471.15 320.359 467.566 306.41" stroke="black" stroke-width="0.986679" stroke-linecap="round" stroke-linejoin="round"/>
<path d="M529.601 372.005C525.14 378.232 521.666 398.998 531.753 413.508C531.753 413.508 533.963 416.308 536.952 417.14C539.412 414.632 591.552 360.105 592.905 358.542C592.732 356.9 589.966 352.937 589.966 352.937C589.966 352.937 579.447 337.063 558.319 337.89C558.319 337.89 561.377 346.839 558.108 353.449C553.275 363.267 534.565 365.059 529.601 372.005Z" fill="white"/>
<path d="M529.601 372.005C525.14 378.232 521.666 398.998 531.753 413.508C531.753 413.508 533.963 416.308 536.952 417.14C539.412 414.632 591.552 360.105 592.905 358.542C592.732 356.9 589.966 352.937 589.966 352.937C589.966 352.937 579.447 337.063 558.319 337.89C558.319 337.89 561.377 346.839 558.108 353.449C553.275 363.267 534.565 365.059 529.601 372.005Z" stroke="black" stroke-width="0.986679" stroke-linecap="round" stroke-linejoin="round"/>
<path d="M571.08 348.477C574.338 348.993 576.563 352.052 576.048 355.311C575.534 358.569 572.475 360.793 569.216 360.278C565.958 359.763 563.733 356.703 564.248 353.445C564.763 350.186 567.821 347.962 571.08 348.477Z" fill="#CAD5F3"/>
<path d="M571.08 348.477C574.338 348.993 576.563 352.052 576.048 355.311C575.534 358.569 572.475 360.793 569.216 360.278C565.958 359.763 563.733 356.703 564.248 353.445C564.763 350.186 567.821 347.962 571.08 348.477Z" stroke="black" stroke-width="0.986679" stroke-linecap="round" stroke-linejoin="round"/>
<path d="M589.999 352.984C589.999 352.984 592.855 357.296 592.93 358.566C592.158 359.319 536.951 417.188 536.951 417.188C536.951 417.188 533.822 416.213 531.833 413.592L589.999 352.984Z" fill="#CAD5F3"/>
<path d="M589.999 352.984C589.999 352.984 592.855 357.296 592.93 358.566C592.158 359.319 536.951 417.188 536.951 417.188C536.951 417.188 533.822 416.213 531.833 413.592L589.999 352.984Z" stroke="black" stroke-width="0.986679" stroke-linecap="round" stroke-linejoin="round"/>
<path d="M579.955 363.405L584.352 367.53" stroke="black" stroke-width="0.986679" stroke-linecap="round" stroke-linejoin="round"/>
<path d="M577.797 365.629L582.19 369.779" stroke="black" stroke-width="0.986679" stroke-linecap="round" stroke-linejoin="round"/>
<path d="M575.707 367.917L580.052 372.033" stroke="black" stroke-width="0.986679" stroke-linecap="round" stroke-linejoin="round"/>
<path d="M567.066 376.811L571.412 381.089" stroke="black" stroke-width="0.986679" stroke-linecap="round" stroke-linejoin="round"/>
<path d="M558.418 385.92L562.807 390.097" stroke="black" stroke-width="0.986679" stroke-linecap="round" stroke-linejoin="round"/>
<path d="M556.283 388.147L560.615 392.342" stroke="black" stroke-width="0.986679" stroke-linecap="round" stroke-linejoin="round"/>
<path d="M549.795 394.87L554.163 399.179" stroke="black" stroke-width="0.986679" stroke-linecap="round" stroke-linejoin="round"/>
<path d="M539.014 406.207L543.38 410.353" stroke="black" stroke-width="0.986679" stroke-linecap="round" stroke-linejoin="round"/>
<path d="M536.83 408.399L541.243 412.524" stroke="black" stroke-width="0.986679" stroke-linecap="round" stroke-linejoin="round"/>
<path d="M534.453 391.502C531.733 391.288 527.702 392.027 525.69 394.166" stroke="black" stroke-width="0.986679" stroke-linecap="round" stroke-linejoin="round"/>
<path d="M536.294 382.749C534.436 382.887 529.693 383.001 525.706 386.366" stroke="black" stroke-width="0.986679" stroke-linecap="round" stroke-linejoin="round"/>
<path d="M537.545 373.983C533.387 374.324 529.36 376.063 527.115 378.138" stroke="black" stroke-width="0.986679" stroke-linecap="round" stroke-linejoin="round"/>
<path d="M441.045 135.896C445.68 132.207 433.045 130.383 432.804 118.729C432.558 115.809 433.179 111.082 436.342 107.859C430.974 107.619 425.661 110.051 424.134 113.108C417.352 106.614 406.119 108.884 404.185 116.977C401.273 129.009 414.9 138.75 414.9 138.75C433.567 150.41 439.048 137.486 441.045 135.896Z" fill="#FFB29B"/>
<path d="M441.045 135.896C445.68 132.207 433.045 130.383 432.804 118.729C432.558 115.809 433.179 111.082 436.342 107.859C430.974 107.619 425.661 110.051 424.134 113.108C417.352 106.614 406.119 108.884 404.185 116.977C401.273 129.009 414.9 138.75 414.9 138.75C433.567 150.41 439.048 137.486 441.045 135.896Z" stroke="black" stroke-width="0.986679" stroke-linecap="round" stroke-linejoin="round"/>
<path d="M470.83 201.467C470.83 201.467 474.462 196.726 474.071 191.634C473.385 182.835 471.01 180.483 464.372 173.899C458.833 168.471 453.239 161.753 449.419 156.705C445.788 151.981 442.142 152.011 436.427 154.228C426.024 159.027 426.798 166.212 427.51 168.686C429.772 176.456 426.706 186.583 428.864 195.627C430.477 202.405 433.165 207.394 438.126 209.649C442.877 211.811 460.277 211.38 470.83 201.467Z" fill="#CAD5F3"/>
<path d="M470.83 201.467C470.83 201.467 474.462 196.726 474.071 191.634C473.385 182.835 471.01 180.483 464.372 173.899C458.833 168.471 453.239 161.753 449.419 156.705C445.788 151.981 442.142 152.011 436.427 154.228C426.024 159.027 426.798 166.212 427.51 168.686C429.772 176.456 426.706 186.583 428.864 195.627C430.477 202.405 433.165 207.394 438.126 209.649C442.877 211.811 460.277 211.38 470.83 201.467Z" stroke="black" stroke-width="0.986679"/>
<path d="M394.49 196.076C391.261 196.84 363.383 167.845 349.991 178.441C336.6 189.038 342.416 200.035 350.638 203.531C363.716 209.093 378.378 223.076 394.19 222.177C412.602 212.133 397.718 195.291 394.49 196.076Z" fill="#CAD5F3"/>
<path d="M394.49 196.076C391.261 196.84 363.383 167.845 349.991 178.441C336.6 189.038 342.416 200.035 350.638 203.531C363.716 209.093 378.378 223.076 394.19 222.177C412.602 212.133 397.718 195.291 394.49 196.076Z" stroke="black" stroke-width="0.986679" stroke-linecap="round" stroke-linejoin="round"/>
<path d="M437.381 164.77C437.381 164.77 431.674 162.275 424.573 166.488C417.194 170.903 400.148 191.571 395.868 193.735C394.631 194.64 393.183 195.896 391.919 196.976C396.602 198.405 398.056 213.33 393.318 222.241C399.547 222.485 408.293 217.251 415.579 210.686C424.289 202.84 432.128 193.258 442.061 190.048" fill="#CAD5F3"/>
<path d="M437.381 164.77C437.381 164.77 431.674 162.275 424.573 166.488C417.194 170.903 400.148 191.571 395.868 193.735C394.631 194.64 393.183 195.896 391.919 196.976C396.602 198.405 398.056 213.33 393.318 222.241C399.547 222.485 408.293 217.251 415.579 210.686C424.289 202.84 432.128 193.258 442.061 190.048" stroke="black" stroke-width="0.986679" stroke-linecap="round" stroke-linejoin="round"/>
<path d="M392.803 196.735C390.879 198.225 390.982 199.146 390.885 201.118C390.841 202.005 391.159 221.366 392.65 221.687C393.229 221.812 394.146 221.846 395.327 221.652C399.77 220.924 398.205 192.55 392.803 196.735Z" fill="#CAD5F3"/>
<path d="M439.687 139.942L445.829 154.843C440.914 162.966 431.685 161.087 431.685 161.087L426.462 149.412L439.687 139.942Z" fill="#FEECDF"/>
<path d="M439.687 139.942L445.829 154.843C440.914 162.966 431.685 161.087 431.685 161.087L426.462 149.412L439.687 139.942Z" stroke="black" stroke-width="0.986679"/>
<path d="M414.373 120.713C414.373 120.713 406.078 127.062 409.583 138.216C410.772 142.002 411.718 143.523 411.718 143.523C411.718 143.523 418.331 156.179 431.445 151.777C441.376 148.443 443.83 140.599 443.83 140.599C443.83 140.599 447.975 127.504 437.802 128.371C432.625 125.085 424.842 123.351 414.373 120.713Z" fill="#FEECDF"/>
<path d="M414.373 120.713C414.373 120.713 406.078 127.062 409.583 138.216C410.772 142.002 411.718 143.523 411.718 143.523C411.718 143.523 418.331 156.179 431.445 151.777C441.376 148.443 443.83 140.599 443.83 140.599C443.83 140.599 447.975 127.504 437.802 128.371C432.625 125.085 424.842 123.351 414.373 120.713Z" stroke="black" stroke-width="0.986679" stroke-linecap="round" stroke-linejoin="round"/>
<path d="M409.657 138.256C408.671 138.185 406.975 138.062 406.834 139.521C406.63 141.524 411.718 143.523 411.718 143.523C411.718 143.523 413.773 138.946 409.657 138.256Z" fill="#FEECDF"/>
<path d="M409.583 138.216C409.583 138.216 406.747 138.004 406.844 139.688C406.999 141.988 411.719 143.523 411.719 143.523" stroke="black" stroke-width="0.986679" stroke-linecap="round" stroke-linejoin="round"/>
<path d="M410.293 134.62C410.124 134.178 410.334 133.669 410.777 133.5C411.219 133.331 411.728 133.541 411.897 133.983C412.066 134.426 411.856 134.935 411.414 135.104C410.971 135.272 410.462 135.063 410.293 134.62Z" fill="black"/>
<path d="M420.74 142.189C419.829 138.873 421.535 135.687 424.545 135.069C427.537 134.454 430.722 136.663 431.617 140.001C432.527 143.317 430.825 146.526 427.812 147.121C424.798 147.716 421.631 145.507 420.74 142.189Z" fill="#FFB29B"/>
<path d="M415.439 148.006C415.276 148.056 415.381 148.155 415.47 147.972C415.505 147.939 417.236 147.702 417.319 143.393C417.297 143.177 417.319 143.195 417.32 143.418C417.402 147.301 415.479 147.994 415.439 148.006Z" fill="black"/>
<path d="M415.439 148.006C415.276 148.056 415.381 148.155 415.47 147.972C415.505 147.939 417.236 147.702 417.319 143.393C417.297 143.177 417.319 143.195 417.32 143.418C417.402 147.301 415.479 147.994 415.439 148.006Z" stroke="black" stroke-width="0.986679" stroke-linecap="round" stroke-linejoin="round"/>
<mask id="mask2_513_14672" style="mask-type:alpha" maskUnits="userSpaceOnUse" x="415" y="143" width="3" height="6">
<path d="M415.439 148.006C415.275 148.056 415.381 148.155 415.47 147.971C415.505 147.939 417.236 147.702 417.319 143.393C417.297 143.177 417.319 143.195 417.32 143.418C417.401 147.301 415.479 147.993 415.439 148.006Z" fill="black"/>
</mask>
<g mask="url(#mask2_513_14672)">
<path d="M418.792 146.008C418.986 144.728 416.692 144.983 416.246 146.194C415.799 147.405 415.957 147.727 416.245 148.27C416.534 148.813 418.598 147.288 418.792 146.008Z" fill="#FFB29B"/>
<path d="M417.374 142.141C416.892 142.424 413.392 146.063 413.629 146.557C413.866 147.052 414.345 147.396 414.85 147.428C415.702 147.483 417.991 144.902 418.283 143.544C418.566 142.23 418.039 141.75 417.374 142.141Z" fill="white"/>
</g>
<path d="M415.439 148.006C415.275 148.056 415.381 148.155 415.47 147.971C415.505 147.939 417.236 147.702 417.319 143.393C417.297 143.177 417.319 143.195 417.32 143.418C417.401 147.301 415.479 147.993 415.439 148.006Z" stroke="black" stroke-width="0.986679" stroke-linecap="round" stroke-linejoin="round"/>
<path d="M411.717 123.925C417.155 133.106 430.574 131.424 434.293 129.015C437.632 126.82 438.916 127.866 439.26 125.558" fill="#FFB29B"/>
<path d="M411.717 123.925C417.155 133.106 430.574 131.424 434.293 129.015C437.632 126.82 438.916 127.866 439.26 125.558" stroke="black" stroke-width="0.986679" stroke-linecap="round" stroke-linejoin="round"/>
<path d="M417.039 115.431C413.08 116.947 410.315 121.197 411.804 123.485C414.385 127.63 424.277 129.905 429.827 127.3C435.233 124.796 430.333 123.729 425.273 121.051C420.532 118.564 421.113 113.887 417.039 115.431Z" fill="#FFB29B"/>
<path d="M436.177 143.054C436.177 143.054 449.203 144.199 447.72 131.051C446.277 118.244 430.365 119.531 430.571 130.465" fill="#FEECDF"/>
<path d="M436.177 143.054C436.177 143.054 449.203 144.199 447.72 131.051C446.277 118.244 430.365 119.531 430.571 130.465" stroke="black" stroke-width="0.986679" stroke-linecap="round" stroke-linejoin="round"/>
<path d="M439.748 126.391C436.258 129.339 434.984 133.942 435.391 137.836" stroke="black" stroke-width="0.986679" stroke-linecap="round" stroke-linejoin="round"/>
<path d="M435.721 133.572C436.975 133.608 438.001 134.244 438.515 135.053" stroke="black" stroke-width="0.986679" stroke-linecap="round" stroke-linejoin="round"/>
<path d="M342.235 182.049C340.554 179.623 337.504 178.282 336.511 176.756C335.592 175.401 333.774 171.169 332.906 169.218C331.445 165.891 328.139 163.554 326.122 165.609C323.627 168.136 326.842 174.146 326.639 185.048" fill="#FEECDF"/>
<path d="M342.235 182.049C340.554 179.623 337.504 178.282 336.511 176.756C335.592 175.401 333.774 171.169 332.906 169.218C331.445 165.891 328.139 163.554 326.122 165.609C323.627 168.136 326.842 174.146 326.639 185.048" stroke="black" stroke-width="0.933345" stroke-linecap="round" stroke-linejoin="round"/>
</g>
<mask id="mask3_513_14672" style="mask-type:luminance" maskUnits="userSpaceOnUse" x="0" y="-80" width="637" height="551">
<path d="M0 -80H637V471H0V-80Z" fill="white"/>
</mask>
<g mask="url(#mask3_513_14672)">
<path d="M223.932 219.809C229.551 216.811 233.122 211.119 231.091 205.699C227.249 195.48 194.621 182.612 182.081 201.315C180.182 204.141 181.202 207.382 182.19 209.236C180.779 209.356 176.518 211.734 175.701 218.149C174.973 223.859 177.18 230.045 182.543 233.208C196.979 235.749 210.85 232.286 223.932 219.809Z" fill="#B9B9B9"/>
<path d="M223.932 219.809C229.551 216.811 233.122 211.119 231.091 205.699C227.249 195.48 194.621 182.612 182.081 201.315C180.182 204.141 181.202 207.382 182.19 209.236C180.779 209.356 176.518 211.734 175.701 218.149C174.973 223.859 177.18 230.045 182.543 233.208C196.979 235.749 210.85 232.286 223.932 219.809Z" stroke="black" stroke-width="0.986679" stroke-linecap="round" stroke-linejoin="round"/>
<path d="M243.063 306.038C243.063 306.038 253.246 289.04 257.527 283.57C261.808 278.1 271.207 276.884 271.86 281.112C271.86 281.112 277.038 286.16 272.555 291.313C276.32 292.778 276.065 296.474 275.053 299.455C274.15 302.115 270.418 307.522 270.418 307.522C270.418 307.522 261.776 319.192 253.132 317.855L243.063 306.038Z" fill="#FEECDF"/>
<path d="M243.063 306.038C243.063 306.038 253.246 289.04 257.527 283.57C261.808 278.1 271.207 276.884 271.86 281.112C271.86 281.112 277.038 286.16 272.555 291.313C276.32 292.778 276.065 296.474 275.053 299.455C274.15 302.115 270.418 307.522 270.418 307.522C270.418 307.522 261.776 319.192 253.132 317.855L243.063 306.038Z" stroke="black" stroke-linecap="round" stroke-linejoin="round"/>
<path d="M271.529 297.211C272.282 293.63 273.78 290.467 276.931 290.424C278.006 290.409 282.9 292.601 280.434 300.359C277.968 308.116 274.648 308.105 274.648 308.105C274.648 308.105 268.833 308.685 271.167 298.343" fill="#FEECDF"/>
<path d="M271.529 297.211C272.282 293.63 273.78 290.467 276.931 290.424C278.006 290.409 282.9 292.601 280.434 300.359C277.968 308.116 274.648 308.105 274.648 308.105C274.648 308.105 268.833 308.685 271.167 298.343" stroke="black" stroke-linecap="round" stroke-linejoin="round"/>
<path d="M272.012 281.303C281.326 279.126 278.103 290.183 278.103 290.183C278.103 290.183 276.109 296.694 272.599 298.625C269.088 300.557 265.972 298.893 266.776 294.676C267.375 291.531 268.123 289.476 269.001 286.989" fill="#FEECDF"/>
<path d="M272.012 281.303C281.326 279.126 278.103 290.183 278.103 290.183C278.103 290.183 276.109 296.694 272.599 298.625C269.088 300.557 265.972 298.893 266.776 294.676C267.375 291.531 268.123 289.476 269.001 286.989" stroke="black" stroke-linecap="round" stroke-linejoin="round"/>
<path d="M257.526 283.57C260.967 279.173 265.888 276.562 269.951 273.055C270.913 272.544 273.176 272.391 273.976 273.035C275.215 274.151 275.857 275.35 275.472 276.768C275.076 278.23 274.525 278.75 273.431 280.355C271.953 282.679 268.87 283.634 267.33 285.064" fill="#FEECDF"/>
<path d="M257.526 283.57C260.967 279.173 265.888 276.562 269.951 273.055C270.913 272.544 273.176 272.391 273.976 273.035C275.215 274.151 275.857 275.35 275.472 276.768C275.076 278.23 274.525 278.75 273.431 280.355C271.953 282.679 268.87 283.634 267.33 285.064" stroke="black" stroke-linecap="round" stroke-linejoin="round"/>
<path d="M252.326 292.102C252.326 292.102 254.787 288.956 255.658 285.272C256.288 282.609 258.644 272.374 262.329 273.669C266.014 274.964 264.169 282.962 263.945 285.274C263.225 292.7 269.269 303.63 260.458 309.335" fill="#FEECDF"/>
<path d="M252.326 292.102C252.326 292.102 254.787 288.956 255.658 285.272C256.288 282.609 258.644 272.374 262.329 273.669C266.014 274.964 264.169 282.962 263.945 285.274C263.225 292.7 269.269 303.63 260.458 309.335" stroke="black" stroke-linecap="round" stroke-linejoin="round"/>
<path d="M191.017 300.556C193.496 313.748 196.22 329.078 203.139 335.285C213.951 344.986 226.109 322.017 222.613 310.87C219.118 299.723 220.507 284.881 218.23 276.039C215.299 264.66 209.265 258.894 209.265 258.894" fill="white"/>
<path d="M191.017 300.556C193.496 313.748 196.22 329.078 203.139 335.285C213.951 344.986 226.109 322.017 222.613 310.87C219.118 299.723 220.507 284.881 218.23 276.039C215.299 264.66 209.265 258.894 209.265 258.894" stroke="black" stroke-width="1.00001" stroke-linecap="round" stroke-linejoin="round"/>
<mask id="mask4_513_14672" style="mask-type:alpha" maskUnits="userSpaceOnUse" x="191" y="258" width="33" height="80">
<path d="M191.02 300.558C193.5 313.749 196.223 329.078 203.142 335.285C213.954 344.986 226.112 322.017 222.616 310.87C219.121 299.723 220.51 284.881 218.233 276.039C215.302 264.66 209.268 258.894 209.268 258.894" fill="white"/>
</mask>
<g mask="url(#mask4_513_14672)">
<path d="M222.839 288.916C218.138 296.036 178.722 299.362 171.076 292.717" stroke="#F35322" stroke-width="5.00006"/>
<path d="M228.281 297.969C220.691 306.747 184.176 316.097 173.91 309.993" stroke="#F35322" stroke-width="5.00006"/>
</g>
<path d="M191.018 300.558C193.498 313.749 196.221 329.078 203.14 335.285C213.952 344.986 226.11 322.017 222.615 310.87C219.119 299.723 220.508 284.881 218.231 276.039C215.3 264.66 209.266 258.894 209.266 258.894" stroke="black" stroke-width="1.00001" stroke-linecap="round" stroke-linejoin="round"/>
<path d="M193.114 342.434C206.84 347.182 227.214 342.326 238.166 338.261C251.931 333.151 261.876 328.988 263.434 322.633C265.749 313.19 254.83 304.335 254.83 304.335C255.684 296.519 244.666 291.341 229.412 301.982C217.046 310.607 207.823 315.222 207.823 315.222" fill="white"/>
<path d="M193.114 342.434C206.84 347.182 227.214 342.326 238.166 338.261C251.931 333.151 261.876 328.988 263.434 322.633C265.749 313.19 254.83 304.335 254.83 304.335C255.684 296.519 244.666 291.341 229.412 301.982C217.046 310.607 207.823 315.222 207.823 315.222" stroke="black" stroke-linecap="round" stroke-linejoin="round"/>
<mask id="mask5_513_14672" style="mask-type:alpha" maskUnits="userSpaceOnUse" x="193" y="295" width="71" height="50">
<path d="M193.114 342.434C206.84 347.182 227.214 342.326 238.166 338.261C251.931 333.151 261.876 328.988 263.434 322.633C265.749 313.19 254.83 304.335 254.83 304.335C255.684 296.519 244.666 291.341 229.412 301.982C217.046 310.607 207.823 315.222 207.823 315.222" fill="white"/>
</mask>
<g mask="url(#mask5_513_14672)">
<path d="M209.311 304.45C219.731 313.559 222.842 345.527 218.555 354.34L209.311 304.45Z" fill="white"/>
<path d="M209.311 304.45C219.731 313.559 222.842 345.527 218.555 354.34" stroke="#F35322" stroke-width="5"/>
<path d="M217.494 298.563C232.96 314.221 235.727 338.729 233.992 346.783" stroke="#F35322" stroke-width="5"/>
<path d="M231.992 294.591C238.866 303.3 250.681 328.079 251.849 340.842L231.992 294.591Z" fill="white"/>
<path d="M231.992 294.591C238.866 303.3 250.681 328.079 251.849 340.842" stroke="#F35322" stroke-width="5"/>
<path d="M205.186 311.11C206.904 314.6 207.295 349.162 200.237 356.459L205.186 311.11Z" fill="white"/>
<path d="M205.186 311.11C206.904 314.6 207.295 349.162 200.237 356.459" stroke="#F35322" stroke-width="5"/>
</g>
<path d="M193.114 342.434C206.84 347.182 227.214 342.326 238.166 338.261C251.931 333.151 261.876 328.988 263.434 322.633C265.749 313.19 254.83 304.335 254.83 304.335C255.684 296.519 244.666 291.341 229.412 301.982C217.046 310.607 207.823 315.222 207.823 315.222" stroke="black" stroke-linecap="round" stroke-linejoin="round"/>
<path d="M319.183 384.723C326.761 385.796 344.184 397.625 347.724 414.924L263.723 415.209C263.723 415.209 259.493 396.649 274.682 381.939C274.682 381.939 279.04 390.319 286.091 392.532C296.504 395.801 310.72 383.505 319.183 384.723Z" fill="white"/>
<path d="M263.471 415.22L265.694 421.266L346.735 421.27C346.735 421.27 348.163 417.896 347.717 415.027L263.471 415.22Z" fill="#B9B9B9"/>
<path d="M319.183 384.723C326.761 385.796 344.184 397.625 347.724 414.924L263.723 415.209C263.723 415.209 259.493 396.649 274.682 381.939C274.682 381.939 279.04 390.319 286.091 392.532C296.504 395.801 310.72 383.505 319.183 384.723Z" stroke="black" stroke-linecap="round" stroke-linejoin="round"/>
<path d="M340.525 415.065L340.535 421.123" stroke="black" stroke-linecap="round" stroke-linejoin="round"/>
<path d="M337.404 415.07L337.414 421.128" stroke="black" stroke-linecap="round" stroke-linejoin="round"/>
<path d="M321.807 415.094L321.816 421.152" stroke="black" stroke-linecap="round" stroke-linejoin="round"/>
<path d="M312.447 415.109L312.457 421.167" stroke="black" stroke-linecap="round" stroke-linejoin="round"/>
<path d="M309.326 415.114L309.336 421.172" stroke="black" stroke-linecap="round" stroke-linejoin="round"/>
<path d="M296.848 415.133L296.857 421.191" stroke="black" stroke-linecap="round" stroke-linejoin="round"/>
<path d="M284.369 415.152L284.379 421.211" stroke="black" stroke-linecap="round" stroke-linejoin="round"/>
<path d="M281.25 415.157L281.259 421.216" stroke="black" stroke-linecap="round" stroke-linejoin="round"/>
<path d="M278.129 415.162L278.138 421.22" stroke="black" stroke-linecap="round" stroke-linejoin="round"/>
<path d="M263.723 415.209C264.125 417.277 264.785 419.295 265.694 421.266L346.735 421.27C346.735 421.27 348.163 417.896 347.717 415.027L263.723 415.209Z" stroke="black" stroke-linecap="round" stroke-linejoin="round"/>
<path d="M309.664 386.814C309.664 386.814 327.938 408.515 339.138 398.382" stroke="black" stroke-linecap="round" stroke-linejoin="round"/>
<path d="M263.936 319.51C274.438 308.123 273.872 296.237 269.22 292.457C262.158 286.72 254.06 287.527 237.356 291.358C205.68 298.621 192.08 303.496 164.937 317.031C134.838 332.04 144.262 385.545 195.375 361.885C215.475 352.581 242.03 336.457 242.03 336.457C242.03 336.457 253.435 330.896 263.936 319.51Z" fill="#CFD9F1"/>
<path d="M263.936 319.51C274.438 308.123 273.872 296.237 269.22 292.457C262.158 286.72 254.06 287.527 237.356 291.358C205.68 298.621 192.08 303.496 164.937 317.031C134.838 332.04 144.262 385.545 195.375 361.885C215.475 352.581 242.03 336.457 242.03 336.457C242.03 336.457 253.435 330.896 263.936 319.51Z" stroke="black" stroke-linecap="round" stroke-linejoin="round"/>
<path d="M239.732 326.822C240.784 332.497 242.03 336.457 242.03 336.457C242.03 336.457 255.743 383.026 263.591 401.539C283.634 404.949 302 386.596 319.171 384.701C319.171 384.701 297.055 336.44 283.989 313.323C269.093 286.969 265.065 285.004 237.355 291.358" fill="#CFD9F1"/>
<path d="M239.732 326.822C240.784 332.497 242.03 336.457 242.03 336.457C242.03 336.457 255.743 383.026 263.591 401.539C283.634 404.949 302 386.596 319.171 384.701C319.171 384.701 297.055 336.44 283.989 313.323C269.093 286.969 265.065 285.004 237.355 291.358" stroke="black" stroke-linecap="round" stroke-linejoin="round"/>
<path d="M271.531 297.211C272.284 293.63 273.782 290.467 276.932 290.424C278.008 290.409 282.902 292.601 280.436 300.359C277.97 308.116 274.65 308.105 274.65 308.105C274.65 308.105 268.835 308.686 271.168 298.343" fill="#FEECDF"/>
<path d="M271.531 297.211C272.284 293.63 273.782 290.467 276.932 290.424C278.008 290.409 282.902 292.601 280.436 300.359C277.97 308.116 274.65 308.105 274.65 308.105C274.65 308.105 268.835 308.686 271.168 298.343" stroke="black" stroke-linecap="round" stroke-linejoin="round"/>
<path d="M272.014 281.303C281.328 279.127 278.105 290.184 278.105 290.184C278.105 290.184 276.111 296.694 272.6 298.626C269.09 300.557 265.974 298.893 266.778 294.676C267.377 291.531 268.125 289.476 269.003 286.989" fill="#FEECDF"/>
<path d="M272.014 281.303C281.328 279.127 278.105 290.184 278.105 290.184C278.105 290.184 276.111 296.694 272.6 298.626C269.09 300.557 265.974 298.893 266.778 294.676C267.377 291.531 268.125 289.476 269.003 286.989" stroke="black" stroke-linecap="round" stroke-linejoin="round"/>
<path d="M272.994 272.185C270.372 271.734 267.999 273.315 266.419 276.363C264.739 279.412 263.782 284.894 266.861 286.853C269.939 288.812 274.586 282.609 275.338 278.786C276.089 274.962 274.931 272.652 272.994 272.185Z" fill="#FEECDF"/>
<path d="M272.994 272.185C270.372 271.734 267.999 273.315 266.419 276.363C264.739 279.412 263.782 284.894 266.861 286.853C269.939 288.812 274.586 282.609 275.338 278.786C276.089 274.962 274.931 272.652 272.994 272.185Z" stroke="black" stroke-linecap="round" stroke-linejoin="round"/>
<path d="M242.067 388.989C214.065 369.99 143.254 356.601 138.84 360.23C120.092 375.644 135.528 405.451 135.528 405.451C135.528 405.451 209.179 421.649 227.534 421.649C257.807 421.649 253.454 396.715 242.067 388.989Z" fill="#CFD9F1"/>
<path d="M242.067 388.989C214.065 369.99 143.254 356.601 138.84 360.23C120.092 375.644 135.528 405.451 135.528 405.451C135.528 405.451 209.179 421.649 227.534 421.649C257.807 421.649 253.454 396.715 242.067 388.989Z" stroke="black" stroke-linecap="round" stroke-linejoin="round"/>
<path d="M135.2 405.371C131.457 412.047 114.124 424.008 96.7166 421.047L126.854 342.637C126.854 342.637 145.687 345.411 153.902 364.895C153.902 364.895 144.513 365.924 139.897 371.695C133.081 380.22 139.399 397.922 135.2 405.371Z" fill="white"/>
<path d="M126.933 342.398L120.492 342.282L91.1577 417.827C91.1577 417.827 93.7853 420.38 96.6216 421.003L126.933 342.398Z" fill="#B9B9B9"/>
<path d="M135.2 405.371C131.457 412.047 114.124 424.008 96.7166 421.047L126.854 342.637C126.854 342.637 145.687 345.411 153.902 364.895C153.902 364.895 144.513 365.924 139.897 371.695C133.081 380.22 139.399 397.922 135.2 405.371Z" stroke="black" stroke-linecap="round" stroke-linejoin="round"/>
<path d="M99.1914 414.284L93.5405 412.1" stroke="black" stroke-linecap="round" stroke-linejoin="round"/>
<path d="M100.316 411.374L94.6655 409.19" stroke="black" stroke-linecap="round" stroke-linejoin="round"/>
<path d="M105.939 396.824L100.289 394.64" stroke="black" stroke-linecap="round" stroke-linejoin="round"/>
<path d="M109.312 388.094L103.662 385.91" stroke="black" stroke-linecap="round" stroke-linejoin="round"/>
<path d="M110.436 385.184L104.785 383" stroke="black" stroke-linecap="round" stroke-linejoin="round"/>
<path d="M114.936 373.543L109.285 371.36" stroke="black" stroke-linecap="round" stroke-linejoin="round"/>
<path d="M119.434 361.903L113.783 359.719" stroke="black" stroke-linecap="round" stroke-linejoin="round"/>
<path d="M120.559 358.993L114.908 356.809" stroke="black" stroke-linecap="round" stroke-linejoin="round"/>
<path d="M121.684 356.083L116.033 353.899" stroke="black" stroke-linecap="round" stroke-linejoin="round"/>
<path d="M126.854 342.637C124.78 342.263 122.66 342.148 120.494 342.282L91.159 417.828C91.159 417.828 93.7866 420.38 96.6229 421.003L126.854 342.637Z" stroke="black" stroke-linecap="round" stroke-linejoin="round"/>
<path d="M136.695 395.74C136.695 395.74 109.852 404.921 115.244 419.03" stroke="black" stroke-linecap="round" stroke-linejoin="round"/>
<path d="M208.173 406.844C208.173 406.844 172.884 390.04 154.533 377.636C107.869 346.095 148.814 310.385 177.214 328.402C202.825 344.651 215.106 353.026 237.689 376.395C257.444 396.838 257.807 421.649 227.535 421.649" fill="#CFD9F1"/>
<path d="M208.173 406.844C208.173 406.844 172.884 390.04 154.533 377.636C107.869 346.095 148.814 310.385 177.214 328.402C202.825 344.651 215.106 353.026 237.689 376.395C257.444 396.838 257.807 421.649 227.535 421.649" stroke="black" stroke-linecap="round" stroke-linejoin="round"/>
<path d="M191.569 304.222C197.156 304.526 207.624 305.222 210.368 288.966C210.368 288.966 209.644 262.458 209.61 260.555C204.409 263.105 193.023 260.374 186.877 252.473C166.259 273.851 167.658 284.007 167.982 290.727C168.305 297.448 184.066 303.813 191.569 304.222Z" fill="white"/>
<path d="M170.067 268.781C159.435 279.655 136.21 297.497 150.994 314.021C157.601 325.297 174.08 335.442 186.669 333.203C199.515 330.918 205.293 324.701 207.273 317.452C210.168 306.802 207.655 302.072 210.4 285.817" fill="white"/>
<path d="M170.067 268.781C159.435 279.655 136.21 297.497 150.994 314.021C157.601 325.297 174.08 335.442 186.669 333.203C199.515 330.918 205.293 324.701 207.273 317.452C210.168 306.802 207.655 302.072 210.4 285.817" stroke="black" stroke-width="0.986679" stroke-linecap="round" stroke-linejoin="round"/>
<mask id="mask6_513_14672" style="mask-type:alpha" maskUnits="userSpaceOnUse" x="146" y="268" width="65" height="66">
<path d="M170.066 268.781C159.434 279.655 136.208 297.496 150.992 314.02C157.599 325.296 174.079 335.441 186.668 333.202C199.514 330.917 205.292 324.7 207.272 317.451C210.167 306.801 207.654 302.072 210.399 285.817" fill="white"/>
</mask>
<g mask="url(#mask6_513_14672)">
<path d="M146.096 307.667C153.196 307.603 166.697 314.059 171.48 316.838C177.411 320.285 199.161 325.588 214.472 315.749" stroke="#F35322" stroke-width="5.00006"/>
<path d="M150.869 293.623C161.382 295.028 168.349 302.366 179.888 306.562C187.972 309.502 199.837 311.882 215.179 305.442" stroke="#F35322" stroke-width="5.00006"/>
<path d="M164.791 284.797C172.028 288.832 180.378 294.357 189.393 295.975C198.409 297.594 206.304 297.022 212.492 295.666" stroke="#F35322" stroke-width="5.00006"/>
</g>
<path d="M170.068 268.781C159.436 279.655 136.21 297.496 150.994 314.02C157.601 325.296 174.081 335.441 186.67 333.202C199.516 330.917 205.294 324.7 207.274 317.451C210.169 306.801 207.656 302.072 210.401 285.817" stroke="black" stroke-width="0.986679" stroke-linecap="round" stroke-linejoin="round"/>
<path d="M183.303 360.053C183.303 360.053 186.345 368.205 194.342 369.304C202.339 370.404 203.732 371.285 203.732 371.285C203.732 371.285 213.336 358.371 211.856 351.82C210.746 346.909 200.789 343.292 196.282 342.945L183.303 360.053Z" fill="#FEECDF"/>
<path d="M183.303 360.053C183.303 360.053 186.345 368.205 194.342 369.304C202.339 370.404 203.732 371.285 203.732 371.285C203.732 371.285 213.336 358.371 211.856 351.82C210.746 346.909 200.789 343.292 196.282 342.945L183.303 360.053Z" stroke="black" stroke-width="1.00001" stroke-linecap="round" stroke-linejoin="round"/>
<path d="M196.281 342.945C196.281 342.945 222.613 341.698 222.226 356.325C221.879 358.625 218.603 360.751 214.467 355.828" fill="#FEECDF"/>
<path d="M196.281 342.945C196.281 342.945 222.613 341.698 222.226 356.325C221.879 358.625 218.603 360.751 214.467 355.828" stroke="black" stroke-width="1.00001" stroke-linecap="round" stroke-linejoin="round"/>
<path d="M209.709 357.877C210.97 360.126 221.549 367.457 224.164 368.722C228.141 370.645 231.516 365.889 226.821 359.753C222.127 353.616 213.316 350.651 210.397 349.203" fill="#FEECDF"/>
<path d="M209.709 357.877C210.97 360.126 221.549 367.457 224.164 368.722C228.141 370.645 231.516 365.889 226.821 359.753C222.127 353.616 213.316 350.651 210.397 349.203" stroke="black" stroke-width="1.00001" stroke-linecap="round" stroke-linejoin="round"/>
<path d="M206.484 364.333C207.237 366.394 217.642 375.442 221.368 377.434C221.846 377.69 225.415 377.776 226.493 374.449C227.572 371.123 224.759 366.945 221.82 364.548C218.882 362.152 206.355 355.04 206.355 355.04" fill="#FEECDF"/>
<path d="M206.484 364.333C207.237 366.394 217.642 375.442 221.368 377.434C221.846 377.69 225.415 377.776 226.493 374.449C227.572 371.123 224.759 366.945 221.82 364.548C218.882 362.152 206.355 355.04 206.355 355.04" stroke="black" stroke-width="1.00001" stroke-linecap="round" stroke-linejoin="round"/>
<path d="M203.67 371.212C203.67 371.212 214.959 385.205 220.075 380.369C225.165 375.572 213.329 366.649 209.579 364.488C207.704 363.407 205.55 362.277 203.73 361.344" fill="#FEECDF"/>
<path d="M203.67 371.212C203.67 371.212 214.959 385.205 220.075 380.369C225.165 375.572 213.329 366.649 209.579 364.488C207.704 363.407 205.55 362.277 203.73 361.344" stroke="black" stroke-width="1.00001" stroke-linecap="round" stroke-linejoin="round"/>
<path d="M186.817 252.621C178.686 250.433 168.5 252.158 158.973 258.995C148.148 266.762 126.378 306.024 124.12 320.002C122.207 331.851 154.616 338.382 160.376 317.308C162.583 309.233 169.957 295.75 174.847 288.041" fill="white"/>
<path d="M186.817 252.621C178.686 250.433 168.5 252.158 158.973 258.995C148.148 266.762 126.378 306.024 124.12 320.002C122.207 331.851 154.616 338.382 160.376 317.308C162.583 309.233 169.957 295.75 174.847 288.041" stroke="black" stroke-width="1.00001" stroke-linecap="round" stroke-linejoin="round"/>
<mask id="mask7_513_14672" style="mask-type:alpha" maskUnits="userSpaceOnUse" x="124" y="251" width="63" height="81">
<path d="M186.817 252.621C178.686 250.433 168.5 252.158 158.973 258.995C148.148 266.762 126.378 306.024 124.12 320.002C122.207 331.851 154.616 338.382 160.376 317.308C162.583 309.233 168.985 297.84 173.875 290.131" fill="white"/>
</mask>
<g mask="url(#mask7_513_14672)">
<path d="M128.471 283.756C133.568 284.009 141.743 275.968 151.028 278.289C165.841 281.992 172.668 294.013 177.738 296.966" stroke="#F35322" stroke-width="5.00006"/>
<path d="M123.847 295.609C128.756 294.76 141.993 291.296 151.472 293.394C160.951 295.492 169.301 300.378 171.479 302.501" stroke="#F35322" stroke-width="5.00006"/>
<path d="M118.275 312.353C124.591 310.818 134.239 306.217 144.032 306.918C153.826 307.619 162.088 311.305 166.058 314.246" stroke="#F35322" stroke-width="5.00006"/>
</g>
<path d="M186.817 252.621C178.686 250.433 168.5 252.158 158.973 258.995C148.148 266.762 126.378 306.024 124.12 320.002C122.207 331.851 154.616 338.382 160.376 317.308C162.583 309.233 169.957 295.75 174.847 288.041" stroke="black" stroke-width="1.00001" stroke-linecap="round" stroke-linejoin="round"/>
<path d="M124.12 320.002C122.206 331.852 136.75 340.992 149.639 351.978C160.696 361.402 171.545 368.601 178.02 369.285C198.139 371.411 212.923 336.8 183.431 328.765C172.515 325.791 160.376 317.309 160.376 317.309C158.898 316.239 157.338 314.89 156.774 314.063" fill="white"/>
<path d="M124.12 320.002C122.206 331.852 136.75 340.992 149.639 351.978C160.696 361.402 171.545 368.601 178.02 369.285C198.139 371.411 212.923 336.8 183.431 328.765C172.515 325.791 160.376 317.309 160.376 317.309C158.898 316.239 157.338 314.89 156.774 314.063" stroke="black" stroke-width="1.00001" stroke-linecap="round" stroke-linejoin="round"/>
<mask id="mask8_513_14672" style="mask-type:alpha" maskUnits="userSpaceOnUse" x="123" y="314" width="78" height="56">
<path d="M124.12 320.002C122.206 331.852 136.75 340.992 149.639 351.978C160.696 361.402 171.545 368.601 178.02 369.285C198.139 371.411 212.923 336.8 183.431 328.765C172.515 325.791 160.376 317.309 160.376 317.309C158.898 316.239 157.338 314.89 156.774 314.063" fill="white"/>
</mask>
<g mask="url(#mask8_513_14672)">
<path d="M162.926 311.806C156.261 319.349 127.664 330.503 115.343 332.897" stroke="#F35322" stroke-width="5.00006"/>
<path d="M168.886 316.558C164.177 329.118 149.673 341.194 136.216 347.778" stroke="#F35322" stroke-width="5.00006"/>
<path d="M178.645 321.342C176.413 336.723 168.67 353.258 151.5 361.31" stroke="#F35322" stroke-width="5.00006"/>
<path d="M188.409 325.626C193.133 346.168 183.111 360.282 167.219 370.846" stroke="#F35322" stroke-width="5.00006"/>
</g>
<path d="M124.12 320.002C122.206 331.852 136.75 340.992 149.639 351.978C160.696 361.402 171.545 368.601 178.02 369.285C198.139 371.411 212.923 336.8 183.431 328.765C172.515 325.791 160.376 317.309 160.376 317.309C158.898 316.239 157.338 314.89 156.774 314.063" stroke="black" stroke-width="1.00001" stroke-linecap="round" stroke-linejoin="round"/>
<path d="M170.244 253.701C171.399 256.997 175.905 261.514 183.038 265.503C190.172 269.491 202.256 275.916 216.002 270.354" stroke="#F35322" stroke-width="5.00006"/>
<path d="M155.949 262.273C159.216 265.172 164.018 269.771 172.398 274.864C180.675 279.894 191.177 283.412 199.681 283.22C208.184 283.028 213.289 280.231 218.447 278.88" stroke="#F35322" stroke-width="5.00006"/>
<mask id="mask9_513_14672" style="mask-type:alpha" maskUnits="userSpaceOnUse" x="206" y="257" width="17" height="30">
<path d="M209.706 257.629C203.76 262.068 206.213 286.095 208.863 286.122C211.512 286.15 218.932 285.493 221.69 283.555C225.619 280.795 215.653 253.191 209.706 257.629Z" fill="#91ACEF"/>
</mask>
<g mask="url(#mask9_513_14672)">
<path d="M191.019 300.557C193.498 313.748 196.222 329.078 203.141 335.285C213.953 344.986 226.111 322.017 222.615 310.87C219.119 299.723 220.509 284.881 218.232 276.039C215.301 264.66 209.267 258.894 209.267 258.894" stroke="black" stroke-width="0.80001" stroke-linecap="round" stroke-linejoin="round"/>
</g>
<path d="M208.298 264.655C209.585 264.076 210.874 263.24 211.136 261.114C211.572 257.564 209.07 251.822 201.354 248.716C193.894 245.708 188.167 248.403 186.364 250.962C185.032 252.838 185.613 255.47 187.292 257.184C192.001 263.157 198.743 266.061 208.298 264.655Z" fill="white"/>
<path d="M208.298 264.655C209.585 264.076 210.874 263.24 211.136 261.114C211.572 257.564 209.07 251.822 201.354 248.716C193.894 245.708 188.167 248.403 186.364 250.962C185.032 252.838 185.613 255.47 187.292 257.184" fill="white"/>
<path d="M208.298 264.655C209.585 264.076 210.874 263.24 211.136 261.114C211.572 257.564 209.07 251.822 201.354 248.716C193.894 245.708 188.167 248.403 186.364 250.962C185.032 252.838 185.613 255.47 187.292 257.184" stroke="black" stroke-width="0.986679" stroke-linecap="round" stroke-linejoin="round"/>
<path d="M200.925 237.535L193.017 251.591C196.913 260.262 206.301 259.526 206.301 259.526L215.673 243.526L200.925 237.535Z" fill="#FEECDF"/>
<path d="M200.925 237.535L193.017 251.591C196.913 260.262 206.301 259.526 206.301 259.526L215.673 243.526L200.925 237.535Z" stroke="black" stroke-width="0.986679"/>
<path d="M211.961 208.261C213.399 208.482 223.344 209.413 226.797 221.482C227.833 224.939 228.24 226.997 228.24 226.997C228.24 226.997 231.386 241.955 216.939 246.589C208.084 249.344 199.991 243.54 199.991 243.54C199.991 243.54 187.762 234.299 198.251 230.388C183.991 222.337 198.865 207.097 211.961 208.261Z" fill="#FEECDF"/>
<path d="M211.961 208.261C213.399 208.482 223.344 209.413 226.797 221.482C227.833 224.939 228.24 226.997 228.24 226.997C228.24 226.997 231.386 241.955 216.939 246.589C208.084 249.344 199.991 243.54 199.991 243.54C199.991 243.54 187.762 234.299 198.251 230.388C183.991 222.337 198.865 207.097 211.961 208.261Z" stroke="black" stroke-width="0.986679" stroke-linecap="round" stroke-linejoin="round"/>
<path d="M226.796 221.482C226.796 221.482 229.669 218.82 231.138 220.61C232.607 222.399 228.239 226.997 228.239 226.997C228.239 226.997 220.842 228.897 226.796 221.482Z" fill="#FEECDF"/>
<path d="M226.797 221.482C226.797 221.482 229.67 218.82 231.139 220.61C232.607 222.399 228.239 226.997 228.239 226.997" fill="#FEECDF"/>
<path d="M226.797 221.482C226.797 221.482 229.67 218.82 231.139 220.61C232.607 222.399 228.239 226.997 228.239 226.997" stroke="black" stroke-width="0.986679" stroke-linecap="round" stroke-linejoin="round"/>
<path d="M224.348 235.47C223.88 234.5 223.767 234.448 224.451 233.947C225.47 233.841 227.37 233.932 227.966 233.89C228.265 234.33 228.153 234.508 227.78 235.045C227.615 235.547 225.564 236.448 224.348 235.47Z" fill="black"/>
<path d="M224.348 235.47C223.88 234.5 223.767 234.448 224.451 233.947C225.47 233.841 227.37 233.932 227.966 233.89C228.265 234.33 228.153 234.508 227.78 235.045C227.615 235.547 225.564 236.448 224.348 235.47Z" stroke="black" stroke-width="0.986679" stroke-linecap="round" stroke-linejoin="round"/>
<path d="M221.984 221.173C221.857 220.936 221.491 220.802 221.027 220.929C220.564 221.055 220.332 221.367 220.316 221.629C220.443 222.092 220.915 222.361 221.378 222.235C221.846 222.123 222.111 221.636 221.984 221.173Z" fill="black"/>
<path d="M215.788 234.255C214.883 230.884 211.422 228.909 208.052 229.815C204.682 230.72 202.693 234.186 203.614 237.553C204.52 240.924 207.985 242.914 211.351 241.993C214.716 241.072 216.71 237.621 215.788 234.255Z" fill="#FFB29B"/>
<mask id="mask10_513_14672" style="mask-type:alpha" maskUnits="userSpaceOnUse" x="223" y="233" width="6" height="3">
<path d="M224.348 235.47C223.88 234.5 223.767 234.448 224.451 233.947C225.47 233.841 227.37 233.932 227.966 233.89C228.265 234.33 228.153 234.508 227.78 235.045C227.615 235.547 225.564 236.448 224.348 235.47Z" fill="black"/>
</mask>
<g mask="url(#mask10_513_14672)">
<path d="M227.378 234.627C225.722 234.302 224.015 235.796 223.104 236.57C222.193 237.343 224.163 237.485 226.002 236.912C227.841 236.339 229.033 234.952 227.378 234.627Z" fill="#FFB29B"/>
<path d="M221.837 233.191C221.315 233.714 220.466 234.609 222.011 234.758C223.736 234.924 225.661 234.638 227.571 234.171C229.48 233.704 227.936 231.72 226.594 232.19C225.059 232.728 222.359 232.669 221.837 233.191Z" fill="white"/>
</g>
<path d="M224.348 235.47C223.88 234.5 223.767 234.448 224.451 233.947C225.47 233.841 227.37 233.932 227.966 233.89C228.265 234.33 228.153 234.508 227.78 235.045C227.615 235.547 225.564 236.448 224.348 235.47Z" stroke="black" stroke-width="0.986679" stroke-linecap="round" stroke-linejoin="round"/>
<path d="M194.493 227.748C201.14 225.78 203.144 219.156 202.279 212.537C213.546 212.957 213.196 201.732 224.24 207.159C224.24 207.159 204.85 191.056 191.912 205.154C183.814 213.979 184.115 221.777 187.428 226.088C188.835 227.919 194.493 227.748 194.493 227.748Z" fill="#B9B9B9"/>
<path d="M187.113 229.5C189.821 229.395 194.492 227.748 194.492 227.748C201.139 225.78 203.144 219.156 202.279 212.537C213.546 212.957 213.196 201.732 224.239 207.159" stroke="black" stroke-width="0.986679" stroke-linecap="round" stroke-linejoin="round"/>
<path d="M199.992 243.54C199.992 243.54 187.47 250.419 180.499 241.985C173.554 231.038 186.551 221.771 198.252 230.388" fill="#FEECDF"/>
<path d="M199.992 243.54C199.992 243.54 187.47 250.419 180.499 241.985C173.554 231.038 186.551 221.771 198.252 230.388" stroke="black" stroke-width="0.986679" stroke-linecap="round" stroke-linejoin="round"/>
<path d="M190.126 239.597C190.575 237.704 192.097 236.901 193.463 236.334" stroke="black" stroke-width="0.986679" stroke-linecap="round" stroke-linejoin="round"/>
<path d="M183.246 233.047C188.445 232.647 194.543 236.038 196.927 239.699" stroke="black" stroke-width="0.986679" stroke-linecap="round" stroke-linejoin="round"/>
</g>
</g>
</g>
<defs>
<clipPath id="clip0_513_14672">
<rect width="637" height="464" fill="white"/>
</clipPath>
</defs>
</svg>
