<svg width="637" height="564" viewBox="0 0 637 564" fill="none" xmlns="http://www.w3.org/2000/svg">
<mask id="mask0_513_13975" style="mask-type:luminance" maskUnits="userSpaceOnUse" x="0" y="0" width="612" height="564">
<path d="M612 0H0V564H612V0Z" fill="white"/>
</mask>
<g mask="url(#mask0_513_13975)">
<path d="M436.17 504.369H158.128C121.733 504.369 92.2285 474.865 92.2285 438.469V198.779C92.2285 162.384 121.733 132.88 158.128 132.88H436.17C472.566 132.88 502.07 162.384 502.07 198.779V438.469C502.07 474.865 472.566 504.369 436.17 504.369Z" fill="white"/>
<path d="M436.17 504.369H158.128C121.733 504.369 92.2285 474.865 92.2285 438.469V198.779C92.2285 162.384 121.733 132.88 158.128 132.88H436.17C472.566 132.88 502.07 162.384 502.07 198.779V438.469C502.07 474.865 472.566 504.369 436.17 504.369Z" stroke="black" stroke-width="1.33335" stroke-linecap="round" stroke-linejoin="round"/>
<path d="M92.2285 318.701H502.07" stroke="black" stroke-width="1.33335" stroke-linecap="round" stroke-linejoin="round"/>
<path d="M297.148 132.88V504.521" stroke="black" stroke-width="1.33335" stroke-linecap="round" stroke-linejoin="round"/>
<path d="M502.069 198.779V318.7H297.148V132.88H436.17C472.564 132.88 502.069 162.385 502.069 198.779Z" fill="#CAD5F3"/>
<path d="M502.069 198.779V318.7H297.148V132.88H436.17C472.564 132.88 502.069 162.385 502.069 198.779Z" stroke="black" stroke-width="1.33335" stroke-linecap="round" stroke-linejoin="round"/>
<mask id="mask1_513_13975" style="mask-type:alpha" maskUnits="userSpaceOnUse" x="91" y="132" width="412" height="188">
<path d="M92.2285 318.634V198.779C92.2285 162.384 121.733 132.88 158.128 132.88H436.17C472.566 132.88 502.07 162.384 502.07 198.779V318.586L92.2285 318.634Z" stroke="black" stroke-width="1.33335" stroke-linecap="round" stroke-linejoin="round"/>
<path d="M92.2285 318.634V198.779C92.2285 162.384 121.733 132.88 158.128 132.88H436.17C472.566 132.88 502.07 162.384 502.07 198.779V318.586L92.2285 318.634Z" fill="#FF0000"/>
</mask>
<g mask="url(#mask1_513_13975)">
<mask id="mask2_513_13975" style="mask-type:luminance" maskUnits="userSpaceOnUse" x="1" y="1" width="608" height="608">
<path d="M1.64062 1.49219H608.752V608.604H1.64062V1.49219Z" fill="white"/>
</mask>
<g mask="url(#mask2_513_13975)">
<path d="M183.691 180.591C173.93 166.248 138.953 151.708 121.419 180.414C99.7153 215.938 126.639 272.741 126.639 272.741C121.85 271.225 104.256 270.607 91.5747 280.775C68.662 299.667 68.7654 331.794 91.9545 347.283C109.132 358.758 137.753 357.62 151.818 323.77C156.404 312.731 158.57 303.978 161.038 286.752C162.771 274.663 173.423 265.971 168.827 235.425C167.961 235.783 188.334 223.017 187.436 223.302C188.332 223.007 192.611 178.991 183.691 180.591Z" fill="#FFB29B"/>
<path d="M183.691 180.591C173.93 166.248 138.953 151.708 121.419 180.414C99.7153 215.938 126.639 272.741 126.639 272.741C121.85 271.225 104.256 270.607 91.5747 280.775C68.662 299.667 68.7654 331.794 91.9545 347.283C109.132 358.758 137.753 357.62 151.818 323.77C156.404 312.731 158.57 303.978 161.038 286.752C162.771 274.663 173.423 265.971 168.827 235.425C167.961 235.783 188.334 223.017 187.436 223.302C188.332 223.007 192.611 178.991 183.691 180.591Z" stroke="black" stroke-width="1.32267" stroke-linecap="round" stroke-linejoin="round"/>
<path d="M198.542 300.815C198.551 306.765 198.358 310.333 199.566 318.807C205.191 351.874 95.5696 355.833 103.853 320.216C108.253 300.479 130.937 287.909 145.115 262.075C150.879 251.572 159.635 251.01 170.645 250.046C183.385 248.931 190.149 253.239 195.289 257.063C204.34 263.799 204.914 272.437 201.458 277.715C200.588 282.541 198.528 291.503 198.542 300.815Z" fill="#B9B9B9"/>
<path d="M198.542 300.815C198.551 306.765 198.358 310.333 199.566 318.807C205.191 351.874 95.5696 355.833 103.853 320.216C108.253 300.479 130.937 287.909 145.115 262.075C150.879 251.572 159.635 251.01 170.645 250.046C183.385 248.931 190.149 253.239 195.289 257.063C204.34 263.799 204.914 272.437 201.458 277.715C200.588 282.541 198.528 291.503 198.542 300.815Z" stroke="black" stroke-width="1.32267" stroke-linecap="round" stroke-linejoin="round"/>
<path d="M184.666 233.817L174.68 254.895C174.68 254.895 181.323 275.08 196.622 269.351L204.833 253.521L184.666 233.817Z" fill="#FEECDF"/>
<path d="M184.666 233.817L174.68 254.895C174.68 254.895 181.323 275.08 196.622 269.351L204.833 253.521L184.666 233.817Z" stroke="black" stroke-width="1.32267" stroke-linecap="round" stroke-linejoin="round"/>
<path d="M217.159 196.073C217.159 196.073 227.98 202.036 231.492 216.528L233.351 223.331C233.351 223.331 237.182 242.792 218.03 251.689C199.573 260.261 186.2 244.965 186.2 244.965C183.06 241.345 178.717 230.743 179.073 223.281C179.522 213.867 184.66 205.693 192.115 199.827C200.453 193.266 211.208 193.458 217.159 196.073Z" fill="#FEECDF"/>
<path d="M217.159 196.073C217.159 196.073 227.98 202.036 231.492 216.528L233.351 223.331C233.351 223.331 237.182 242.792 218.03 251.689C199.573 260.261 186.2 244.965 186.2 244.965C183.06 241.345 178.717 230.743 179.073 223.281C179.522 213.867 184.66 205.693 192.115 199.827C200.453 193.266 211.208 193.458 217.159 196.073Z" stroke="black" stroke-width="1.32267" stroke-linecap="round" stroke-linejoin="round"/>
<path d="M220.99 213.835C220.947 213.064 221.536 212.403 222.307 212.36C223.078 212.316 223.739 212.906 223.783 213.677C223.826 214.447 223.237 215.107 222.467 215.152C221.696 215.196 221.035 214.606 220.991 213.835L220.99 213.835Z" fill="black"/>
<path d="M223.487 232.982C227.796 237.965 231.482 236.92 232.068 236.922C232.464 235.957 233.115 233.095 233.043 233.076C229.552 234.322 226.292 232.584 224.373 231.616C222.979 230.912 223.487 232.982 223.487 232.982Z" fill="black"/>
<path d="M223.487 232.982C227.796 237.965 231.482 236.92 232.068 236.922C232.464 235.957 233.115 233.095 233.043 233.076C229.552 234.322 226.292 232.584 224.373 231.616C222.979 230.912 223.487 232.982 223.487 232.982Z" stroke="black" stroke-width="1.32267" stroke-linecap="round" stroke-linejoin="round"/>
<path d="M195.922 236.462C195.651 231.758 199.245 227.726 203.948 227.455C208.652 227.184 212.684 230.778 212.955 235.481C213.226 240.185 209.632 244.217 204.929 244.488C200.225 244.759 196.193 241.165 195.922 236.462Z" fill="#FFB29B"/>
<path d="M238.188 212.713C235.422 209.15 231.966 215.607 230.338 218.244C228.578 221.093 231.697 225.045 231.697 225.045C231.697 225.045 241.166 216.55 238.188 212.713Z" fill="#FEECDF"/>
<path d="M231.491 216.529C231.491 216.529 235.062 209.278 238.087 212.624C241.111 215.971 233.378 223.494 233.378 223.494" stroke="black" stroke-width="1.32267" stroke-linecap="round" stroke-linejoin="round"/>
<mask id="mask3_513_13975" style="mask-type:alpha" maskUnits="userSpaceOnUse" x="223" y="231" width="11" height="7">
<path d="M223.487 232.982C227.796 237.965 231.482 236.92 232.068 236.922C232.464 235.957 233.115 233.095 233.043 233.076C229.552 234.322 226.292 232.584 224.373 231.616C222.979 230.912 223.487 232.982 223.487 232.982Z" fill="black"/>
</mask>
<g mask="url(#mask3_513_13975)">
<path d="M230.866 237.099C229.618 236.588 222.328 236.564 223.727 237.617C225.125 238.67 228.283 240.343 229.885 239.887C231.487 239.43 232.115 237.61 230.866 237.099Z" fill="#FFB29B"/>
<path d="M221.001 227.366C219.878 227.721 220.406 229.282 220.578 230.083C220.834 231.28 228.225 236.44 231.907 235.029C233.393 234.459 234.497 234.345 233.257 232.353C232.431 231.027 223.369 227.592 221.001 227.366Z" fill="white"/>
</g>
<path d="M223.487 232.982C227.796 237.965 231.482 236.92 232.068 236.922C232.464 235.957 233.115 233.095 233.043 233.076C229.552 234.322 226.292 232.584 224.373 231.616C222.979 230.912 223.487 232.982 223.487 232.982Z" stroke="black" stroke-width="1.32267" stroke-linecap="round" stroke-linejoin="round"/>
<path d="M165.825 224.094C165.825 224.094 172.48 225.801 181.081 224.686C195.878 222.41 209.833 209.971 209.687 197.203C217.275 201.128 241.396 200.208 239.081 178.36C236.853 157.325 208.56 160.509 205.701 184.093C189.464 175.031 162.194 180.615 157.918 208.432" fill="#FFB29B"/>
<path d="M165.825 224.094C165.825 224.094 172.48 225.801 181.081 224.686C195.878 222.41 209.833 209.971 209.687 197.203C217.275 201.128 241.396 200.208 239.081 178.36C236.853 157.325 208.56 160.509 205.701 184.093C189.464 175.031 162.194 180.615 157.918 208.432" stroke="black" stroke-width="1.32267" stroke-linecap="round" stroke-linejoin="round"/>
<path d="M186.495 244.898C186.495 244.898 172.704 256.628 159.223 248.601C144.547 239.864 152.455 219.556 166.787 218.923C176.755 218.483 181.103 224.673 181.103 224.673" fill="#FEECDF"/>
<path d="M186.495 244.898C186.495 244.898 172.704 256.628 159.223 248.601C144.547 239.864 152.455 219.556 166.787 218.923C176.755 218.483 181.103 224.673 181.103 224.673" stroke="black" stroke-width="1.32267" stroke-linecap="round" stroke-linejoin="round"/>
<path d="M181.866 238.357C181.866 238.357 177.484 230.314 161.119 226.378" stroke="black" stroke-width="1.32267" stroke-linecap="round" stroke-linejoin="round"/>
<path d="M175.671 232.852C175.671 232.852 171.648 235.775 171.798 238.78" stroke="black" stroke-width="1.32267" stroke-linecap="round" stroke-linejoin="round"/>
<path d="M150.933 298.847C165.218 315.451 164.277 328.164 168.641 337.917C175.937 354.219 185.759 366.276 205.283 366.858C213.735 367.111 216.547 351.819 201.769 319.05C198.663 312.163 196.64 305.722 195.156 298.64C192.944 288.083 190.507 273.308 185.072 263.4C181.06 256.084 173.32 249.896 163.205 250.4C151.043 251.008 146.59 257.683 142.81 266.149" fill="#B9B9B9"/>
<path d="M150.933 298.847C165.218 315.451 164.277 328.164 168.641 337.917C175.937 354.219 185.759 366.276 205.283 366.858C213.735 367.111 216.547 351.819 201.769 319.05C198.663 312.163 196.64 305.722 195.156 298.64C192.944 288.083 190.507 273.308 185.072 263.4C181.06 256.084 173.32 249.896 163.205 250.4C151.043 251.008 146.59 257.683 142.81 266.149" stroke="black" stroke-width="1.32268" stroke-linecap="round" stroke-linejoin="round"/>
<path d="M238.816 295.266C238.816 295.266 240.378 277.331 242.933 270.54L220.655 263.945C220.655 263.945 217.88 275.503 215.66 293.371L238.816 295.266Z" fill="#FEECDF"/>
<path d="M238.816 295.266C238.816 295.266 240.378 277.331 242.933 270.54L220.655 263.945C220.655 263.945 217.88 275.503 215.66 293.371L238.816 295.266Z" stroke="black" stroke-width="1.32267" stroke-linecap="round" stroke-linejoin="round"/>
<path d="M183.736 351.268C186.001 342.505 191.063 333.066 193.464 326.942C195.213 322.479 196.882 318.499 197.689 314.456C200.607 299.84 201.749 291.433 207.618 286.277C216.252 278.691 225.474 286.798 225.474 286.798C225.474 286.798 232.849 283.871 238.417 284.6C245.234 285.492 251.314 288.628 252.886 296.475C254.902 306.542 248.613 314.483 244.503 331.487C241.785 342.736 236.069 354.289 230.88 361.417C220.538 375.623 206.28 378.688 194.52 375.798C182.042 372.731 182.338 356.678 183.736 351.268Z" fill="#B9B9B9"/>
<path d="M183.736 351.268C186.001 342.505 191.063 333.066 193.464 326.942C195.213 322.479 196.882 318.499 197.689 314.456C200.607 299.84 201.749 291.433 207.618 286.277C216.252 278.691 225.474 286.798 225.474 286.798C225.474 286.798 232.849 283.871 238.417 284.6C245.234 285.492 251.314 288.628 252.886 296.475C254.902 306.542 248.613 314.483 244.503 331.487C241.785 342.736 236.069 354.289 230.88 361.417C220.538 375.623 206.28 378.688 194.52 375.798C182.042 372.731 182.338 356.678 183.736 351.268Z" stroke="black" stroke-width="1.32267" stroke-linecap="round" stroke-linejoin="round"/>
<path d="M225.179 286.897C221.702 287.6 218.499 287.99 214.984 287.142" stroke="black" stroke-width="1.32267" stroke-linecap="round" stroke-linejoin="round"/>
<path d="M231.127 276.377C231.898 276.625 233.224 277.055 235.453 277.199C243.183 277.697 247.99 274.993 258.659 274.479C260.062 271.609 255.986 264.737 245.54 258.481C241.752 256.213 225.866 251.35 220.919 259.766C219.047 262.95 219.394 266.627 221.5 269.876" fill="#FEECDF"/>
<path d="M231.127 276.377C231.898 276.625 233.224 277.055 235.453 277.199C243.183 277.697 247.99 274.993 258.659 274.479C260.062 271.609 255.986 264.737 245.54 258.481C241.752 256.213 225.866 251.35 220.919 259.766C219.047 262.95 219.394 266.627 221.5 269.876" stroke="black" stroke-width="1.32267" stroke-linecap="round" stroke-linejoin="round"/>
<path d="M247.006 258.678C247.006 258.678 241.928 250.582 244.165 245.309C246.214 240.477 258.972 239.525 262.978 242.837C265.832 245.197 266.63 253.269 264.633 263.961C263.939 265.736 260.262 267.543 257.97 262.789C256.801 260.364 253.613 249.641 253.613 249.641C253.613 249.641 257.38 260.886 253.797 261.889C250.033 262.943 247.006 258.678 247.006 258.678Z" fill="#FEECDF"/>
<path d="M247.006 258.678C247.006 258.678 241.928 250.582 244.165 245.309C246.214 240.477 258.972 239.525 262.978 242.837C265.832 245.197 266.63 253.269 264.633 263.961C263.939 265.736 260.262 267.543 257.97 262.789C256.801 260.364 253.613 249.641 253.613 249.641C253.613 249.641 257.38 260.886 253.797 261.889C250.033 262.943 247.006 258.678 247.006 258.678Z" stroke="black" stroke-width="1.32267" stroke-linecap="round" stroke-linejoin="round"/>
<path d="M266.513 261.19C271.361 256.548 260.962 249.613 258.722 253.993C256.356 258.619 250.366 265.121 253.791 267.619C257.039 269.988 261.665 265.832 266.513 261.19Z" fill="#FEECDF"/>
<path d="M266.513 261.19C271.361 256.548 260.962 249.613 258.722 253.993C256.356 258.619 250.366 265.121 253.791 267.619C257.039 269.988 261.665 265.832 266.513 261.19Z" stroke="black" stroke-width="1.33922" stroke-linecap="round" stroke-linejoin="round"/>
<path d="M266.448 261.169C268.232 259.339 269.061 257.569 268.987 255.434C268.859 252.243 268.183 244.603 263.187 241.534C261.832 240.449 256.992 242.938 256.099 245.285C255.624 247.641 258.265 251.633 259.403 253.257" fill="#FEECDF"/>
<path d="M266.448 261.169C268.232 259.339 269.061 257.569 268.987 255.434C268.859 252.243 268.183 244.603 263.187 241.534C261.832 240.449 256.992 242.938 256.099 245.285C255.624 247.641 258.265 251.633 259.403 253.257" stroke="black" stroke-width="1.33922" stroke-linecap="round" stroke-linejoin="round"/>
<path d="M264.133 242.176C261.215 239.78 256.323 237.342 253.722 237.105C249.206 236.694 246.851 240.918 249.405 243.343C251.736 245.27 253.827 246.358 256.245 246.782" fill="#FEECDF"/>
<path d="M264.133 242.176C261.215 239.78 256.323 237.342 253.722 237.105C249.206 236.694 246.851 240.918 249.405 243.343C251.736 245.27 253.827 246.358 256.245 246.782" stroke="black" stroke-width="1.33922" stroke-linecap="round" stroke-linejoin="round"/>
<path d="M252.87 264.527C254.673 264.527 261.256 263.841 267.648 258.651C273.461 253.95 282.033 258.373 275.686 265.729C274.104 267.644 270.974 269.768 268.279 271.361C265.239 273.144 259.667 274.998 256.5 274.561" fill="#FEECDF"/>
<path d="M252.87 264.527C254.673 264.527 261.256 263.841 267.648 258.651C273.461 253.95 282.033 258.373 275.686 265.729C274.104 267.644 270.974 269.768 268.279 271.361C265.239 273.144 259.667 274.998 256.5 274.561" stroke="black" stroke-width="1.33922" stroke-linecap="round" stroke-linejoin="round"/>
<path d="M276.049 265.296C278.211 262.767 280.987 259.026 281.843 255.676C283.042 251.339 274.889 250.062 274.079 251.359C272.971 253.143 270.777 255.465 269.145 257.635" fill="#FEECDF"/>
<path d="M276.049 265.296C278.211 262.767 280.987 259.026 281.843 255.676C283.042 251.339 274.889 250.062 274.079 251.359C272.971 253.143 270.777 255.465 269.145 257.635" stroke="black" stroke-width="1.33922" stroke-linecap="round" stroke-linejoin="round"/>
<path d="M281.832 255.88C282.805 253.028 284.471 247.661 282.543 243.304C281.755 241.515 278.255 240.981 276.47 242.877C274.916 244.566 273.907 250.454 273.418 252.21" fill="#FEECDF"/>
<path d="M281.832 255.88C282.805 253.028 284.471 247.661 282.543 243.304C281.755 241.515 278.255 240.981 276.47 242.877C274.916 244.566 273.907 250.454 273.418 252.21" stroke="black" stroke-width="1.33922" stroke-linecap="round" stroke-linejoin="round"/>
<path d="M236.122 258.839C236.122 258.839 246.073 263.058 253.449 261.636C258.772 259.99 266.007 258.257 267.493 261.613C269.002 264.128 264.908 268.906 255.966 271.88C251.261 273.447 247.194 274.22 243.336 274.32" fill="#FEECDF"/>
<path d="M236.122 258.839C236.122 258.839 246.073 263.058 253.449 261.636C258.772 259.99 266.007 258.257 267.493 261.613C269.002 264.128 264.908 268.906 255.966 271.88C251.261 273.447 247.194 274.22 243.336 274.32" stroke="black" stroke-width="1.32268" stroke-linecap="round" stroke-linejoin="round"/>
</g>
</g>
<mask id="mask4_513_13975" style="mask-type:alpha" maskUnits="userSpaceOnUse" x="91" y="132" width="412" height="374">
<path d="M436.17 504.369H158.128C121.733 504.369 92.2285 474.865 92.2285 438.469V198.779C92.2285 162.384 121.733 132.88 158.128 132.88H436.17C472.566 132.88 502.07 162.384 502.07 198.779V438.469C502.07 474.865 472.566 504.369 436.17 504.369Z" stroke="black" stroke-width="1.33335" stroke-linecap="round" stroke-linejoin="round"/>
<path d="M436.17 504.369H158.128C121.733 504.369 92.2285 474.865 92.2285 438.469V198.779C92.2285 162.384 121.733 132.88 158.128 132.88H436.17C472.566 132.88 502.07 162.384 502.07 198.779V438.469C502.07 474.865 472.566 504.369 436.17 504.369Z" fill="#FF0000"/>
<path d="M92.2285 318.701H502.07" stroke="black" stroke-width="1.33335" stroke-linecap="round" stroke-linejoin="round"/>
</mask>
<g mask="url(#mask4_513_13975)">
<mask id="mask5_513_13975" style="mask-type:luminance" maskUnits="userSpaceOnUse" x="1" y="-2" width="613" height="613">
<path d="M1.75391 -1.76172H613.761V610.246H1.75391V-1.76172Z" fill="white"/>
</mask>
<g mask="url(#mask5_513_13975)">
<path d="M192.084 448.79C183.792 445.313 182.685 458.298 182.344 471.335C181.98 485.196 184.119 533.298 200.142 543.493C222.232 557.547 232.408 542.839 230.473 520.386C228.518 497.71 203.975 453.776 192.084 448.79Z" fill="#CFD9F1"/>
<path d="M192.084 448.79C183.792 445.313 182.685 458.298 182.344 471.335C181.98 485.196 184.119 533.298 200.142 543.493C222.232 557.547 232.408 542.839 230.473 520.386C228.518 497.71 203.975 453.776 192.084 448.79Z" stroke="black" stroke-width="1.5" stroke-linecap="round" stroke-linejoin="round"/>
<path d="M157.552 543.81C175.295 543.378 204.646 541.985 204.646 541.985C204.646 541.985 227.653 532.005 219.928 503.289C211.403 471.601 198.375 453.249 193.76 449.494C189.072 434.486 173.119 433.807 161.218 435.988C153.647 437.376 145.004 441.603 142.873 451.003C135.979 466.817 131.158 473.994 129.377 495.762C126.583 529.914 144.743 544.121 157.552 543.81Z" fill="#CFD9F1"/>
<path d="M157.552 543.81C175.295 543.378 204.646 541.985 204.646 541.985C204.646 541.985 227.653 532.005 219.928 503.289C211.403 471.601 198.375 453.249 193.76 449.494C189.072 434.486 173.119 433.807 161.218 435.988C153.647 437.376 145.004 441.603 142.873 451.003C135.979 466.817 131.158 473.994 129.377 495.762C126.583 529.914 144.743 544.121 157.552 543.81Z" stroke="black" stroke-width="1.33335" stroke-linecap="round" stroke-linejoin="round"/>
<path d="M142.88 451.013C127.977 456.14 117.661 471.703 112.42 488.808C108.606 501.261 103.581 521.738 107.825 530.404C115.129 545.316 142.1 544.165 154.913 544.2C164.094 544.224 165.673 531.808 163.995 505.259C163.584 498.757 162.202 490.55 160.113 482.493" fill="#CFD9F1"/>
<path d="M142.88 451.013C127.977 456.14 117.661 471.703 112.42 488.808C108.606 501.261 103.581 521.739 107.825 530.404C115.129 545.316 142.1 544.165 154.913 544.2C164.094 544.224 165.673 531.808 163.995 505.259C163.584 498.757 162.202 490.55 160.113 482.493" stroke="black" stroke-width="1.33335" stroke-linecap="round" stroke-linejoin="round"/>
<path d="M231.038 425.364C231.692 431.642 232.521 439.536 232.84 442.258C245.179 449.408 254.643 441.213 254.643 441.213L253.212 427.168C252.743 422.734 251.974 416.172 251.974 416.172C251.355 416.352 233.826 416.126 230.342 415.956C230.468 418.002 230.586 420.252 231.038 425.364Z" fill="#FEECDF"/>
<path d="M231.038 425.364C231.692 431.642 232.521 439.536 232.84 442.258C245.179 449.408 254.643 441.213 254.643 441.213L253.212 427.168C252.743 422.734 251.974 416.172 251.974 416.172C251.355 416.352 233.826 416.126 230.342 415.956C230.468 418.002 230.586 420.252 231.038 425.364Z" stroke="black" stroke-width="1.33335" stroke-linecap="round" stroke-linejoin="round"/>
<path d="M219.368 458.211C218.821 452.404 218.932 439.357 240.981 436.307C262.264 433.364 268.464 444.519 270.394 453.543C271.995 461.032 274.614 516.955 275.094 529.445C273.509 570.827 219.134 567.315 220.233 527.956C223.209 508.879 221.404 479.825 219.368 458.211Z" fill="#CFD9F1"/>
<path d="M219.368 458.211C218.821 452.404 218.932 439.357 240.981 436.307C262.264 433.364 268.464 444.519 270.394 453.543C271.995 461.032 274.614 516.955 275.094 529.445C273.509 570.827 219.134 567.315 220.233 527.956C223.209 508.879 221.404 479.825 219.368 458.211Z" stroke="black" stroke-width="1.33335" stroke-linecap="round" stroke-linejoin="round"/>
<path d="M247.606 429.559C250.738 428.522 252.682 426.832 253.126 426.412C254.107 425.519 255.073 424.458 256.008 423.195C256.008 423.195 267.798 412.352 260.881 393.098C258.7 387.027 249.134 379.2 236.252 394.081C219.702 410.905 226.522 423.562 230.879 426.603" fill="#FEECDF"/>
<path d="M247.606 429.559C250.738 428.522 252.682 426.832 253.126 426.412C254.107 425.519 255.073 424.458 256.008 423.195C256.008 423.195 267.798 412.352 260.881 393.098C258.7 387.027 249.134 379.2 236.252 394.081C219.702 410.905 226.522 423.562 230.879 426.603" stroke="black" stroke-width="1.33335" stroke-linecap="round" stroke-linejoin="round"/>
<path d="M269.977 405.133C275.03 415.962 260.807 421.394 257.726 422.605C254.657 423.811 247.977 420.101 252.482 413.893C252.482 413.893 254.749 410.88 260.134 408.355" fill="#FEECDF"/>
<path d="M269.977 405.133C275.03 415.962 260.807 421.394 257.726 422.605C254.657 423.811 247.977 420.101 252.482 413.893C252.482 413.893 254.749 410.88 260.134 408.355" stroke="black" stroke-width="1.33335" stroke-linecap="round" stroke-linejoin="round"/>
<path d="M267.636 394.252C271.448 397.967 271.883 402.438 269.978 405.133C269.436 405.901 260.482 415.078 252.817 413.84C245.079 412.458 247.869 405.742 247.869 405.742C247.869 405.742 249.57 401.546 256.157 398.551" fill="#FEECDF"/>
<path d="M267.636 394.252C271.448 397.967 271.883 402.438 269.978 405.133C269.436 405.901 260.482 415.078 252.817 413.84C245.079 412.458 247.869 405.742 247.869 405.742C247.869 405.742 249.57 401.546 256.157 398.551" stroke="black" stroke-width="1.33335" stroke-linecap="round" stroke-linejoin="round"/>
<path d="M256.643 387.324C255.411 387.907 247.473 392.42 244.408 397.68C242.09 401.659 243.947 406.018 249.123 405.603C257.181 404.956 265.471 397.837 267.636 394.252C268.597 392.659 269.295 389.008 267.15 385.932C264.794 382.554 259.072 379.811 251.649 382.441C251.649 382.441 244.999 384.213 236.508 393.844" fill="#FEECDF"/>
<path d="M256.643 387.324C255.411 387.907 247.473 392.42 244.408 397.68C242.09 401.659 243.947 406.018 249.123 405.603C257.181 404.956 265.471 397.837 267.636 394.252C268.597 392.659 269.295 389.008 267.15 385.932C264.794 382.554 259.072 379.811 251.649 382.441C251.649 382.441 244.999 384.213 236.508 393.844" stroke="black" stroke-width="1.33335" stroke-linecap="round" stroke-linejoin="round"/>
<path d="M234.454 428.265C234.454 428.265 218.195 421.927 221.278 406.903C224.687 390.294 216.619 383.184 221.651 379.339C225.751 376.206 231.032 381.138 232.805 387.374C233.846 391.036 235.413 400.231 236.857 402.799C238.588 405.875 243.613 411.057 242.438 415.568" fill="#FEECDF"/>
<path d="M234.454 428.265C234.454 428.265 218.195 421.927 221.278 406.903C224.687 390.294 216.619 383.184 221.651 379.339C225.751 376.206 231.032 381.138 232.805 387.374C233.846 391.036 235.413 400.231 236.857 402.799C238.588 405.875 243.613 411.057 242.438 415.568" stroke="black" stroke-width="1.33335" stroke-linecap="round" stroke-linejoin="round"/>
<path d="M154.41 419.2L155.24 443.564C155.24 443.564 170.408 454.454 180.673 442.168L180.474 419.331" fill="#FEECDF"/>
<path d="M154.41 419.2L155.24 443.564C155.24 443.564 170.408 454.454 180.673 442.168L180.474 419.331" stroke="black" stroke-width="1.33335" stroke-linecap="round" stroke-linejoin="round"/>
<path d="M154.192 423.791C154.192 423.791 171.746 432.386 186.207 422.933C202.08 412.558 193.855 389.032 193.855 389.032L189.206 379.852C189.206 379.852 184.554 366.809 165.556 361.067C165.556 361.067 157.909 360.651 151.539 364.776C147.691 367.269 138.429 375.867 137.17 390.507C135.805 406.382 142.427 419.625 154.192 423.791Z" fill="#FEECDF"/>
<path d="M154.192 423.791C154.192 423.791 171.746 432.386 186.207 422.933C202.08 412.558 193.855 389.032 193.855 389.032L189.206 379.852C189.206 379.852 184.554 366.809 165.556 361.067C165.556 361.067 157.909 360.651 151.539 364.776C147.691 367.269 138.429 375.867 137.17 390.507C135.805 406.382 142.427 419.625 154.192 423.791Z" stroke="black" stroke-width="1.33335" stroke-linecap="round" stroke-linejoin="round"/>
<path d="M184.446 401.65C183.566 401.068 183.297 400.994 183.297 400.994C189.189 407.339 195.496 405.116 195.828 404.58C196.161 404.044 195.948 402.262 195.944 402.239C193.384 404.524 187.818 404.197 184.446 401.65Z" fill="black"/>
<path d="M184.446 401.65C183.566 401.068 183.297 400.994 183.297 400.994C189.189 407.339 195.496 405.116 195.828 404.58C196.161 404.044 195.948 402.262 195.944 402.239C193.384 404.524 187.818 404.197 184.446 401.65Z" stroke="black" stroke-width="1.33335" stroke-linecap="round" stroke-linejoin="round"/>
<path d="M178.391 382.713C178.025 381.955 178.343 381.044 179.102 380.677C179.861 380.311 180.772 380.629 181.138 381.388C181.504 382.146 181.186 383.057 180.427 383.423C179.668 383.79 178.757 383.472 178.391 382.713Z" fill="black"/>
<path d="M160.871 411.527C158.082 407.986 158.691 402.855 162.232 400.066C165.773 397.277 170.904 397.887 173.693 401.428C176.482 404.969 175.873 410.101 172.332 412.89C168.791 415.679 163.66 415.068 160.871 411.527Z" fill="#FFB29B"/>
<path d="M196.61 375.759C193.351 372.218 189.989 378.109 188.896 380.914C187.809 383.703 190.884 392.612 193.61 389.725C194.65 388.624 200.265 379.731 196.61 375.759Z" fill="#FEECDF"/>
<path d="M193.947 389.309C193.947 389.309 200.522 379.866 196.612 375.759C192.703 371.65 189.274 380.046 189.274 380.046" stroke="black" stroke-width="1.33335" stroke-linecap="round" stroke-linejoin="round"/>
<mask id="mask6_513_13975" style="mask-type:alpha" maskUnits="userSpaceOnUse" x="182" y="400" width="15" height="7">
<path d="M184.446 401.65C183.566 401.068 183.297 400.994 183.297 400.994C189.189 407.339 195.496 405.116 195.829 404.58C196.161 404.044 195.948 402.262 195.944 402.239C193.384 404.524 187.818 404.197 184.446 401.65Z" fill="black"/>
<path d="M184.446 401.65C183.566 401.068 183.297 400.994 183.297 400.994C189.189 407.339 195.496 405.116 195.829 404.58C196.161 404.044 195.948 402.262 195.944 402.239C193.384 404.524 187.818 404.197 184.446 401.65Z" stroke="black" stroke-width="1.33335" stroke-linecap="round" stroke-linejoin="round"/>
</mask>
<g mask="url(#mask6_513_13975)">
<path d="M184.88 400.551C183.861 401.383 183.783 402.347 184.403 402.667C185.536 405.27 192.801 406.921 195.542 405.914C196.763 405.466 196.042 404.561 195.705 403.554C195.368 402.547 185.85 399.759 184.88 400.551Z" fill="white"/>
</g>
<path d="M184.446 401.65C183.566 401.068 183.297 400.994 183.297 400.994C189.189 407.339 195.496 405.116 195.829 404.58C196.161 404.044 195.948 402.262 195.944 402.239C193.384 404.524 187.818 404.197 184.446 401.65Z" stroke="black" stroke-width="1.33335" stroke-linecap="round" stroke-linejoin="round"/>
<path d="M154.649 423.81C140.02 446.312 120.862 427.634 127.886 415.593C134.911 403.551 146.887 407.344 146.887 407.344" fill="#FEECDF"/>
<path d="M154.649 423.81C140.02 446.312 120.862 427.634 127.886 415.593C134.911 403.551 146.887 407.344 146.887 407.344" stroke="black" stroke-width="1.33335" stroke-linecap="round" stroke-linejoin="round"/>
<path d="M150.757 419.593C150.757 419.593 141.866 414.763 131.102 418.249" stroke="black" stroke-width="1.33335" stroke-linecap="round" stroke-linejoin="round"/>
<path d="M144.769 417.759C144.769 417.759 142.403 419.726 143.05 422.96" stroke="black" stroke-width="1.33335" stroke-linecap="round" stroke-linejoin="round"/>
<path d="M187.12 375.992C184.25 371.681 177.963 364.817 165.556 361.068C165.556 361.068 163.148 362.036 160.798 365.439C158.491 368.781 156.283 374.528 151.555 377.768C151.555 377.768 159.464 408.328 146.888 407.344C146.888 407.344 134.911 403.55 127.887 415.593C126.736 417.564 126.276 419.714 126.376 421.83C119.234 419.999 105.096 413.407 112.557 390.359C112.557 390.359 106.59 386.142 108.607 378.365C113.777 358.419 130.614 341.822 149.202 337.207C171.321 331.715 194.697 342.542 187.12 375.992Z" fill="#FFCDBE"/>
<path d="M187.12 375.992C184.25 371.681 177.963 364.817 165.556 361.068C165.556 361.068 163.148 362.036 160.798 365.439C158.491 368.781 156.283 374.528 151.555 377.768C151.555 377.768 159.464 408.328 146.888 407.344C146.888 407.344 134.911 403.55 127.887 415.593C126.736 417.564 126.276 419.714 126.376 421.83C119.234 419.999 105.096 413.407 112.557 390.359C112.557 390.359 106.59 386.142 108.607 378.365C113.777 358.419 130.614 341.822 149.202 337.207C171.321 331.715 194.697 342.542 187.12 375.992Z" stroke="black" stroke-width="1.33335" stroke-linecap="round" stroke-linejoin="round"/>
<path d="M165.602 361.046C165.602 361.046 172.103 357.921 176.735 361.484" stroke="black" stroke-width="1.33335" stroke-linecap="round" stroke-linejoin="round"/>
</g>
</g>
<mask id="mask7_513_13975" style="mask-type:alpha" maskUnits="userSpaceOnUse" x="91" y="132" width="412" height="374">
<path d="M436.17 504.369H158.128C121.733 504.369 92.2285 474.865 92.2285 438.469V198.779C92.2285 162.384 121.733 132.88 158.128 132.88H436.17C472.566 132.88 502.07 162.384 502.07 198.779V438.469C502.07 474.865 472.566 504.369 436.17 504.369Z" stroke="black" stroke-width="1.33335" stroke-linecap="round" stroke-linejoin="round"/>
<path d="M436.17 504.369H158.128C121.733 504.369 92.2285 474.865 92.2285 438.469V198.779C92.2285 162.384 121.733 132.88 158.128 132.88H436.17C472.566 132.88 502.07 162.384 502.07 198.779V438.469C502.07 474.865 472.566 504.369 436.17 504.369Z" fill="#FF0000"/>
<path d="M92.2285 318.701H502.07" stroke="black" stroke-width="1.33335" stroke-linecap="round" stroke-linejoin="round"/>
</mask>
<g mask="url(#mask7_513_13975)">
<mask id="mask8_513_13975" style="mask-type:luminance" maskUnits="userSpaceOnUse" x="1" y="-2" width="613" height="613">
<path d="M1.75391 -1.76172H613.761V610.246H1.75391V-1.76172Z" fill="white"/>
</mask>
<g mask="url(#mask8_513_13975)">
<path d="M463.178 435.035C461.465 421.449 470.928 379.34 420.839 367.971C394.657 349.501 388.942 370.102 374.345 386.982C359.423 404.236 345.761 402.484 342.168 419.314C343.923 434.646 322.382 448.406 322.066 479.361C321.835 500.775 337.796 521.201 363.104 530.392C391.337 541.007 401.679 539.927 427.721 538.816C504.445 535.543 502.141 486.452 474.709 459.706C469.698 454.82 465.008 449.555 463.178 435.035Z" fill="#B9B9B9"/>
<path d="M463.178 435.035C461.465 421.449 470.928 379.34 420.839 367.971C394.657 349.501 388.942 370.102 374.345 386.982C359.423 404.236 345.761 402.484 342.168 419.314C343.923 434.646 322.382 448.406 322.066 479.361C321.835 500.775 337.796 521.201 363.104 530.392C391.337 541.007 401.679 539.927 427.721 538.816C504.445 535.543 502.141 486.452 474.709 459.706C469.698 454.82 465.008 449.555 463.178 435.035Z" stroke="black" stroke-width="1.33335" stroke-linecap="round" stroke-linejoin="round"/>
<path d="M423.176 374.527C423.475 365.406 418.629 334.85 391.905 333.856C365.801 332.667 322.151 380.354 347.759 434.813" fill="#B9B9B9"/>
<path d="M423.176 374.527C423.475 365.406 418.629 334.85 391.905 333.856C365.801 332.667 322.151 380.354 347.759 434.813" stroke="black" stroke-width="1.33335" stroke-linecap="round" stroke-linejoin="round"/>
<path d="M391.047 442.5C384.454 439.991 371.118 444.038 365.347 454.147C358.005 467.004 368.402 487.469 381.415 502.215C407.443 530.161 443.349 522.268 423.235 484.039C414.175 466.819 408.66 449.201 391.047 442.5Z" fill="#FFB29B"/>
<path d="M391.047 442.5C384.454 439.991 371.118 444.038 365.347 454.147C358.005 467.004 368.402 487.469 381.415 502.215C407.443 530.161 443.349 522.268 423.235 484.039C414.175 466.819 408.66 449.201 391.047 442.5Z" stroke="black" stroke-width="1.33335" stroke-linecap="round" stroke-linejoin="round"/>
<path d="M425.394 440.964C421.953 433.918 417.283 428.02 397.905 432.797C372.104 439.158 378.652 457.044 378.652 457.044C377.812 469.045 368.551 494.242 369.773 503.941C373.361 532.402 412.544 535.713 426.833 534.01C438.981 532.562 465.308 526.169 463.69 498.863C462.408 477.229 438.837 448.203 425.394 440.964Z" fill="#FFB29B"/>
<path d="M425.394 440.964C421.953 433.918 417.283 428.02 397.905 432.797C372.104 439.158 378.652 457.044 378.652 457.044C377.812 469.045 368.551 494.242 369.773 503.941C373.361 532.402 412.544 535.713 426.833 534.01C438.981 532.562 465.308 526.169 463.69 498.863C462.408 477.229 438.837 448.203 425.394 440.964Z" stroke="black" stroke-width="1.33335" stroke-linecap="round" stroke-linejoin="round"/>
<path d="M425.027 482.799C445.634 487.47 447.983 492.616 463.425 498.891C467.43 500.518 485.575 507.681 492.06 512.03C539.246 536.88 558.339 484.027 526.153 468.914C520.266 466 513.838 463.232 499.409 459.08C495.191 457.866 491.031 457.022 487.25 456.503C477.309 455.138 471.105 450.328 462.988 446.099C451.339 440.031 439.368 434.929 425.417 440.972C421.096 442.843 417.883 445.287 415.52 447.929" fill="#FFB29B"/>
<path d="M425.027 482.799C445.634 487.47 447.983 492.616 463.425 498.891C467.43 500.518 485.575 507.681 492.06 512.03C539.246 536.88 558.339 484.027 526.153 468.914C520.266 466 513.838 463.232 499.409 459.08C495.191 457.866 491.031 457.022 487.25 456.503C477.309 455.138 471.105 450.328 462.988 446.099C451.339 440.031 439.368 434.929 425.417 440.972C421.096 442.843 417.883 445.287 415.52 447.929" stroke="black" stroke-width="1.33335" stroke-linecap="round" stroke-linejoin="round"/>
<path d="M384.115 417.046L388.438 445.325C388.438 445.325 402.764 453.054 413.209 441.709L410.122 415.789L384.115 417.046Z" fill="#FEECDF"/>
<path d="M384.115 417.046L388.438 445.325C388.438 445.325 402.764 453.054 413.209 441.709L410.122 415.789L384.115 417.046Z" stroke="black" stroke-width="1.33335" stroke-linecap="round" stroke-linejoin="round"/>
<path d="M405.532 421.388C405.532 421.388 392.125 433.876 377.304 424.617C357.004 411.936 367.75 388.621 367.75 388.621C369.275 384.971 372.186 380.723 372.186 380.723C379.246 366.776 392.418 363.757 392.418 363.757C392.418 363.757 409.186 357.821 413.953 373.431C419.188 388.874 420.877 407.501 405.532 421.388Z" fill="#FEECDF"/>
<path d="M405.532 421.388C405.532 421.388 392.125 433.876 377.304 424.617C357.004 411.936 367.75 388.621 367.75 388.621C369.275 384.971 372.186 380.723 372.186 380.723C379.246 366.776 392.418 363.757 392.418 363.757C392.418 363.757 409.186 357.821 413.953 373.431C419.188 388.874 420.877 407.501 405.532 421.388Z" stroke="black" stroke-width="1.33335" stroke-linecap="round" stroke-linejoin="round"/>
<path d="M365.138 400.163C365.139 400.413 365.088 400.763 365.083 400.838C365.283 401.037 372.03 404.005 377.545 399.14C377.685 399.048 377.866 398.988 377.303 399.236C374.288 401.483 368.837 402.099 365.138 400.163Z" fill="black"/>
<path d="M365.138 400.163C365.139 400.413 365.088 400.763 365.083 400.838C365.283 401.037 372.03 404.005 377.545 399.14C377.685 399.048 377.866 398.988 377.303 399.236C374.288 401.483 368.837 402.099 365.138 400.163Z" stroke="black" stroke-width="1.33335" stroke-linecap="round" stroke-linejoin="round"/>
<path d="M380.978 378.831C381.253 378.093 382.073 377.716 382.811 377.991C383.549 378.265 383.925 379.085 383.651 379.823C383.377 380.561 382.557 380.937 381.819 380.663C381.081 380.389 380.705 379.569 380.978 378.831Z" fill="#161616"/>
<path d="M382.375 405.16C384.077 400.571 389.177 398.232 393.766 399.934C398.355 401.637 400.694 406.737 398.992 411.326C397.289 415.914 392.189 418.254 387.6 416.551L387.598 416.55C383.01 414.847 380.672 409.748 382.375 405.16Z" fill="#FFB29B"/>
<mask id="mask9_513_13975" style="mask-type:alpha" maskUnits="userSpaceOnUse" x="365" y="399" width="13" height="3">
<path d="M365.14 400.163C365.14 400.413 365.09 400.762 365.085 400.837C365.285 401.036 372.032 404.004 377.548 399.139C377.688 399.047 377.868 398.988 377.306 399.236C374.29 401.484 368.839 402.1 365.14 400.163Z" fill="black"/>
</mask>
<g mask="url(#mask9_513_13975)">
<path d="M365.849 398.406C364.784 398.754 365.095 400.615 365.605 400.811C367.501 401.536 373.638 401.056 374.721 400.018C376.362 398.445 374.14 397.821 373.078 397.809C371.17 397.787 367.012 398.025 365.849 398.406Z" fill="white"/>
</g>
<path d="M365.14 400.163C365.14 400.413 365.09 400.762 365.085 400.837C365.285 401.036 372.032 404.004 377.548 399.139C377.688 399.047 377.868 398.988 377.306 399.236C374.29 401.484 368.839 402.1 365.14 400.163Z" stroke="black" stroke-width="1.33335" stroke-linecap="round" stroke-linejoin="round"/>
<path d="M389.292 357.439C394.577 360.476 398.009 366.314 399.156 369.375C404.502 383.634 399.557 394.566 412.533 405.936C420.657 399.052 439.318 388.718 439.318 388.718C417.65 377.859 406.485 350.536 389.292 357.439Z" fill="#B9B9B9"/>
<path d="M389.291 357.44C394.576 360.477 398.007 366.313 399.155 369.375C404.501 383.634 399.556 394.566 412.532 405.936" stroke="black" stroke-width="1.33335" stroke-linecap="round" stroke-linejoin="round"/>
<path d="M412.464 405.925C412.464 405.925 425.939 392.513 437.207 403.553C448.096 414.223 435.477 426.688 425.794 428.316C414.943 430.142 409.025 424.672 405.286 421.091" fill="#FEECDF"/>
<path d="M412.464 405.925C412.464 405.925 425.939 392.513 437.207 403.553C448.096 414.223 435.477 426.688 425.794 428.316C414.943 430.142 409.025 424.672 405.286 421.091" stroke="black" stroke-width="1.33335" stroke-linecap="round" stroke-linejoin="round"/>
<path d="M410.65 416.218C410.65 416.218 420.466 406.993 434.669 409.807" stroke="black" stroke-width="1.33335" stroke-linecap="round" stroke-linejoin="round"/>
<path d="M417.779 411.984C417.779 411.984 422.118 414.387 422.12 418.928" stroke="black" stroke-width="1.33335" stroke-linecap="round" stroke-linejoin="round"/>
<path d="M365.754 375.873C362.145 379.122 366.283 387.099 367.641 388.986C369.053 390.949 373.819 385.942 372.216 381.64C371.316 379.222 369.069 372.889 365.754 375.873Z" fill="#FEECDF"/>
<path d="M367.643 388.989C365.939 386.556 362.234 379.043 365.809 375.757C369.384 372.47 372.007 381.006 372.007 381.006" stroke="black" stroke-width="1.33335" stroke-linecap="round" stroke-linejoin="round"/>
</g>
</g>
<path d="M436.17 504.369H158.128C121.733 504.369 92.2285 474.865 92.2285 438.469V198.779C92.2285 162.384 121.733 132.88 158.128 132.88H436.17C472.566 132.88 502.07 162.384 502.07 198.779V438.469C502.07 474.865 472.566 504.369 436.17 504.369Z" stroke="black" stroke-width="1.33335" stroke-linecap="round" stroke-linejoin="round"/>
<path d="M92.2285 318.701H502.07" stroke="black" stroke-width="1.33335" stroke-linecap="round" stroke-linejoin="round"/>
<path d="M297.148 132.88V504.521" stroke="black" stroke-width="1.33335" stroke-linecap="round" stroke-linejoin="round"/>
<path d="M324.797 297.153L324.872 110.92H457.98C497.106 110.92 528.824 142.638 528.824 181.764V297.056L324.797 297.153Z" fill="white"/>
<mask id="mask10_513_13975" style="mask-type:alpha" maskUnits="userSpaceOnUse" x="324" y="110" width="205" height="188">
<path d="M324.797 297.153L324.872 110.92H457.98C497.106 110.92 528.824 142.638 528.824 181.764V297.056L324.797 297.153Z" fill="white"/>
</mask>
<g mask="url(#mask10_513_13975)">
<mask id="mask11_513_13975" style="mask-type:luminance" maskUnits="userSpaceOnUse" x="-2" y="1" width="613" height="613">
<path d="M-1.48633 1.46204H610.521V613.47H-1.48633V1.46204Z" fill="white"/>
</mask>
<g mask="url(#mask11_513_13975)">
<path d="M418.763 178.97C429.157 171.118 425.631 150.173 410.681 140.384C410.681 140.384 400.918 132.789 390.218 133.857C381.775 134.697 373.087 143.99 371.622 151.066C361.884 148.131 346.095 156.272 350.027 173.622C355.744 198.844 407.932 187.153 418.763 178.97Z" fill="#B9B9B9"/>
<path d="M418.763 178.97C429.157 171.118 425.631 150.173 410.681 140.384C410.681 140.384 400.918 132.789 390.218 133.857C381.775 134.697 373.087 143.99 371.622 151.066C361.884 148.131 346.095 156.272 350.027 173.622C355.744 198.844 407.932 187.153 418.763 178.97Z" stroke="black" stroke-width="1.33335" stroke-linecap="round" stroke-linejoin="round"/>
<path d="M390.939 160.836C399.967 173.994 407.312 176.196 419.172 173.742C434.606 165.692 431.633 136.415 421.431 133.126C415.331 135.391 411.292 140.122 402.356 139.336" fill="#B9B9B9"/>
<path d="M390.939 160.836C399.967 173.994 407.312 176.196 419.172 173.742C434.606 165.692 431.633 136.415 421.431 133.126C415.331 135.391 411.292 140.122 402.356 139.336" stroke="black" stroke-width="1.33335" stroke-linecap="round" stroke-linejoin="round"/>
<path d="M467.895 296.094C467.709 290.13 465.376 249.555 436.313 228.694C425.913 221.229 412.091 216.289 393.72 216.362C371.86 216.45 356.902 223.583 346.675 233.584C323.066 256.671 324.669 295.04 324.785 297.302C324.789 297.371 324.717 312.955 324.717 312.955L467.927 312.382L467.886 296.839C467.886 296.835 467.895 296.094 467.895 296.094Z" fill="#CFD9F1"/>
<path d="M467.895 296.094C467.709 290.13 465.376 249.555 436.313 228.694C425.913 221.229 412.091 216.289 393.72 216.362C371.86 216.45 356.902 223.583 346.675 233.584C323.066 256.671 324.669 295.04 324.785 297.302C324.789 297.371 324.717 312.955 324.717 312.955L467.927 312.382L467.886 296.839C467.886 296.835 467.895 296.094 467.895 296.094Z" stroke="black" stroke-width="1.33335" stroke-linecap="round" stroke-linejoin="round"/>
<path d="M380.023 212.377L380.072 224.498C380.072 224.498 393.05 236.567 405.93 224.394L405.857 205.935L379.998 206.038L380.023 212.377Z" fill="#FEECDF"/>
<path d="M380.023 212.377L380.072 224.498C380.072 224.498 393.05 236.567 405.93 224.394L405.857 205.935L379.998 206.038L380.023 212.377Z" stroke="black" stroke-width="1.33335" stroke-linecap="round" stroke-linejoin="round"/>
<path d="M336.366 190.299C335.698 181.423 340.464 173.99 349.311 173.397C358.36 172.799 364.713 179.189 365.381 188.065C366.049 196.942 362.41 204.089 353.189 205.019C344.165 205.928 337.034 199.176 336.366 190.299Z" fill="#FEECDF"/>
<path d="M336.366 190.299C335.698 181.423 340.464 173.99 349.311 173.397C358.36 172.799 364.713 179.189 365.381 188.065C366.049 196.942 362.41 204.089 353.189 205.019C344.165 205.928 337.034 199.176 336.366 190.299Z" stroke="black" stroke-width="1.33335" stroke-linecap="round" stroke-linejoin="round"/>
<path d="M363.534 192.123C363.534 192.123 354.894 179.727 341.087 182.545" stroke="black" stroke-width="1.33335" stroke-linecap="round" stroke-linejoin="round"/>
<path d="M360.619 189.538C360.619 189.538 355.872 189.491 354.85 194.77" stroke="black" stroke-width="1.33335" stroke-linecap="round" stroke-linejoin="round"/>
<path d="M442.857 181.803C442.189 172.927 436.634 167.368 427.659 167.428C418.609 167.487 412.979 175.557 413.647 184.433C414.315 193.31 419.962 199.739 428.99 199.06C438.017 198.381 443.525 190.68 442.857 181.803Z" fill="#FEECDF"/>
<path d="M442.857 181.803C442.189 172.927 436.634 167.368 427.659 167.428C418.609 167.487 412.979 175.557 413.647 184.433C414.315 193.31 419.962 199.739 428.99 199.06C438.017 198.381 443.525 190.68 442.857 181.803Z" stroke="black" stroke-width="1.33335" stroke-linecap="round" stroke-linejoin="round"/>
<path d="M416.056 191.229C416.056 191.229 421.057 176.384 434.588 174.181" stroke="black" stroke-width="1.33335" stroke-linecap="round" stroke-linejoin="round"/>
<path d="M419.185 185.036C419.185 185.036 423.71 183.869 426.512 187.717" stroke="black" stroke-width="1.33335" stroke-linecap="round" stroke-linejoin="round"/>
<path d="M362.356 184.539C362.471 182.684 362.775 181.052 363.112 178.962C365.576 163.698 377.783 157.843 389.875 156.416C402.806 154.879 413.436 160.388 418.989 173.374C419.89 175.487 420.564 177.831 421.09 180.364C422.398 186.652 422.462 192.209 421.307 196.885C418.215 209.368 407.502 216.554 395.252 217.607C382.84 218.672 368.327 211.818 363.864 198.494C362.617 194.788 362.048 189.512 362.356 184.539Z" fill="#FEECDF"/>
<path d="M362.356 184.539C362.471 182.684 362.775 181.052 363.112 178.962C365.576 163.698 377.783 157.843 389.875 156.416C402.806 154.879 413.436 160.388 418.989 173.374C419.89 175.487 420.564 177.831 421.09 180.364C422.398 186.652 422.462 192.209 421.307 196.885C418.215 209.368 407.502 216.554 395.252 217.607C382.84 218.672 368.327 211.818 363.864 198.494C362.617 194.788 362.048 189.512 362.356 184.539Z" stroke="black" stroke-width="1.33335" stroke-linecap="round" stroke-linejoin="round"/>
<path d="M390.071 196.652C390.053 196.706 390.049 196.624 390.049 196.624C390.049 196.624 399.198 203.45 406.023 194.301C406.023 194.301 406.098 194.295 406.047 194.303C401.19 200.723 394.873 199.763 390.071 196.652Z" fill="black"/>
<path d="M390.071 196.652C390.053 196.706 390.049 196.624 390.049 196.624C390.049 196.624 399.198 203.45 406.023 194.301C406.023 194.301 406.098 194.295 406.047 194.303C401.19 200.723 394.873 199.763 390.071 196.652Z" stroke="black" stroke-width="1.33335" stroke-linecap="round" stroke-linejoin="round"/>
<mask id="mask12_513_13975" style="mask-type:alpha" maskUnits="userSpaceOnUse" x="361" y="155" width="62" height="64">
<path d="M362.356 184.539C362.471 182.684 362.775 181.052 363.112 178.961C365.576 163.697 377.783 157.843 389.874 156.417C402.805 154.879 413.437 160.387 418.989 173.374C419.889 175.487 420.564 177.83 421.09 180.364C422.398 186.652 422.462 192.209 421.307 196.886C418.215 209.368 407.503 216.554 395.253 217.607C382.842 218.671 368.327 211.819 363.864 198.494C362.617 194.788 362.048 189.512 362.356 184.539Z" fill="#FFAAC3"/>
<path d="M362.356 184.539C362.471 182.684 362.775 181.052 363.112 178.961C365.576 163.697 377.783 157.843 389.874 156.417C402.805 154.879 413.437 160.387 418.989 173.374C419.889 175.487 420.564 177.83 421.09 180.364C422.398 186.652 422.462 192.209 421.307 196.886C418.215 209.368 407.503 216.554 395.253 217.607C382.842 218.671 368.327 211.819 363.864 198.494C362.617 194.788 362.048 189.512 362.356 184.539Z" stroke="black" stroke-width="1.33335" stroke-linecap="round" stroke-linejoin="round"/>
</mask>
<g mask="url(#mask12_513_13975)">
<path d="M381.068 183.62C380.985 182.782 381.598 182.034 382.437 181.952C383.276 181.869 384.023 182.482 384.106 183.321C384.188 184.159 383.576 184.906 382.737 184.989C381.899 185.073 381.151 184.461 381.068 183.622C381.068 183.621 381.068 183.62 381.068 183.62Z" fill="#111111"/>
<path d="M408.205 180.96C408.123 180.128 408.731 179.388 409.563 179.306C410.394 179.225 411.135 179.833 411.217 180.664C411.298 181.496 410.69 182.236 409.859 182.318C409.028 182.4 408.287 181.792 408.205 180.961C408.205 180.961 408.205 180.96 408.205 180.96Z" fill="#111111"/>
<path d="M394.35 188.807C394.35 188.807 397.932 183.932 399.959 188.255" stroke="black" stroke-width="1.33335" stroke-linecap="round" stroke-linejoin="round"/>
<path d="M373.607 196.105C373.24 192.779 375.513 189.8 378.684 189.451C381.855 189.102 384.722 191.516 385.088 194.842C385.455 198.168 383.181 201.147 380.011 201.495C376.84 201.844 373.973 199.431 373.607 196.105Z" fill="#FFB29B"/>
<path d="M409.766 192.479C409.437 189.148 411.759 186.192 414.952 185.876C418.145 185.56 421.001 188.004 421.331 191.335C421.66 194.666 419.338 197.622 416.145 197.938C412.951 198.254 410.096 195.81 409.766 192.479Z" fill="#FFB29B"/>
</g>
<path d="M362.356 184.539C362.471 182.684 362.775 181.052 363.112 178.961C365.576 163.697 377.783 157.843 389.874 156.417C402.805 154.879 413.437 160.387 418.989 173.374C419.889 175.487 420.564 177.83 421.09 180.364C422.398 186.652 422.462 192.209 421.307 196.886C418.215 209.368 407.503 216.554 395.253 217.607C382.842 218.671 368.327 211.819 363.864 198.494C362.617 194.788 362.048 189.512 362.356 184.539Z" stroke="black" stroke-width="1.33335" stroke-linecap="round" stroke-linejoin="round"/>
<path d="M375.911 155.773C372.289 157.214 367.38 165.151 367.887 167.466C374.175 159.273 383.025 157.479 386.598 156.366C386.636 154.829 380.032 154.133 375.911 155.773Z" fill="#B9B9B9"/>
<path d="M389.872 153.229C390.711 154.691 390.897 155.148 391.57 156.221C385.047 156.763 366.875 160.296 362.855 180.566C360.218 176.842 356.785 173.832 352.11 173.281" fill="#B9B9B9"/>
<path d="M389.872 153.229C390.711 154.691 390.897 155.148 391.57 156.221C385.047 156.763 366.875 160.296 362.855 180.566C360.218 176.842 356.785 173.832 352.11 173.281" stroke="black" stroke-width="1.33335" stroke-linecap="round" stroke-linejoin="round"/>
<path d="M405.15 148.899C401.249 147.164 386.873 142.524 389.591 148.914C395.461 162.679 410.904 164.242 423.301 165.516C428.925 154.958 414.195 152.921 405.15 148.899Z" fill="#B9B9B9"/>
<path d="M389.744 153.072C395.808 165.767 409.723 174.628 418.956 173.576C422.428 171.935 422.005 168.944 426.224 167.374" fill="#B9B9B9"/>
<path d="M389.744 153.072C395.808 165.767 409.723 174.628 418.956 173.576C422.428 171.935 422.005 168.944 426.224 167.374" stroke="black" stroke-width="1.33335" stroke-linecap="round" stroke-linejoin="round"/>
<mask id="mask13_513_13975" style="mask-type:alpha" maskUnits="userSpaceOnUse" x="390" y="194" width="17" height="6">
<path d="M390.077 196.652C390.059 196.706 390.055 196.624 390.055 196.624C390.055 196.624 399.204 203.449 406.029 194.3C406.029 194.3 406.104 194.295 406.053 194.302C401.196 200.722 394.879 199.763 390.077 196.652Z" fill="black"/>
</mask>
<g mask="url(#mask13_513_13975)">
<path d="M403.665 194.463C402.962 194.179 394.575 193.951 393.359 194.993C392.67 195.585 392.515 197.43 393.057 198.173C393.599 198.915 401.992 199.256 404.093 197.618C405.303 196.674 404.523 194.809 403.665 194.463Z" fill="white"/>
</g>
<path d="M390.077 196.652C390.059 196.706 390.055 196.624 390.055 196.624C390.055 196.624 399.204 203.449 406.029 194.3C406.029 194.3 406.104 194.295 406.053 194.302C401.196 200.722 394.879 199.763 390.077 196.652Z" stroke="black" stroke-width="1.33335" stroke-linecap="round" stroke-linejoin="round"/>
<path d="M478.133 239.638C455.926 237.316 442.587 250.773 441.353 266.682C440.246 280.952 447.324 288.971 444.282 316.218C444.282 316.218 441.362 339.14 475.801 336.84C510.116 334.549 505.29 309.235 505.29 309.235C500.768 284.086 505.947 271.743 502.976 261.768C499.523 250.175 490.466 240.928 478.133 239.638Z" fill="#CFD9F1"/>
<path d="M478.133 239.638C455.926 237.316 442.587 250.773 441.353 266.682C440.246 280.952 447.324 288.971 444.282 316.218C444.282 316.218 441.362 339.14 475.801 336.84C510.116 334.549 505.29 309.235 505.29 309.235C500.768 284.086 505.947 271.743 502.976 261.768C499.523 250.175 490.466 240.928 478.133 239.638Z" stroke="black" stroke-width="1.33335" stroke-linecap="round" stroke-linejoin="round"/>
<path d="M455.768 233.119C455.768 233.119 457.796 243.824 459.273 253.313C461.342 266.608 484.78 263.627 483.812 251.251C483.259 244.191 481.961 231.165 481.961 231.165L455.768 233.119Z" fill="#FEECDF"/>
<path d="M455.768 233.119C455.768 233.119 457.796 243.824 459.273 253.313C461.342 266.608 484.78 263.627 483.812 251.251C483.259 244.191 481.961 231.165 481.961 231.165L455.768 233.119Z" stroke="black" stroke-width="1.33335" stroke-linecap="round" stroke-linejoin="round"/>
<path d="M483.08 241.303C486.726 238.158 493.374 224.404 480.347 213.696C470.555 205.648 460.624 214.287 457.037 217.215C457.037 217.215 453.467 220.455 451.873 225.431C450.751 228.933 450.918 233.977 452.991 238.265C454.136 240.635 456.268 243.058 457.425 243.864" fill="#FEECDF"/>
<path d="M483.08 241.303C486.726 238.158 493.374 224.404 480.347 213.696C470.555 205.648 460.624 214.287 457.037 217.215C457.037 217.215 453.467 220.455 451.873 225.431C450.751 228.933 450.918 233.977 452.991 238.265C454.136 240.635 456.268 243.058 457.425 243.864" stroke="black" stroke-width="1.33335" stroke-linecap="round" stroke-linejoin="round"/>
<path d="M466.16 247.016C466.16 247.016 473.655 248.153 479.008 244.351" stroke="black" stroke-width="1.33335" stroke-linecap="round" stroke-linejoin="round"/>
<path d="M464.461 223.605C464.461 223.605 467.463 226.066 466.683 229.946" stroke="black" stroke-width="1.33335" stroke-linecap="round" stroke-linejoin="round"/>
<path d="M471.746 217.001C478.374 211.284 486.517 200.099 488.26 190.531C489.174 185.363 481.773 181.895 478.354 187.775C475.229 193.397 473.691 196.929 470.996 201.87C466.955 209.222 464.895 210.56 457.039 217.215C455.776 218.286 454.259 219.659 452.045 221.564" fill="#FEECDF"/>
<path d="M471.746 217.001C478.374 211.284 486.517 200.099 488.26 190.531C489.174 185.363 481.773 181.895 478.354 187.775C475.229 193.397 473.691 196.929 470.996 201.87C466.955 209.222 464.895 210.56 457.039 217.215C455.776 218.286 454.259 219.659 452.045 221.564" stroke="black" stroke-width="1.33335" stroke-linecap="round" stroke-linejoin="round"/>
<path d="M481.385 222.523C487.632 216.078 495.654 205.701 499.465 197.232C500.596 194.64 502.941 188.792 498.028 186.412C496.263 185.557 492.974 185.868 490.621 188.966C488.241 192.128 483.764 197.963 471.746 217.001" fill="#FEECDF"/>
<path d="M481.385 222.523C487.632 216.078 495.654 205.701 499.465 197.232C500.596 194.64 502.941 188.792 498.028 186.412C496.263 185.557 492.974 185.868 490.621 188.966C488.241 192.128 483.764 197.963 471.746 217.001" stroke="black" stroke-width="1.33335" stroke-linecap="round" stroke-linejoin="round"/>
<path d="M483.081 241.303C489.709 235.586 497.258 225.83 502.937 216.008C505.642 211.329 507.041 206.183 506.485 202.724C506.037 199.935 501.295 196.431 496.976 201.497C494.089 204.886 491.832 207.556 481.383 222.524" fill="#FEECDF"/>
<path d="M483.081 241.303C489.709 235.586 497.258 225.83 502.937 216.008C505.642 211.329 507.041 206.183 506.485 202.724C506.037 199.935 501.295 196.431 496.976 201.497C494.089 204.886 491.832 207.556 481.383 222.524" stroke="black" stroke-width="1.33335" stroke-linecap="round" stroke-linejoin="round"/>
<path d="M459.425 219.043C458.037 218.577 457.533 217.904 457.127 217.14C457.133 217.111 455.609 213.764 453.732 209.889C451.111 204.468 447.29 199.036 442.435 201.566C439.244 203.199 439.856 208.202 443.198 215.945C447.247 225.358 445.548 230.31 452.324 238.994C453.934 241.057 455.645 242.642 457.394 243.842" fill="#FEECDF"/>
<path d="M459.425 219.043C458.037 218.577 457.533 217.904 457.127 217.14C457.133 217.111 455.609 213.764 453.732 209.889C451.111 204.468 447.29 199.036 442.435 201.566C439.244 203.199 439.856 208.202 443.198 215.945C447.247 225.358 445.548 230.31 452.324 238.994C453.934 241.057 455.645 242.642 457.394 243.842" stroke="black" stroke-width="1.33335" stroke-linecap="round" stroke-linejoin="round"/>
</g>
</g>
<path d="M324.797 297.153L324.872 110.92H457.98C497.106 110.92 528.824 142.638 528.824 181.764V297.056L324.797 297.153Z" stroke="black" stroke-width="1.60002" stroke-linecap="round" stroke-linejoin="round"/>
<path d="M388.332 482.108C400.309 482.108 410.019 491.466 410.019 503.01C410.019 514.554 400.309 523.913 388.332 523.913C376.354 523.913 366.645 514.554 366.645 503.01C366.645 491.466 376.354 482.108 388.332 482.108Z" fill="white"/>
<path d="M388.332 482.108C400.309 482.108 410.019 491.466 410.019 503.01C410.019 514.554 400.309 523.913 388.332 523.913C376.354 523.913 366.645 514.554 366.645 503.01C366.645 491.466 376.354 482.108 388.332 482.108Z" stroke="black" stroke-width="1.28265"/>
<path d="M401.242 498.024C400.54 497.748 397.384 500.837 396.822 501.131C396.746 498.478 396.381 496.048 392.992 495.818H381.907C379.839 495.818 378.162 497.493 378.162 499.56V507.332C378.162 509.399 379.839 511.074 381.907 511.074H392.992C396.304 510.863 396.757 508.469 396.821 505.846C397.837 506.301 401.752 511.004 402.189 507.765L402.189 499.107C402.189 498.56 401.785 498.097 401.242 498.024Z" fill="#CFD9F1"/>
<path d="M297.343 463.774C319.842 463.774 338.08 481.387 338.08 503.114C338.08 524.84 319.842 542.453 297.343 542.453C274.844 542.453 256.605 524.84 256.605 503.114C256.605 481.387 274.844 463.774 297.343 463.774Z" fill="#F35322"/>
<path d="M297.343 463.774C319.842 463.774 338.08 481.387 338.08 503.114C338.08 524.84 319.842 542.453 297.343 542.453C274.844 542.453 256.605 524.84 256.605 503.114C256.605 481.387 274.844 463.774 297.343 463.774Z" stroke="black" stroke-width="1.30521"/>
<path d="M316.584 512.107C313.184 512.107 310.427 509.348 310.427 505.944V501.856C310.427 501.856 303.23 499.941 297.068 499.941C290.906 499.941 283.709 501.856 283.709 501.856V505.944C283.709 509.348 280.952 512.107 277.552 512.107H274.149C270.749 512.107 267.992 509.348 267.992 505.944V503.031C267.992 500.701 269.452 498.617 271.626 497.851C276.517 496.125 286.329 493.227 297.068 493.227C307.807 493.227 317.619 496.125 322.51 497.851C324.684 498.619 326.144 500.701 326.144 503.031V505.944C326.144 509.348 323.387 512.107 319.987 512.107H316.584Z" fill="white"/>
<path d="M206.977 480.657C219.55 480.657 229.743 490.526 229.743 502.701C229.743 514.875 219.55 524.744 206.977 524.744C194.404 524.744 184.211 514.875 184.211 502.701C184.211 490.526 194.404 480.657 206.977 480.657Z" fill="white"/>
<path d="M206.977 480.657C219.55 480.657 229.743 490.526 229.743 502.701C229.743 514.875 219.55 524.744 206.977 524.744C194.404 524.744 184.211 514.875 184.211 502.701C184.211 490.526 194.404 480.657 206.977 480.657Z" stroke="black" stroke-width="1.34647"/>
<path d="M206.757 489.936C204.322 489.936 202.347 491.918 202.347 494.362V503.215C202.347 505.66 204.322 507.641 206.757 507.641C209.193 507.641 211.167 505.66 211.167 503.215V494.362C211.167 491.918 209.193 489.936 206.757 489.936ZM199.261 502.108C197.964 502.318 197.561 503.455 197.705 504.339C198.391 508.554 200.52 511.903 204.66 512.764C204.664 513.449 204.684 515.481 204.684 515.481C204.684 516.295 205.021 517.785 206.757 517.785C208.493 517.785 208.828 516.289 208.828 515.475C208.828 515.475 208.822 513.149 208.818 512.772C212.975 511.923 215.122 508.567 215.809 504.339C215.953 503.455 215.576 502.279 214.253 502.108C213.125 501.963 212.445 503.205 212.347 503.918C211.963 507.399 209.432 509.165 206.719 509.165C204.007 509.165 201.616 507.541 201.168 503.918C201.046 503.198 200.342 501.934 199.261 502.108Z" fill="#CFD9F1"/>
<path d="M489.68 139.645H508.046V150.667C508.046 155.631 504.016 159.66 499.053 159.66H498.673C493.709 159.66 489.68 155.631 489.68 150.667V139.645Z" fill="#B9B9B9"/>
<path d="M489.68 139.645H508.046V150.667C508.046 155.631 504.016 159.66 499.053 159.66H498.673C493.709 159.66 489.68 155.631 489.68 150.667V139.645Z" stroke="white" stroke-width="1.33335" stroke-linecap="round" stroke-linejoin="round"/>
<path d="M503.56 146.313C501.062 146.643 497.151 146.687 494.168 146.313C489.541 145.732 485.725 142.533 485.725 137.869V131.196H512.003V137.869C512.003 142.533 508.182 145.701 503.56 146.313Z" fill="#B9B9B9"/>
<path d="M503.56 146.313C501.062 146.643 497.151 146.687 494.168 146.313C489.541 145.732 485.725 142.533 485.725 137.869V131.196H512.003V137.869C512.003 142.533 508.182 145.701 503.56 146.313Z" stroke="white" stroke-width="1.33335" stroke-linecap="round" stroke-linejoin="round"/>
<path d="M508.906 137.069C502.624 138.754 494.186 138.478 488.821 137.069C484.48 135.929 480.715 133.288 480.715 128.625V121.952H517.012V128.625C517.012 133.288 513.241 135.905 508.906 137.069Z" fill="#B9B9B9"/>
<path d="M508.906 137.069C502.624 138.754 494.186 138.478 488.821 137.069C484.48 135.929 480.715 133.288 480.715 128.625V121.952H517.012V128.625C517.012 133.288 513.241 135.905 508.906 137.069Z" stroke="white" stroke-width="1.33335" stroke-linecap="round" stroke-linejoin="round"/>
<path d="M498.863 58.5507C518.338 58.5507 534.125 74.3378 534.125 93.8125C534.125 113.287 518.338 129.074 498.863 129.074C479.389 129.074 463.602 113.287 463.602 93.8125C463.602 74.3378 479.389 58.5507 498.863 58.5507Z" fill="#F35322"/>
<path d="M498.863 58.5507C518.338 58.5507 534.125 74.3378 534.125 93.8125C534.125 113.287 518.338 129.074 498.863 129.074C479.389 129.074 463.602 113.287 463.602 93.8125C463.602 74.3378 479.389 58.5507 498.863 58.5507Z" stroke="white" stroke-width="1.33335" stroke-linecap="round" stroke-linejoin="round"/>
<path d="M490.789 119.403C481.536 112.61 472.421 95.5337 481.101 85.771C485.264 81.1347 492.498 83.6063 495.241 90.066C497.35 95.0333 496.125 101.998 492.694 101.272C487.49 100.17 488.304 83.3291 499.487 81.2865C505.486 80.1908 509.387 84.3854 509.996 89.2976C510.44 92.8809 509.106 96.2693 507.65 96.7012C503.976 97.7912 503.802 87.7071 509.668 85.8318C517.487 83.3473 520.031 101.522 507.588 114.646" stroke="white" stroke-width="1.33335" stroke-linecap="round" stroke-linejoin="round"/>
</g>
</svg>
