<svg width="637" height="408" viewBox="0 0 637 408" fill="none" xmlns="http://www.w3.org/2000/svg">
<g clip-path="url(#clip0_513_12836)">
<mask id="mask0_513_12836" style="mask-type:luminance" maskUnits="userSpaceOnUse" x="0" y="-70" width="637" height="478">
<path d="M637 -70H0V408H637V-70Z" fill="white"/>
</mask>
<g mask="url(#mask0_513_12836)">
<mask id="mask1_513_12836" style="mask-type:luminance" maskUnits="userSpaceOnUse" x="0" y="-70" width="637" height="478">
<path d="M0 -70H637V408H0V-70Z" fill="white"/>
</mask>
<g mask="url(#mask1_513_12836)">
<path d="M116.057 345.542H198.146V338.971H116.057V345.542Z" fill="white"/>
<path d="M116.057 345.542H198.146V338.971H116.057V345.542Z" stroke="#161616" stroke-width="1.03095" stroke-linecap="round" stroke-linejoin="round"/>
<path d="M116.057 279.836V286.407H198.146V279.836H116.057Z" fill="white"/>
<path d="M116.057 279.836V286.407H198.146V279.836H116.057Z" stroke="#161616" stroke-width="1.03095" stroke-linecap="round" stroke-linejoin="round"/>
<path d="M132.474 286.407L102.922 371.824H109.489L139.041 286.407H132.474Z" fill="white"/>
<path d="M132.474 286.407L102.922 371.824H109.489L139.041 286.407H132.474Z" stroke="#161616" stroke-width="1.03095" stroke-linecap="round" stroke-linejoin="round"/>
<path d="M175.16 286.407L204.712 371.824H211.279L181.727 286.407H175.16Z" fill="white"/>
<path d="M175.16 286.407L204.712 371.824H211.279L181.727 286.407H175.16Z" stroke="#161616" stroke-width="1.03095" stroke-linecap="round" stroke-linejoin="round"/>
<path d="M225.635 131.847C232.487 131.379 242.859 137.323 244.023 148.139C244.886 156.148 236.834 169.172 232.314 182.804C227.795 196.436 226.618 227.82 203.94 219.705C191.408 215.22 191.772 197.788 191.772 197.788C192.734 173.624 204.622 133.28 225.635 131.847Z" fill="#F35322"/>
<path d="M225.635 131.847C232.487 131.379 242.859 137.323 244.023 148.139C244.886 156.148 236.834 169.172 232.314 182.804C227.795 196.436 226.618 227.82 203.94 219.705C191.408 215.22 191.772 197.788 191.772 197.788C192.734 173.624 204.622 133.28 225.635 131.847Z" stroke="#161616" stroke-width="1.03095" stroke-linecap="round" stroke-linejoin="round"/>
<path d="M229.484 183.152C233.277 180.36 237.164 176.942 245.367 173.756C257.916 168.882 262.117 178.093 262.422 187.611C270.507 196.991 266.227 205.378 262.313 207.92C252.198 214.489 243.981 215.767 206.273 217.002C191.789 217.477 180.423 217.628 173.933 208.527" fill="#F35322"/>
<path d="M229.484 183.152C233.277 180.36 237.164 176.942 245.367 173.756C257.916 168.882 262.117 178.093 262.422 187.611C270.507 196.991 266.227 205.378 262.313 207.92C252.198 214.489 243.981 215.767 206.273 217.002C191.789 217.477 180.423 217.628 173.933 208.527" stroke="#161616" stroke-width="1.03095" stroke-linecap="round" stroke-linejoin="round"/>
<path d="M262.422 187.604C262.422 187.604 262.396 189.377 260.657 192.561L262.422 187.604Z" fill="#F35322"/>
<path d="M262.422 187.604C262.422 187.604 262.396 189.377 260.657 192.561" stroke="#161616" stroke-width="1.03095" stroke-linecap="round" stroke-linejoin="round"/>
<path d="M263.43 176.283C260.349 176.404 252.761 176.917 252.25 185.95C251.703 195.626 263.329 197.255 267.266 196.58C275.226 195.217 279.146 193.952 279.146 193.952C292.216 191.482 286.85 174.956 283.132 174.913C274.74 174.816 269.312 176.052 263.43 176.283Z" fill="#FEECDF"/>
<path d="M263.43 176.283C260.349 176.404 252.761 176.917 252.25 185.95C251.703 195.626 263.329 197.255 267.266 196.58C275.226 195.217 279.146 193.952 279.146 193.952C292.216 191.482 286.85 174.956 283.132 174.913C274.74 174.816 269.312 176.052 263.43 176.283Z" stroke="#161616" stroke-width="1.03095" stroke-linecap="round" stroke-linejoin="round"/>
<path d="M286.459 183.77C293.247 184.635 295.395 185.007 297.28 185.901C300.557 187.454 299.166 195.237 303.45 195.954C310.46 197.126 309.219 181.867 304.572 178.683C299.744 175.376 293.825 175.069 283.179 174.868" fill="#FEECDF"/>
<path d="M286.459 183.77C293.247 184.635 295.395 185.007 297.28 185.901C300.557 187.454 299.166 195.237 303.45 195.954C310.46 197.126 309.219 181.867 304.572 178.683C299.744 175.376 293.825 175.069 283.179 174.868" stroke="#161616" stroke-width="1.03095" stroke-linecap="round" stroke-linejoin="round"/>
<path d="M283.053 189.177C291.369 188.766 292.617 189.278 294.646 192.856C296.714 196.513 295.947 206.663 303.141 205.989C307.889 205.566 306.766 194.942 303.963 188.331C301.73 182.89 289.7 180.591 285.233 180.181" fill="#FEECDF"/>
<path d="M283.053 189.177C291.369 188.766 292.617 189.278 294.646 192.856C296.714 196.513 295.947 206.663 303.141 205.989C307.889 205.566 306.766 194.942 303.963 188.331C301.73 182.89 289.7 180.591 285.233 180.181" stroke="#161616" stroke-width="1.03095" stroke-linecap="round" stroke-linejoin="round"/>
<path d="M278.027 194.567C282.377 192.83 286.611 193.382 289.75 195.037C294.071 197.219 293.751 203.015 298.656 202.564C306.019 201.83 299.982 190.792 296.532 187.205C294.167 184.746 287.54 183.998 281.941 184.149" fill="#FEECDF"/>
<path d="M278.027 194.567C282.377 192.83 286.611 193.382 289.75 195.037C294.071 197.219 293.751 203.015 298.656 202.564C306.019 201.83 299.982 190.792 296.532 187.205C294.167 184.746 287.54 183.998 281.941 184.149" stroke="#161616" stroke-width="1.03095" stroke-linecap="round" stroke-linejoin="round"/>
<path d="M187.919 217.238C218.921 219.81 282.575 206.545 285.048 246.611C286.379 268.16 247.439 272.065 235.742 273.098C224.2 274.117 173.895 280.147 155.496 279.735C127.339 279.105 110.371 249.308 125.824 225.644C133.996 213.129 179.364 216.529 187.919 217.238Z" fill="#CFD9F1"/>
<path d="M187.919 217.238C218.921 219.81 282.575 206.545 285.048 246.611C286.379 268.16 247.439 272.065 235.742 273.098C224.2 274.117 173.895 280.147 155.496 279.735C127.339 279.105 110.371 249.308 125.824 225.644C133.996 213.129 179.364 216.529 187.919 217.238Z" stroke="#161616" stroke-width="1.03095" stroke-linecap="round" stroke-linejoin="round"/>
<path d="M237.494 262.048C242.258 284.611 252.99 324.53 256.108 335.864C258.457 344.399 272.508 347.662 288.122 346.574C302.242 345.589 310.53 339.652 314.608 332.956C314.608 332.956 293.918 257.826 282.46 235.56" fill="#CFD9F1"/>
<path d="M237.494 262.048C242.258 284.611 252.99 324.53 256.108 335.864C258.457 344.399 272.508 347.662 288.122 346.574C302.242 345.589 310.53 339.652 314.608 332.956C314.608 332.956 293.918 257.826 282.46 235.56" stroke="#161616" stroke-width="1.03095" stroke-linecap="round" stroke-linejoin="round"/>
<path d="M259.658 371.761L345.031 371.746C345.031 371.746 353.96 339.495 316.526 332.273C296.669 328.443 285.497 337.371 272.791 339.304C259.383 341.343 256.079 335.585 256.079 335.585C256.079 335.585 250.493 351.209 259.658 371.761Z" fill="white"/>
<path d="M259.658 371.761L345.031 371.746C345.031 371.746 353.96 339.495 316.526 332.273C296.669 328.443 285.497 337.371 272.791 339.304C259.383 341.343 256.079 335.585 256.079 335.585C256.079 335.585 250.493 351.209 259.658 371.761Z" stroke="#161616" stroke-width="1.03095" stroke-linecap="round" stroke-linejoin="round"/>
<path d="M257.631 365.291L259.991 371.342L344.719 371.324C344.719 371.324 345.013 370.592 345.281 368.448C345.445 367.134 345.445 365.327 345.445 365.327L257.631 365.291Z" fill="#FEECDF"/>
<path d="M257.365 365.191L345.601 365.166L257.365 365.191Z" fill="white"/>
<path d="M257.365 365.191L345.601 365.166" stroke="#161616" stroke-width="1.03095" stroke-linecap="round" stroke-linejoin="round"/>
<path d="M269.508 365.189L269.509 371.759" stroke="#161616" stroke-width="1.03095" stroke-linecap="round" stroke-linejoin="round"/>
<path d="M272.791 365.188L272.792 371.759" stroke="#161616" stroke-width="1.03095" stroke-linecap="round" stroke-linejoin="round"/>
<path d="M276.074 365.187L276.075 371.758" stroke="#161616" stroke-width="1.03095" stroke-linecap="round" stroke-linejoin="round"/>
<path d="M289.209 365.185L289.21 371.756" stroke="#161616" stroke-width="1.03095" stroke-linecap="round" stroke-linejoin="round"/>
<path d="M292.494 365.185L292.495 371.755" stroke="#161616" stroke-width="1.03095" stroke-linecap="round" stroke-linejoin="round"/>
<path d="M302.344 365.183L302.345 371.753" stroke="#161616" stroke-width="1.03095" stroke-linecap="round" stroke-linejoin="round"/>
<path d="M315.479 365.181L315.48 371.751" stroke="#161616" stroke-width="1.03095" stroke-linecap="round" stroke-linejoin="round"/>
<path d="M318.762 365.18L318.763 371.751" stroke="#161616" stroke-width="1.03095" stroke-linecap="round" stroke-linejoin="round"/>
<path d="M325.328 365.179L325.329 371.75" stroke="#161616" stroke-width="1.03095" stroke-linecap="round" stroke-linejoin="round"/>
<path d="M335.18 365.177L335.181 371.748" stroke="#161616" stroke-width="1.03095" stroke-linecap="round" stroke-linejoin="round"/>
<path d="M293.395 333.641C293.395 333.641 321.925 357.033 335.698 340.76" stroke="#161616" stroke-width="1.03095"/>
<path d="M222.236 279.144L153.833 279.655C122.821 279.638 116.351 255.907 116.766 244.625C117.282 230.614 122.821 225.135 128.158 221.874C149.624 208.757 190.902 219.588 213.232 222.011C235.562 224.433 279.287 226.011 277.698 257.328C276.573 279.475 238.743 279.159 222.236 279.144Z" fill="#CFD9F1"/>
<path d="M222.236 279.144L153.833 279.655C122.821 279.638 116.351 255.907 116.766 244.625C117.282 230.614 122.821 225.135 128.158 221.874C149.624 208.757 190.902 219.588 213.232 222.011C235.562 224.433 279.287 226.011 277.698 257.328C276.573 279.475 238.743 279.159 222.236 279.144Z" stroke="#161616" stroke-width="1.03095" stroke-linecap="round" stroke-linejoin="round"/>
<path d="M276.172 263.973C267.775 284.387 223.208 327.633 217.357 333.063C211.505 338.493 202.746 347.057 182.564 348.712C165.319 350.126 152.64 344.847 153.926 335.895C157.757 309.215 192.196 275.555 212.909 258.568" fill="#CFD9F1"/>
<path d="M276.172 263.973C267.775 284.387 223.208 327.633 217.357 333.063C211.505 338.493 202.746 347.057 182.564 348.712C165.319 350.126 152.64 344.847 153.926 335.895C157.757 309.215 192.196 275.555 212.909 258.568" stroke="#161616" stroke-width="1.03095" stroke-linecap="round" stroke-linejoin="round"/>
<path d="M157.768 371.801H243.141C243.141 371.801 252.668 336.061 206.451 331.289C197.388 330.353 179.951 338.243 170.907 339.347C157.444 340.989 154.196 335.625 154.196 335.625C154.196 335.625 148.607 351.249 157.768 371.801Z" fill="white"/>
<path d="M157.768 371.801H243.141C243.141 371.801 252.668 336.061 206.451 331.289C197.388 330.353 179.951 338.243 170.907 339.347C157.444 340.989 154.196 335.625 154.196 335.625C154.196 335.625 148.607 351.249 157.768 371.801Z" stroke="#161616" stroke-width="1.03095" stroke-linecap="round" stroke-linejoin="round"/>
<path d="M155.742 365.331L158.101 371.383L242.829 371.379C242.829 371.379 243.124 370.647 243.392 368.504C243.556 367.19 243.556 365.383 243.556 365.383L155.742 365.331Z" fill="#FEECDF"/>
<path d="M155.477 365.231L243.713 365.221L155.477 365.231Z" fill="white"/>
<path d="M155.477 365.231L243.713 365.221" stroke="#161616" stroke-width="1.03095" stroke-linecap="round" stroke-linejoin="round"/>
<path d="M167.619 365.231V371.801" stroke="#161616" stroke-width="1.03095" stroke-linecap="round" stroke-linejoin="round"/>
<path d="M170.902 365.231V371.801" stroke="#161616" stroke-width="1.03095" stroke-linecap="round" stroke-linejoin="round"/>
<path d="M174.188 365.231V371.801" stroke="#161616" stroke-width="1.03095" stroke-linecap="round" stroke-linejoin="round"/>
<path d="M187.32 365.231V371.801" stroke="#161616" stroke-width="1.03095" stroke-linecap="round" stroke-linejoin="round"/>
<path d="M190.605 365.231V371.801" stroke="#161616" stroke-width="1.03095" stroke-linecap="round" stroke-linejoin="round"/>
<path d="M200.455 365.231V371.801" stroke="#161616" stroke-width="1.03095" stroke-linecap="round" stroke-linejoin="round"/>
<path d="M213.59 365.231V371.801" stroke="#161616" stroke-width="1.03095" stroke-linecap="round" stroke-linejoin="round"/>
<path d="M216.873 365.231V371.801" stroke="#161616" stroke-width="1.03095" stroke-linecap="round" stroke-linejoin="round"/>
<path d="M223.439 365.231V371.801" stroke="#161616" stroke-width="1.03095" stroke-linecap="round" stroke-linejoin="round"/>
<path d="M233.291 365.231V371.801" stroke="#161616" stroke-width="1.03095" stroke-linecap="round" stroke-linejoin="round"/>
<path d="M191.512 333.688C191.512 333.688 220.038 357.084 233.814 340.814" stroke="#161616" stroke-width="1.03095"/>
<path d="M226.055 163.423C227.655 195.349 218.595 217.205 218.595 217.205C218.595 217.205 215.519 221.602 192.834 219.986C171.652 218.478 150.726 230.034 136.892 232.426C126.28 234.261 122.31 226.937 122.31 226.937C122.31 226.937 117.41 214.982 134.688 201.646C154.491 186.359 163.2 172.91 182.091 147.172C191.255 134.685 205.669 131.733 206.392 131.953C209.543 132.91 214.327 141.864 223.938 136.261" fill="#F35322"/>
<path d="M226.055 163.423C227.655 195.349 218.595 217.205 218.595 217.205C218.595 217.205 215.519 221.602 192.834 219.986C171.652 218.478 150.726 230.034 136.892 232.426C126.28 234.261 122.31 226.937 122.31 226.937C122.31 226.937 117.41 214.982 134.688 201.646C154.491 186.359 163.2 172.91 182.091 147.172C191.255 134.685 205.669 131.733 206.392 131.953C209.543 132.91 214.327 141.864 223.938 136.261" stroke="#161616" stroke-width="1.03095" stroke-linecap="round" stroke-linejoin="round"/>
<path d="M211.638 168.316C211.638 168.316 199.756 169.548 198.965 178.561C198.118 188.214 209.366 190.636 213.322 190.084C221.32 188.969 225.336 186.783 225.336 186.783C238.477 184.721 233.626 168.036 229.91 167.878C221.526 167.52 211.638 168.316 211.638 168.316Z" fill="#FEECDF"/>
<path d="M211.638 168.316C211.638 168.316 199.756 169.548 198.965 178.561C198.118 188.214 209.366 190.636 213.322 190.084C221.32 188.969 225.336 186.783 225.336 186.783C238.477 184.721 233.626 168.036 229.91 167.878C221.526 167.52 211.638 168.316 211.638 168.316Z" stroke="#161616" stroke-width="1.03095" stroke-linecap="round" stroke-linejoin="round"/>
<path d="M231.961 177.14C238.582 178.955 240.663 179.626 242.41 180.779C245.447 182.783 242.972 190.317 247.127 191.632C253.925 193.782 254.37 179.457 251.337 174.696C248.781 170.701 240.199 169.063 229.953 167.837" fill="#FEECDF"/>
<path d="M231.961 177.14C238.582 178.955 240.663 179.626 242.41 180.779C245.447 182.783 242.972 190.317 247.127 191.632C253.925 193.782 254.37 179.457 251.337 174.696C248.781 170.701 240.199 169.063 229.953 167.837" stroke="#161616" stroke-width="1.03095" stroke-linecap="round" stroke-linejoin="round"/>
<path d="M229.39 182.131C237.716 181.979 239.326 182.349 240.599 186.263C241.879 190.199 238.646 200.212 246.035 200.024C250.986 199.897 252.07 189.439 250.104 182.515C248.687 177.53 236.215 173.977 231.848 173.207" fill="#FEECDF"/>
<path d="M229.39 182.131C237.716 181.979 239.326 182.349 240.599 186.263C241.879 190.199 238.646 200.212 246.035 200.024C250.986 199.897 252.07 189.439 250.104 182.515C248.687 177.53 236.215 173.977 231.848 173.207" stroke="#161616" stroke-width="1.03095" stroke-linecap="round" stroke-linejoin="round"/>
<path d="M223.722 187.506C227.556 186.325 232.932 186.669 236.487 186.914C239.89 187.165 240.858 194.737 246.367 193.473C254.081 191.707 246.704 181.394 242.02 178.642C238.927 176.824 232.631 176.947 228.499 177.29" fill="#FEECDF"/>
<path d="M223.722 187.506C227.556 186.325 232.932 186.669 236.487 186.914C239.89 187.165 240.858 194.737 246.367 193.473C254.081 191.707 246.704 181.394 242.02 178.642C238.927 176.824 232.631 176.947 228.499 177.29" stroke="#161616" stroke-width="1.03095" stroke-linecap="round" stroke-linejoin="round"/>
<path d="M187.363 162.744C161.724 188.958 140.678 207.3 123.132 204.812C118.236 204.502 111.909 203.604 111.536 200.307C110.362 189.955 114.936 184.225 118.369 180.463C126.618 171.427 131.209 168.229 141.868 160.096C147.311 155.943 156.189 144.909 166.02 137.414C175.851 129.92 190.392 120.86 206.632 129.357" fill="#F35322"/>
<path d="M187.363 162.744C161.724 188.958 140.678 207.3 123.132 204.812C118.236 204.502 111.909 203.604 111.536 200.307C110.362 189.955 114.936 184.225 118.369 180.463C126.618 171.427 131.209 168.229 141.868 160.096C147.311 155.943 156.189 144.909 166.02 137.414C175.851 129.92 190.392 120.86 206.632 129.357" stroke="#161616" stroke-width="1.03095" stroke-linecap="round" stroke-linejoin="round"/>
<path d="M136.121 182.895C141.369 178.912 149.089 177.743 155.777 176.764C161.927 175.864 166.321 176.447 174.135 173.683C180.992 171.256 184.784 166.97 191.002 165.774C198.042 164.419 201.538 167.467 202.993 169.313C206.574 173.855 207.031 177.705 204.898 182.197C207.451 185.806 215.254 191.199 212.913 197.33C210.216 204.395 199.906 205.375 185.154 207.227C172.763 208.782 166.426 208.946 157.322 210.865C147.129 213.022 148.307 209.639 137.415 210.203C128.175 210.681 113.56 213.54 111.643 201.14" fill="#F35322"/>
<path d="M136.121 182.895C141.369 178.912 149.089 177.743 155.777 176.764C161.927 175.864 166.321 176.447 174.135 173.683C180.992 171.256 184.784 166.97 191.002 165.774C198.042 164.419 201.538 167.467 202.993 169.313C206.574 173.855 207.031 177.705 204.898 182.197C207.451 185.806 215.254 191.199 212.913 197.33C210.216 204.395 199.906 205.375 185.154 207.227C172.763 208.782 166.426 208.946 157.322 210.865C147.129 213.022 148.307 209.639 137.415 210.203C128.175 210.681 113.56 213.54 111.643 201.14" stroke="#161616" stroke-width="1.03095" stroke-linecap="round" stroke-linejoin="round"/>
<path d="M204.886 182.191C204.886 182.191 204.432 183.819 202.969 186.873L204.886 182.191Z" fill="#F35322"/>
<path d="M204.886 182.191C204.886 182.191 204.432 183.819 202.969 186.873" stroke="#161616" stroke-width="1.03095" stroke-linecap="round" stroke-linejoin="round"/>
<path d="M209.156 114.982L202.885 134.665C202.885 134.665 214.228 146.921 226.773 138.671L228.949 126.702" fill="#FEECDF"/>
<path d="M209.156 114.982L202.885 134.665C202.885 134.665 214.228 146.921 226.773 138.671L228.949 126.702" stroke="#161616" stroke-width="1.03095" stroke-linecap="round" stroke-linejoin="round"/>
<path d="M194.554 94.1012C194.554 94.1012 187.756 78.5397 207.06 67.1443C226.363 55.749 230.305 72.1379 249.895 83.783C249.895 83.783 264.085 83.0948 268.057 89.0395C272.029 94.9842 260.893 114.277 253.743 118.371L222.507 112.136L194.554 94.1012Z" fill="#B9B9B9"/>
<path d="M194.554 94.1012C194.554 94.1012 187.756 78.5397 207.06 67.1443C226.363 55.749 230.305 72.1379 249.895 83.783C249.895 83.783 264.085 83.0948 268.057 89.0395C272.029 94.9842 260.893 114.277 253.743 118.371L222.507 112.136L194.554 94.1012Z" stroke="#161616" stroke-width="1.03095" stroke-linecap="round" stroke-linejoin="round"/>
<path d="M240.342 84.8026C244.892 84.3821 250.094 83.7804 250.094 83.7804" stroke="#161616" stroke-width="1.03095" stroke-linecap="round" stroke-linejoin="round"/>
<path d="M208.23 116.885C208.23 116.885 210.183 132.904 226.545 137.77C242.907 142.636 252.356 126.45 252.356 126.45L254.624 119.988C254.624 119.988 260.95 104.102 248.333 92.6244C248.333 92.6244 241.174 88.5304 231.988 91.192C220.703 94.4618 215.703 100.031 214.974 100.772C207.925 107.95 208.23 116.885 208.23 116.885Z" fill="#FEECDF"/>
<path d="M208.23 116.885C208.23 116.885 210.183 132.904 226.545 137.77C242.907 142.636 252.356 126.45 252.356 126.45L254.624 119.988C254.624 119.988 260.95 104.102 248.333 92.6244C248.333 92.6244 241.174 88.5304 231.988 91.192C220.703 94.4618 215.703 100.031 214.974 100.772C207.925 107.95 208.23 116.885 208.23 116.885Z" stroke="#161616" stroke-width="1.03095" stroke-linecap="round" stroke-linejoin="round"/>
<path d="M242.297 126.464C241.698 131.777 245.483 133.839 245.483 133.839C245.483 133.839 245.485 133.88 245.471 133.847C243.467 132.898 242.408 129.755 242.309 128.959C242.218 128.218 242.297 126.464 242.297 126.464Z" fill="black"/>
<path d="M242.297 126.464C241.698 131.777 245.483 133.839 245.483 133.839C245.483 133.839 245.485 133.88 245.471 133.847C243.467 132.898 242.408 129.755 242.309 128.959C242.218 128.218 242.297 126.464 242.297 126.464Z" stroke="#161616" stroke-width="1.03095" stroke-linecap="round" stroke-linejoin="round"/>
<path d="M246.417 113.9C246.622 113.282 247.289 112.948 247.906 113.153C248.524 113.359 248.858 114.026 248.653 114.643C248.448 115.261 247.781 115.595 247.163 115.39C246.546 115.185 246.212 114.518 246.416 113.901C246.416 113.901 246.417 113.9 246.417 113.9Z" fill="black"/>
<path d="M220.755 119.93C222.047 116.032 226.254 113.921 230.151 115.215C234.048 116.509 236.16 120.718 234.868 124.616C233.576 128.514 229.369 130.625 225.472 129.331C221.575 128.037 219.463 123.829 220.755 119.931C220.755 119.931 220.755 119.93 220.755 119.93Z" fill="#FFB39B"/>
<path d="M251.204 126.378C251.204 126.378 261.606 126.163 261.937 122.511C262.268 118.859 252.44 120.559 252.44 120.559" fill="#FEECDF"/>
<path d="M252.352 126.446C252.352 126.446 261.606 126.163 261.938 122.511C262.269 118.859 254.517 120.297 254.517 120.297" stroke="#161616" stroke-width="1.03095" stroke-linecap="round" stroke-linejoin="round"/>
<mask id="mask2_513_12836" style="mask-type:alpha" maskUnits="userSpaceOnUse" x="242" y="126" width="4" height="8">
<path d="M242.297 126.464C241.698 131.777 245.483 133.839 245.483 133.839C245.483 133.839 245.485 133.88 245.471 133.847C243.467 132.898 242.408 129.755 242.309 128.959C242.218 128.218 242.297 126.464 242.297 126.464Z" fill="black"/>
</mask>
<g mask="url(#mask2_513_12836)">
<path d="M242.374 135.84C242.908 134.729 240.837 135.096 239.554 134.041C238.27 132.987 238.91 136.607 239.701 137.557C240.491 138.507 241.84 136.951 242.374 135.84Z" fill="#FFB39B"/>
<path d="M243.197 127.974C242.519 127.144 240.88 129.249 241.228 130.329C241.576 131.41 245.144 135.361 246.203 135.217C247.262 135.073 247.721 134.102 246.741 133.374C245.761 132.646 243.876 128.804 243.197 127.974Z" fill="white"/>
</g>
<path d="M242.299 126.464C241.7 131.777 245.485 133.839 245.485 133.839C245.485 133.839 245.486 133.88 245.473 133.847C243.469 132.898 242.409 129.755 242.311 128.959C242.22 128.218 242.299 126.464 242.299 126.464Z" stroke="#161616" stroke-width="1.03095" stroke-linecap="round" stroke-linejoin="round"/>
<path d="M205.665 86.6384C219.276 87.0504 217.899 104.115 217.899 104.115C219.491 111.746 225.912 104.237 234.308 96.6879C242.705 89.1392 248.337 92.6244 248.337 92.6244C248.337 92.6244 245.25 86.6555 235.345 85.8899C225.44 85.1243 212.145 78.3521 205.665 86.6384Z" fill="#B9B9B9"/>
<path d="M248.336 92.6246C248.336 92.6246 242.704 89.1395 234.308 96.6882C225.911 104.237 219.491 111.746 217.899 104.115C217.899 104.115 219.275 87.0508 205.665 86.6388" stroke="#161616" stroke-width="1.03095" stroke-linecap="round" stroke-linejoin="round"/>
<path d="M217.9 104.12C217.9 104.12 219.277 87.0538 205.665 86.6417C190.241 86.1756 190.04 105.882 198.182 112.618C203.966 117.4 208.235 116.889 208.235 116.889" fill="#FEECDF"/>
<path d="M217.9 104.12C217.9 104.12 219.277 87.0538 205.665 86.6417C190.241 86.1756 190.04 105.882 198.182 112.618C203.966 117.4 208.235 116.889 208.235 116.889" stroke="#161616" stroke-width="1.03095" stroke-linecap="round" stroke-linejoin="round"/>
<path d="M209.589 111.466C209.589 111.466 213.075 101.579 206.893 91.1067" stroke="#161616" stroke-width="1.03095" stroke-linecap="round" stroke-linejoin="round"/>
<path d="M210.587 104.161C210.587 104.161 208.194 102.619 205.998 103.894" stroke="#161616" stroke-width="1.03095" stroke-linecap="round" stroke-linejoin="round"/>
<path d="M77.9355 213.606V207.358H543.343V213.606H77.9355Z" fill="white"/>
<path d="M77.9355 213.606V207.358H543.343V213.606H77.9355Z" stroke="#111111" stroke-width="1.03095" stroke-linecap="round" stroke-linejoin="round"/>
<path d="M210.719 207.399V200.828H266.54V207.399H210.719Z" fill="white"/>
<path d="M210.719 207.399V200.828H266.54V207.399H210.719Z" stroke="#161616" stroke-width="1.03095" stroke-linecap="round" stroke-linejoin="round"/>
<path d="M263.256 207.399L276.39 148.263H348.629L335.495 207.399H263.256Z" fill="white"/>
<path d="M263.256 207.399L276.39 148.263H348.629L335.495 207.399H263.256Z" stroke="#161616" stroke-width="1.03095" stroke-linecap="round" stroke-linejoin="round"/>
<path d="M328.924 207.399L312.506 148.263H388.028L407.73 207.399H328.924Z" fill="white"/>
<path d="M328.924 207.399L312.506 148.263H388.028L407.73 207.399H328.924Z" stroke="#161616" stroke-width="1.03095" stroke-linecap="round" stroke-linejoin="round"/>
<path d="M328.924 207.399L327.037 200.621L427.431 200.828V207.399H328.924Z" fill="white"/>
<path d="M328.924 207.399L327.037 200.621L427.431 200.828V207.399H328.924Z" stroke="#161616" stroke-width="1.03095" stroke-linecap="round" stroke-linejoin="round"/>
<path d="M319.074 154.834L329.992 193.96L397.88 194.257L384.746 154.834H319.074Z" fill="white"/>
<path d="M319.074 154.834L329.992 193.96L397.88 194.257L384.746 154.834H319.074Z" stroke="#161616" stroke-width="1.03095" stroke-linecap="round" stroke-linejoin="round"/>
<path d="M332.066 167.819C332.066 167.819 335.48 167.819 340.382 167.82L332.066 167.819Z" fill="white"/>
<path d="M332.066 167.819C332.066 167.819 335.48 167.819 340.382 167.82" stroke="#161616" stroke-width="1.03095" stroke-linecap="round" stroke-linejoin="round"/>
<path d="M328.875 161.41H371.835" stroke="#161616" stroke-width="1.03095" stroke-linecap="round" stroke-linejoin="round"/>
<path d="M391.016 149.77C391.016 149.77 391.151 180.665 408.646 200.373C423.906 217.501 444.058 216.102 457.2 214.131C469.61 212.26 492.259 204.417 490.469 180.247C489.378 162.614 477.616 149.552 465.739 134.561C455.422 117.659 447.624 82.2007 417.975 88.3429C388.724 84.7855 388.955 129.663 391.016 149.77Z" fill="#FFB39B"/>
<path d="M391.016 149.77C391.016 149.77 391.151 180.665 408.646 200.373C423.906 217.501 444.058 216.102 457.2 214.131C469.61 212.26 492.259 204.417 490.469 180.247C489.378 162.614 477.616 149.552 465.739 134.561C455.422 117.659 447.624 82.2007 417.975 88.3429C388.724 84.7855 388.955 129.663 391.016 149.77Z" stroke="#161616" stroke-width="1.03095" stroke-linecap="round" stroke-linejoin="round"/>
<path d="M465.62 140.209C463.31 135.644 464.771 126.486 463.5 114.233C462.109 100.575 456.339 81.0187 440.198 76.6227C422.282 71.7434 405.322 81.527 396.115 96.4795" fill="#FFB39B"/>
<path d="M465.62 140.209C463.31 135.644 464.771 126.486 463.5 114.233C462.109 100.575 456.339 81.0187 440.198 76.6227C422.282 71.7434 405.322 81.527 396.115 96.4795" stroke="#161616" stroke-width="1.03095" stroke-linecap="round" stroke-linejoin="round"/>
<path d="M399.928 96.6627C395.875 92.7786 385.287 88.0511 377.414 95.3386C368.312 103.764 369.428 126.546 389.697 148.768C391.965 151.12 396.304 155.545 398.998 156.216" fill="#FFB39B"/>
<path d="M399.928 96.6627C395.875 92.7786 385.287 88.0511 377.414 95.3386C368.312 103.764 369.428 126.546 389.697 148.768C391.965 151.12 396.304 155.545 398.998 156.216" stroke="#161616" stroke-width="1.03095" stroke-linecap="round" stroke-linejoin="round"/>
<path d="M431.162 180.611C431.162 180.611 433.488 181.008 434.91 182.786C436.333 184.565 439.569 188.145 441.558 188.947C441.558 188.947 450.109 213.058 459.859 215.224C469.936 217.463 476.912 211.62 479.058 207.232C483.352 198.45 481.667 189.711 473.803 183.169C467.162 177.645 461.813 173.285 458.951 170.653C449.455 161.923 445.484 154.819 434.6 150.015" fill="#CFD9F1"/>
<path d="M431.162 180.611C431.162 180.611 433.488 181.008 434.91 182.786C436.333 184.565 439.569 188.145 441.558 188.947C441.558 188.947 450.109 213.058 459.859 215.224C469.936 217.463 476.912 211.62 479.058 207.232C483.352 198.45 481.667 189.711 473.803 183.169C467.162 177.645 461.813 173.285 458.951 170.653C449.455 161.923 445.484 154.819 434.6 150.015" stroke="#161616" stroke-width="1.03095" stroke-linecap="round" stroke-linejoin="round"/>
<path d="M404.832 211.417C400.611 210.027 397.091 208.65 396.172 208.027C390.661 204.293 387.774 199.639 387.774 199.639C387.774 199.639 376.901 192.275 385.381 187.258C391.733 183.501 396.649 183.886 398.646 185.339C407.625 191.874 408.778 192.864 413.018 198.079C417.258 203.293 409.053 212.807 404.832 211.417Z" fill="#FEECDF"/>
<path d="M404.832 211.417C400.611 210.027 397.091 208.65 396.172 208.027C390.661 204.293 387.774 199.639 387.774 199.639C387.774 199.639 376.901 192.275 385.381 187.258C391.733 183.501 396.649 183.886 398.646 185.339C407.625 191.874 408.778 192.864 413.018 198.079C417.258 203.293 409.053 212.807 404.832 211.417Z" stroke="#161616" stroke-width="1.03095" stroke-linecap="round" stroke-linejoin="round"/>
<path d="M388.934 188.49C388.386 188.03 387.33 188.055 386.527 188.607C385.561 189.277 380.654 192.067 379.34 188.634C378.038 185.309 386.274 180.48 388.272 180.307C392.085 179.966 395.99 183.289 398.682 185.311" fill="#FEECDF"/>
<path d="M388.934 188.49C388.386 188.03 387.33 188.055 386.527 188.607C385.561 189.277 380.654 192.067 379.34 188.634C378.038 185.309 386.274 180.48 388.272 180.307C392.085 179.966 395.99 183.289 398.682 185.311" stroke="#161616" stroke-width="1.03095" stroke-linecap="round" stroke-linejoin="round"/>
<path d="M385.643 191.618C384.513 190.336 381.885 189.037 379.462 189.067C377.015 191.096 371.885 191.966 370.488 189.512C369.101 187.062 372.467 182.678 377.666 180.034C381.292 178.198 385.694 177.052 394.581 187.249" fill="#FEECDF"/>
<path d="M385.643 191.618C384.513 190.336 381.885 189.037 379.462 189.067C377.015 191.096 371.885 191.966 370.488 189.512C369.101 187.062 372.467 182.678 377.666 180.034C381.292 178.198 385.694 177.052 394.581 187.249" stroke="#161616" stroke-width="1.03095" stroke-linecap="round" stroke-linejoin="round"/>
<path d="M387.46 199.603C385.884 197.094 380.266 194.636 379.534 193.845C377.335 195.922 374.574 201.48 370.509 199.786C366.478 198.114 372.802 187.295 376.05 186.009C380.424 184.278 387.843 187.135 390.503 188.93" fill="#FEECDF"/>
<path d="M387.46 199.603C385.884 197.094 380.266 194.636 379.534 193.845C377.335 195.922 374.574 201.48 370.509 199.786C366.478 198.114 372.802 187.295 376.05 186.009C380.424 184.278 387.843 187.135 390.503 188.93" stroke="#161616" stroke-width="1.03095" stroke-linecap="round" stroke-linejoin="round"/>
<path d="M387.607 199.469C383.539 195.773 379.562 193.915 377.834 192.988L387.607 199.469Z" fill="#FEECDF"/>
<path d="M387.607 199.469C383.539 195.773 379.562 193.915 377.834 192.988" stroke="#161616" stroke-width="1.03095" stroke-linecap="round" stroke-linejoin="round"/>
<path d="M393.755 199.174C385.563 197.53 385.626 198.436 381.603 196.196C377.954 194.164 372.617 194.644 371.598 196.741C370.579 198.838 376.911 203.499 380.759 205.614C383.27 206.994 398.304 209.46 401.568 210.356" fill="#FEECDF"/>
<path d="M393.755 199.174C385.563 197.53 385.626 198.436 381.603 196.196C377.954 194.164 372.617 194.644 371.598 196.741C370.579 198.838 376.911 203.499 380.759 205.614C383.27 206.994 398.304 209.46 401.568 210.356" stroke="#161616" stroke-width="1.03095" stroke-linecap="round" stroke-linejoin="round"/>
<path d="M472.779 213.577C458.54 220.83 435.129 219.152 419.996 220.572C404.862 221.992 397.629 210.572 398.828 204.352C399.786 199.381 407.214 195.171 407.214 195.171C407.818 193.981 407.635 191.922 409.712 189.734C414.652 184.53 421.916 190.766 427.407 191.419C432.899 192.073 442.209 192.067 442.209 192.067C442.209 192.067 449.205 189.074 456.066 187.903" fill="#CFD9F1"/>
<path d="M472.779 213.577C458.54 220.83 435.129 219.152 419.996 220.572C404.862 221.992 397.629 210.572 398.828 204.352C399.786 199.381 407.214 195.171 407.214 195.171C407.818 193.981 407.635 191.922 409.712 189.734C414.652 184.53 421.916 190.766 427.407 191.419C432.899 192.073 442.209 192.067 442.209 192.067C442.209 192.067 449.205 189.074 456.066 187.903" stroke="#161616" stroke-width="1.03095" stroke-linecap="round" stroke-linejoin="round"/>
<path d="M431.615 279.721C431.615 279.721 457.743 279.737 470.398 267.557C486.807 244.285 463.914 211.422 455.996 195.371C455.996 195.371 450.734 199.948 427.018 208.759C373.66 221.735 353.63 231.427 351.496 252.617C351.496 279.557 412.242 281.364 431.615 279.721Z" fill="#B9B9B9"/>
<path d="M431.615 279.721C431.615 279.721 457.743 279.737 470.398 267.557C486.807 244.285 463.914 211.422 455.996 195.371C455.996 195.371 450.734 199.948 427.018 208.759C373.66 221.735 353.63 231.427 351.496 252.617C351.496 279.557 412.242 281.364 431.615 279.721Z" stroke="#161616" stroke-width="1.03095" stroke-linecap="round" stroke-linejoin="round"/>
<path d="M353.325 251.358C349.444 286.516 416.132 328.018 416.132 328.018C416.132 328.018 431.499 338.137 453.907 326.738C465.952 320.612 475.396 311.668 473.689 301.302C461.805 290.675 440.146 281.104 433.182 279.23C433.182 279.23 417.318 272.671 406.854 268.135" fill="#B9B9B9"/>
<path d="M353.325 251.358C349.444 286.516 416.132 328.018 416.132 328.018C416.132 328.018 431.499 338.137 453.907 326.738C465.952 320.612 475.396 311.668 473.689 301.302C461.805 290.675 440.146 281.104 433.182 279.23C433.182 279.23 417.318 272.671 406.854 268.135" stroke="#161616" stroke-width="1.03095" stroke-linecap="round" stroke-linejoin="round"/>
<path d="M415.503 326.507C415.503 326.507 391.975 344.609 401.737 369.009L490.144 333.611C490.144 333.611 486.739 313.742 473.598 301.312C473.598 301.312 465.879 298.723 453.564 307.723C442.114 316.091 430.794 325.509 415.503 326.507Z" fill="white"/>
<path d="M415.503 326.507C415.503 326.507 391.975 344.609 401.737 369.009L490.144 333.611C490.144 333.611 486.739 313.742 473.598 301.312C473.598 301.312 465.879 298.723 453.564 307.723C442.114 316.091 430.794 325.509 415.503 326.507Z" stroke="#161616" stroke-width="1.03095" stroke-linecap="round" stroke-linejoin="round"/>
<path d="M400.283 362.569L401.986 368.345L489.708 333.383L488.213 327.531L400.283 362.569Z" fill="#FFB39B"/>
<path d="M399.994 362.629L488.141 327.333" stroke="#161616" stroke-width="1.03095" stroke-linecap="round" stroke-linejoin="round"/>
<path d="M411.492 358.028L413.933 364.128" stroke="#161616" stroke-width="1.03095" stroke-linecap="round" stroke-linejoin="round"/>
<path d="M414.539 356.807L416.979 362.908" stroke="#161616" stroke-width="1.03095" stroke-linecap="round" stroke-linejoin="round"/>
<path d="M426.732 351.924L429.173 358.024" stroke="#161616" stroke-width="1.03095" stroke-linecap="round" stroke-linejoin="round"/>
<path d="M429.781 350.704L432.222 356.804" stroke="#161616" stroke-width="1.03095" stroke-linecap="round" stroke-linejoin="round"/>
<path d="M432.83 349.483L435.27 355.583" stroke="#161616" stroke-width="1.03095" stroke-linecap="round" stroke-linejoin="round"/>
<path d="M454.17 340.938L456.61 347.038" stroke="#161616" stroke-width="1.03095" stroke-linecap="round" stroke-linejoin="round"/>
<path d="M466.363 336.055L468.804 342.155" stroke="#161616" stroke-width="1.03095" stroke-linecap="round" stroke-linejoin="round"/>
<path d="M469.412 334.834L471.852 340.934" stroke="#161616" stroke-width="1.03095" stroke-linecap="round" stroke-linejoin="round"/>
<path d="M481.605 329.951L484.046 336.051" stroke="#161616" stroke-width="1.03095" stroke-linecap="round" stroke-linejoin="round"/>
<path d="M437.408 204.176C437.408 204.176 414.083 210.484 385.895 218.246C357.514 226.061 335.716 237.015 337.509 263.117C341.539 293.082 370.752 282.028 407.218 277.317C407.218 277.317 436.786 281.195 459.933 279.572C481.732 278.044 489.243 264.22 491.359 253.027C493.687 240.864 486.493 218.098 456.998 195.821L437.408 204.176Z" fill="#B9B9B9"/>
<path d="M437.408 204.176C437.408 204.176 414.083 210.484 385.895 218.246C357.514 226.061 335.716 237.015 337.509 263.117C341.539 293.082 370.752 282.028 407.218 277.317C407.218 277.317 436.786 281.195 459.933 279.572C481.732 278.044 489.243 264.22 491.359 253.027C493.687 240.864 486.493 218.098 456.998 195.821L437.408 204.176Z" stroke="#161616" stroke-width="1.03095" stroke-linecap="round" stroke-linejoin="round"/>
<path d="M340.494 273.181C347.86 287.704 363.188 309.115 387.413 337.296C387.413 337.296 402.636 350.676 418.811 352.654C433.586 354.461 453.365 348.921 450.37 335.554C445.203 312.501 396.856 260.865 386.474 253.528" fill="#B9B9B9"/>
<path d="M340.494 273.181C347.86 287.704 363.188 309.115 387.413 337.296C387.413 337.296 402.636 350.676 418.811 352.654C433.586 354.461 453.365 348.921 450.37 335.554C445.203 312.501 396.856 260.865 386.474 253.528" stroke="#161616" stroke-width="1.03095" stroke-linecap="round" stroke-linejoin="round"/>
<path d="M387.169 337.381C387.169 337.381 358.602 345.441 358.602 371.724H453.825C453.825 371.724 458.045 352.01 450.461 335.585C450.461 335.585 444.257 330.312 429.481 334.09C415.742 337.602 401.735 342.139 387.169 337.381Z" fill="white"/>
<path d="M387.169 337.381C387.169 337.381 358.602 345.441 358.602 371.724H453.825C453.825 371.724 458.045 352.01 450.461 335.585C450.461 335.585 444.257 330.312 429.481 334.09C415.742 337.602 401.735 342.139 387.169 337.381Z" stroke="#161616" stroke-width="1.03095" stroke-linecap="round" stroke-linejoin="round"/>
<path d="M359.643 365.203L359.078 371.199L453.506 371.349L454.292 365.36L359.643 365.203Z" fill="#FFB39B"/>
<path d="M359.352 365.153L454.298 365.149" stroke="#161616" stroke-width="1.03095" stroke-linecap="round" stroke-linejoin="round"/>
<path d="M371.736 365.153V371.723" stroke="#161616" stroke-width="1.03095" stroke-linecap="round" stroke-linejoin="round"/>
<path d="M375.02 365.153V371.723" stroke="#161616" stroke-width="1.03095" stroke-linecap="round" stroke-linejoin="round"/>
<path d="M388.152 365.153V371.723" stroke="#161616" stroke-width="1.03095" stroke-linecap="round" stroke-linejoin="round"/>
<path d="M391.438 365.153V371.723" stroke="#161616" stroke-width="1.03095" stroke-linecap="round" stroke-linejoin="round"/>
<path d="M394.721 365.153V371.723" stroke="#161616" stroke-width="1.03095" stroke-linecap="round" stroke-linejoin="round"/>
<path d="M417.705 365.153V371.723" stroke="#161616" stroke-width="1.03095" stroke-linecap="round" stroke-linejoin="round"/>
<path d="M430.84 365.153V371.723" stroke="#161616" stroke-width="1.03095" stroke-linecap="round" stroke-linejoin="round"/>
<path d="M434.123 365.153V371.723" stroke="#161616" stroke-width="1.03095" stroke-linecap="round" stroke-linejoin="round"/>
<path d="M447.258 365.153V371.723" stroke="#161616" stroke-width="1.03095" stroke-linecap="round" stroke-linejoin="round"/>
<path d="M421.79 211.391C421.79 211.391 406.864 197.271 405.83 187.881C404.797 178.492 407.915 171.05 408.028 159.918C408.081 154.565 405.8 150.536 411.71 147.17C414.899 145.354 421.845 141.501 427.546 141.891C436.196 142.485 435.482 145.634 438.517 150.429C447.89 165.23 451.469 166.111 457.172 195.931C457.172 195.931 436.88 211.251 421.79 211.391Z" fill="#CFD9F1"/>
<path d="M421.79 211.391C421.79 211.391 406.864 197.271 405.83 187.881C404.797 178.492 407.915 171.05 408.028 159.918C408.081 154.565 405.8 150.536 411.71 147.17C414.899 145.354 421.845 141.501 427.546 141.891C436.196 142.485 435.482 145.634 438.517 150.429C447.89 165.23 451.469 166.111 457.172 195.931C457.172 195.931 436.88 211.251 421.79 211.391Z" stroke="#161616" stroke-width="1.03095" stroke-linecap="round" stroke-linejoin="round"/>
<path d="M408.296 140.092L412.559 153.633C412.559 153.633 424.899 156.013 430.377 148.605L424.97 133.288" fill="#FEECDF"/>
<path d="M408.296 140.092L412.559 153.633C412.559 153.633 424.899 156.013 430.377 148.605L424.97 133.288" stroke="#161616" stroke-width="1.03095" stroke-linecap="round" stroke-linejoin="round"/>
<path d="M392.389 110.975C392.389 110.975 385.196 118.457 389.791 130.124C389.791 130.124 390.63 133.094 391.776 135.71C391.776 135.71 397.703 149.174 411.145 146.816C424.587 144.458 427.621 131.835 427.85 131.41C427.85 131.41 429.255 122.386 421.485 114.454C419.051 111.968 414.242 107.903 408.045 106.402C398.659 104.128 392.389 110.975 392.389 110.975Z" fill="#FEECDF"/>
<path d="M392.389 110.975C392.389 110.975 385.196 118.457 389.791 130.124C389.791 130.124 390.63 133.094 391.776 135.71C391.776 135.71 397.703 149.174 411.145 146.816C424.587 144.458 427.621 131.835 427.85 131.41C427.85 131.41 429.255 122.386 421.485 114.454C419.051 111.968 414.242 107.903 408.045 106.402C398.659 104.128 392.389 110.975 392.389 110.975Z" stroke="#161616" stroke-width="1.03095" stroke-linecap="round" stroke-linejoin="round"/>
<path d="M398.593 137.341C398.766 137.382 398.974 138.835 398.8 139.467C398.597 140.167 397.955 141.337 396.53 141.917C396.416 141.982 396.24 141.776 396.159 141.597C396.077 141.419 398.806 140.323 398.593 137.341Z" fill="black"/>
<path d="M398.593 137.341C398.766 137.382 398.974 138.835 398.8 139.467C398.597 140.167 397.955 141.337 396.53 141.917C396.416 141.982 396.24 141.776 396.159 141.597C396.077 141.419 398.806 140.323 398.593 137.341Z" stroke="#161616" stroke-width="1.03095" stroke-linecap="round" stroke-linejoin="round"/>
<path d="M393.818 125.854C393.602 125.288 393.886 124.655 394.451 124.439C395.016 124.223 395.649 124.507 395.864 125.072C396.08 125.637 395.797 126.27 395.232 126.486C394.667 126.702 394.034 126.42 393.818 125.855C393.818 125.854 393.818 125.854 393.818 125.854Z" fill="#161616"/>
<path d="M403.741 136.216C402.532 133.044 404.123 129.49 407.294 128.279C410.466 127.068 414.018 128.659 415.227 131.831C416.437 135.003 414.846 138.556 411.676 139.768C408.504 140.98 404.952 139.39 403.742 136.218C403.741 136.217 403.741 136.217 403.741 136.216Z" fill="#FFB29B"/>
<path d="M390.298 130.142C389.414 130.059 385.98 130.059 385.862 132.354C385.732 134.86 389.912 135.647 392.251 135.725C394.59 135.802 393.037 130.401 390.298 130.142Z" fill="#FEECDF"/>
<path d="M389.793 130.121C389.793 130.121 386.03 129.849 385.862 132.354C385.694 134.858 389.429 135.434 391.778 135.708" stroke="#161616" stroke-width="1.03095" stroke-linecap="round" stroke-linejoin="round"/>
<mask id="mask3_513_12836" style="mask-type:alpha" maskUnits="userSpaceOnUse" x="396" y="137" width="3" height="5">
<path d="M398.594 137.34C398.767 137.381 398.975 138.835 398.801 139.466C398.597 140.167 397.955 141.337 396.53 141.917C396.416 141.982 396.24 141.775 396.159 141.597C396.078 141.419 398.806 140.323 398.594 137.34Z" fill="black"/>
</mask>
<g mask="url(#mask3_513_12836)">
<path d="M396.923 141.394C396.737 142.053 397.85 143.6 398.598 143.635C399.345 143.671 399.505 143.503 400.347 142.622C401.189 141.742 397.11 140.734 396.923 141.394Z" fill="#FFB39B"/>
<path d="M397.898 137.75C397.36 137.522 394.658 140.115 395.122 140.741C395.586 141.367 395.675 142.17 396.156 141.608C396.636 141.045 398.982 139.647 399.011 139.005C399.04 138.363 398.437 137.978 397.898 137.75Z" fill="white"/>
</g>
<path d="M398.594 137.34C398.767 137.381 398.975 138.835 398.801 139.466C398.597 140.167 397.955 141.337 396.53 141.917C396.416 141.982 396.24 141.775 396.159 141.597C396.078 141.419 398.806 140.323 398.594 137.34Z" stroke="#161616" stroke-width="1.03095" stroke-linecap="round" stroke-linejoin="round"/>
<path d="M429.437 102.855C422.325 105.598 421.306 112.678 421.332 116.009C421.332 116.009 417.068 126.856 404.678 120.404C393.839 114.761 394.531 109.886 387.757 109.165C387.757 109.165 405.206 89.576 429.437 102.855Z" fill="#FFB39B"/>
<path d="M429.437 102.856C422.325 105.599 421.306 112.678 421.332 116.01C421.332 116.01 417.068 126.856 404.678 120.405C393.839 114.762 394.532 109.886 387.758 109.165" stroke="#161616" stroke-width="1.03095" stroke-linecap="round" stroke-linejoin="round"/>
<path d="M427.553 131.301C427.553 131.301 442.154 130.227 444.382 116.785C446.61 103.344 436.623 100.089 429.439 102.859C422.326 105.602 421.273 112.953 421.299 116.285" fill="#FEECDF"/>
<path d="M427.553 131.301C427.553 131.301 442.154 130.227 444.382 116.785C446.61 103.344 436.623 100.089 429.439 102.859C422.326 105.602 421.273 112.953 421.299 116.285" stroke="#161616" stroke-width="1.03095" stroke-linecap="round" stroke-linejoin="round"/>
<path d="M428.624 125.351C428.624 125.351 427.353 114.552 436.3 105.441" stroke="#161616" stroke-width="1.03095" stroke-linecap="round" stroke-linejoin="round"/>
<path d="M429.12 119.315C429.12 119.315 431.529 118.033 434.29 118.893" stroke="#161616" stroke-width="1.03095" stroke-linecap="round" stroke-linejoin="round"/>
<path d="M423.281 190.378C423.281 190.378 428.393 194.969 429.975 201.302C433.356 214.831 440.576 230.995 448.019 232.704C461.248 235.743 467.024 225.44 468.022 221.604C469.133 217.333 469.978 210.18 463.916 201.495C458.971 194.411 454.719 192.576 452.777 189.208C446.333 178.033 445.728 167.442 436.855 160.943" fill="#CFD9F1"/>
<path d="M423.281 190.378C423.281 190.378 428.393 194.969 429.975 201.302C433.356 214.831 440.576 230.995 448.019 232.704C461.248 235.743 467.024 225.44 468.022 221.604C469.133 217.333 469.978 210.18 463.916 201.495C458.971 194.411 454.719 192.576 452.777 189.208C446.333 178.033 445.728 167.442 436.855 160.943" stroke="#161616" stroke-width="1.03095" stroke-linecap="round" stroke-linejoin="round"/>
<path d="M388.545 206.061C388.545 206.061 380.384 206.631 374.206 203.38C368.315 200.28 362.085 194.745 362.085 194.745C362.085 194.745 359.223 189.251 366.286 182.379C373.75 179.953 380.361 179.257 382.321 180.759C388.637 185.599 395.995 191.364 398.769 192.259L406.429 194.591L398.565 210.674L388.545 206.061Z" fill="#FEECDF"/>
<path d="M388.545 206.061C388.545 206.061 380.384 206.631 374.206 203.38C368.315 200.28 362.085 194.745 362.085 194.745C362.085 194.745 359.223 189.251 366.286 182.379C373.75 179.953 380.361 179.257 382.321 180.759C388.637 185.599 395.995 191.364 398.769 192.259L406.429 194.591L398.565 210.674L388.545 206.061Z" stroke="#161616" stroke-width="1.03095" stroke-linecap="round" stroke-linejoin="round"/>
<path d="M374.8 183.834C373.788 183.02 370.185 185.512 369.157 186.599C368.249 187.559 367.914 188.76 365.549 187.145C363.184 185.53 366.334 186.652 368.884 182.329C371.273 178.566 375.908 175.997 382.293 180.738" fill="#FEECDF"/>
<path d="M374.8 183.834C373.788 183.02 370.185 185.512 369.157 186.599C368.249 187.559 367.914 188.76 365.549 187.145C363.184 185.53 366.334 186.652 368.884 182.329C371.273 178.566 375.908 175.997 382.293 180.738" stroke="#161616" stroke-width="1.03095" stroke-linecap="round" stroke-linejoin="round"/>
<path d="M368.766 189.26C367.338 188.451 363.45 187.874 362.205 187.207C359.83 189.335 354.74 192.2 352.858 189.068C350.937 186.337 356.118 179.94 360.52 177.931C362.486 177.034 367.534 175.805 376.382 184.103" fill="#FEECDF"/>
<path d="M368.766 189.26C367.338 188.451 363.45 187.874 362.205 187.207C359.83 189.335 354.74 192.2 352.858 189.068C350.937 186.337 356.118 179.94 360.52 177.931C362.486 177.034 367.534 175.805 376.382 184.103" stroke="#161616" stroke-width="1.03095" stroke-linecap="round" stroke-linejoin="round"/>
<path d="M362.258 194.947C359.642 196.466 354.488 198.964 352.262 195.292C350.638 193.119 352.837 188.833 357.28 186.33C362.322 182.792 365.39 184.498 372.037 190.258" fill="#FEECDF"/>
<path d="M362.258 194.947C359.642 196.466 354.488 198.964 352.262 195.292C350.638 193.119 352.837 188.833 357.28 186.33C362.322 182.792 365.39 184.498 372.037 190.258" stroke="#161616" stroke-width="1.03095" stroke-linecap="round" stroke-linejoin="round"/>
<path d="M360.404 193.252C360.404 193.252 362.722 195.435 365.074 197.264L360.404 193.252Z" fill="#FEECDF"/>
<path d="M360.404 193.252C360.404 193.252 362.722 195.435 365.074 197.264" stroke="#161616" stroke-width="1.03095" stroke-linecap="round" stroke-linejoin="round"/>
<path d="M460.522 231.391C456.014 234.405 449.113 236.321 438.101 233.596C432.152 232.125 414.035 224.013 399.696 218.964C385.357 213.915 384.242 209.711 386.971 203.996C389.152 199.428 397.401 197.232 397.401 197.232C398.286 196.232 398.629 194.195 401.19 192.602C407.283 188.816 413.91 192.704 418.624 195.598C423.339 198.491 432.217 199.606 432.217 199.606C432.217 199.606 449.383 200.085 454.925 205.741" fill="#CFD9F1"/>
<path d="M460.522 231.391C456.014 234.405 449.113 236.321 438.101 233.596C432.152 232.125 414.035 224.013 399.696 218.964C385.357 213.915 384.242 209.711 386.971 203.996C389.152 199.428 397.401 197.232 397.401 197.232C398.286 196.232 398.629 194.195 401.19 192.602C407.283 188.816 413.91 192.704 418.624 195.598C423.339 198.491 432.217 199.606 432.217 199.606C432.217 199.606 449.383 200.085 454.925 205.741" stroke="#161616" stroke-width="1.03095" stroke-linecap="round" stroke-linejoin="round"/>
<path d="M418.773 345.42H500.863V338.849H418.773V345.42Z" fill="white"/>
<path d="M418.773 345.42H500.863V338.849H418.773V345.42Z" stroke="#161616" stroke-width="1.03095" stroke-linecap="round" stroke-linejoin="round"/>
<path d="M418.773 279.714V286.285H500.863V279.714H418.773Z" fill="white"/>
<path d="M418.773 279.714V286.285H500.863V279.714H418.773Z" stroke="#161616" stroke-width="1.03095" stroke-linecap="round" stroke-linejoin="round"/>
<path d="M435.191 286.285L405.639 371.702H412.206L441.758 286.285H435.191Z" fill="white"/>
<path d="M435.191 286.285L405.639 371.702H412.206L441.758 286.285H435.191Z" stroke="#161616" stroke-width="1.03095" stroke-linecap="round" stroke-linejoin="round"/>
<path d="M477.877 286.285L507.429 371.702H513.996L484.444 286.285H477.877Z" fill="white"/>
<path d="M477.877 286.285L507.429 371.702H513.996L484.444 286.285H477.877Z" stroke="#161616" stroke-width="1.03095" stroke-linecap="round" stroke-linejoin="round"/>
</g>
</g>
</g>
<defs>
<clipPath id="clip0_513_12836">
<rect width="637" height="408" fill="white"/>
</clipPath>
</defs>
</svg>
