<svg width="1533" height="751" viewBox="0 0 1533 751" fill="none" xmlns="http://www.w3.org/2000/svg">
<path d="M7.2804 78.6048C7.62026 49.0376 7.79018 34.254 17.0222 25.0313C26.2542 15.8087 41.038 15.6538 70.6056 15.344L1466.8 0.714638C1498.77 0.379647 1514.75 0.212151 1524.34 10.2159C1533.92 20.2197 1533.08 36.1833 1531.38 68.1106L1498.31 689.755C1496.75 719.163 1495.96 733.867 1486.41 742.691C1476.85 751.514 1462.13 751.12 1432.69 750.333L63.0085 713.686C33.2674 712.89 18.3968 712.492 9.30418 703.045C0.21152 693.598 0.382495 678.723 0.724446 648.973L7.2804 78.6048Z" fill="url(#paint0_linear_717_8332)"/>
<defs>
<linearGradient id="paint0_linear_717_8332" x1="-1.41451e-05" y1="337.5" x2="1459.5" y2="627.5" gradientUnits="userSpaceOnUse">
<stop stop-color="#FEE4D1"/>
<stop offset="1" stop-color="#FBC6B5"/>
</linearGradient>
</defs>
</svg>
