<svg width="1394" height="1391" viewBox="0 0 1394 1391" fill="none" xmlns="http://www.w3.org/2000/svg">
<path d="M689.268 19.4752C690.027 9.62835 704.462 9.62833 705.221 19.4752L731.7 362.979C732.368 371.652 744.445 373.178 747.249 364.944L858.322 38.8164C861.506 29.4676 875.487 33.0574 873.774 42.7837L813.994 382.081C812.485 390.647 823.803 395.128 828.567 387.851L1017.25 99.5918C1022.66 91.3286 1035.31 98.2825 1031.23 107.277L888.953 421.048C885.361 428.97 895.209 436.125 901.633 430.261L1156.08 197.983C1163.37 191.324 1173.9 201.206 1167.71 208.903L951.866 477.433C946.417 484.213 954.176 493.592 961.857 489.509L1266.07 327.807C1274.8 323.172 1282.53 335.359 1274.62 341.276L998.781 547.692C991.816 552.903 996.999 563.917 1005.45 561.873L1340.33 480.907C1349.93 478.587 1354.39 492.315 1345.26 496.079L1026.75 627.411C1018.71 630.727 1020.99 642.683 1029.68 642.806L1374.17 647.664C1384.05 647.803 1384.96 662.209 1375.18 663.585L1034.01 711.58C1025.4 712.792 1024.63 724.94 1033.03 727.222L1365.49 817.598C1375.02 820.189 1372.31 834.368 1362.5 833.268L1020.12 794.912C1011.47 793.944 1007.71 805.52 1015.27 809.818L1314.81 980.034C1323.4 984.913 1317.25 997.974 1308.02 994.468L985.932 872.17C977.8 869.082 971.277 879.359 977.534 885.403L1225.33 1124.76C1232.43 1131.62 1223.23 1142.75 1215.16 1137.05L933.608 938.499C926.5 933.486 917.627 941.819 922.184 949.228L1102.67 1242.69C1107.84 1251.1 1096.16 1259.59 1089.76 1252.07L866.434 989.732C860.795 983.109 850.129 988.973 852.7 997.283L954.533 1326.41C957.452 1335.85 944.031 1341.16 939.7 1332.28L788.628 1022.65C784.814 1014.83 773.024 1017.86 773.448 1026.55L790.231 1370.66C790.712 1380.53 776.391 1382.34 774.404 1372.66L705.081 1035.18C703.331 1026.66 691.159 1026.66 689.408 1035.18L620.086 1372.66C618.099 1382.34 603.778 1380.53 604.259 1370.66L621.041 1026.55C621.465 1017.86 609.675 1014.83 605.861 1022.65L454.789 1332.28C450.459 1341.16 437.038 1335.85 439.957 1326.41L541.79 997.283C544.361 988.973 533.694 983.109 528.056 989.732L304.727 1252.07C298.325 1259.59 286.647 1251.1 291.821 1242.69L472.306 949.228C476.863 941.819 467.989 933.486 460.881 938.499L179.328 1137.05C171.257 1142.75 162.056 1131.62 169.159 1124.76L416.956 885.403C423.212 879.359 416.69 869.082 408.558 872.17L86.4719 994.468C77.239 997.974 71.0931 984.913 79.6796 980.034L379.217 809.818C386.78 805.52 383.018 793.944 374.374 794.912L31.9927 833.268C22.178 834.368 19.4732 820.189 29.0034 817.598L361.462 727.222C369.855 724.94 369.091 712.792 360.477 711.58L19.3137 663.585C9.53397 662.209 10.4403 647.803 20.3154 647.664L364.804 642.806C373.502 642.683 375.783 630.727 367.741 627.411L49.2317 496.079C40.1014 492.315 44.5619 478.587 54.1614 480.907L389.036 561.873C397.49 563.917 402.673 552.903 395.709 547.692L119.867 341.276C111.959 335.359 119.694 323.172 128.415 327.807L432.633 489.509C440.313 493.592 448.072 484.213 442.623 477.433L226.78 208.903C220.593 201.206 231.116 191.324 238.409 197.983L492.857 430.261C499.281 436.125 509.128 428.97 505.536 421.048L363.255 107.277C359.177 98.2825 371.826 91.3286 377.235 99.5918L565.923 387.851C570.687 395.128 582.004 390.647 580.495 382.081L520.716 42.7837C519.002 33.0574 532.983 29.4676 536.167 38.8164L647.24 364.944C650.045 373.177 662.121 371.652 662.789 362.979L689.268 19.4752Z" stroke="white" stroke-opacity="0.29" stroke-width="23"/>
</svg>
