<svg width="357" height="93" viewBox="0 0 357 93" fill="none" xmlns="http://www.w3.org/2000/svg">
<path d="M112.181 47.0413C113.257 47.2209 114.764 47.3287 116.557 47.3287C120.611 47.3287 123.05 46.4666 124.485 44.8863C125.633 43.701 126.278 42.1207 126.278 40.1452C126.278 37.4514 124.808 35.1527 122.01 34.3625V34.2189C124.377 33.1773 125.489 31.0941 125.489 28.939C125.489 27.2509 124.951 25.6346 123.66 24.5571C121.974 23.1204 119.786 22.8331 117.526 22.8331C115.517 22.8331 113.616 22.9768 112.181 23.3V47.0413ZM116.88 26.4967C117.167 26.3889 117.598 26.353 118.136 26.353C120.037 26.353 120.862 27.7178 120.862 29.4778C120.862 31.4532 119.571 32.8899 117.885 32.8899H116.88V26.4967ZM116.88 36.3739H117.885C119.75 36.3739 121.4 37.631 121.4 40.0734C121.4 42.5158 119.858 43.701 117.92 43.701C117.526 43.701 117.167 43.701 116.88 43.6292V36.3739Z" fill="#E43949"/>
<path d="M135.59 22.9409V47.1491H140.289V37.0204H145.203V47.1491H149.902V22.9409H145.203V32.6385H140.289V22.9409H135.59Z" fill="#E43949"/>
<path d="M165.637 36.6253C165.637 33.0336 164.776 29.2982 159.431 29.2982C156.956 29.2982 154.948 30.0884 153.943 30.6271L154.804 33.8238C155.88 33.1773 156.992 32.7822 158.391 32.7822C160.077 32.7822 160.866 33.7879 160.866 35.1886V35.5837C156.885 35.6196 152.831 37.4873 152.831 42.1207C152.831 45.2095 154.804 47.4364 157.459 47.4364C159.001 47.4364 160.4 46.754 161.333 45.425H161.44L161.691 47.1491H165.888C165.709 45.9638 165.637 44.5271 165.637 43.1263V36.6253ZM161.01 41.6537C161.01 41.977 160.974 42.2284 160.902 42.4798C160.579 43.5214 159.754 43.9884 158.965 43.9884C158.248 43.9884 157.279 43.3418 157.279 41.6178C157.279 39.1754 159.467 38.6367 161.01 38.6008V41.6537Z" fill="#E43949"/>
<path d="M171.121 29.5855V34.3625C171.121 36.3021 170.942 38.3134 170.547 40.1093C170.296 41.3664 169.865 42.7313 169.256 43.701L167.821 43.7729L168 51.9979H171.551L171.767 47.1491H180.268L180.519 51.9979H184.035L184.214 43.7729L182.6 43.701V29.5855H171.121ZM175.246 33.2132H177.972V43.5933H173.74C174.278 42.5158 174.636 41.2946 174.816 40.0375C175.103 38.2775 175.246 36.4098 175.246 34.6858V33.2132Z" fill="#E43949"/>
<path d="M198.653 40.0375C198.725 39.5346 198.797 38.8522 198.797 37.5951C198.797 32.2434 196.609 29.2623 192.842 29.2623C188.896 29.2623 185.812 32.7822 185.812 38.7085C185.812 44.2039 188.43 47.3646 193.237 47.3646C194.995 47.3646 196.824 47.0413 198.008 46.5744L197.398 43.1982C196.537 43.4855 195.389 43.7729 194.062 43.7729C192.017 43.7729 190.403 42.7672 190.367 40.0375H198.653ZM190.367 36.7331C190.403 34.9731 191.049 32.7103 192.555 32.7103C193.954 32.7103 194.528 34.4703 194.528 36.7331H190.367Z" fill="#E43949"/>
<path d="M199.982 29.5855L204.394 37.4155C202.816 38.0261 201.955 40.1811 201.489 42.1925C201.202 43.5214 200.52 45.9997 199.982 47.1491H204.538C205.04 46.2152 205.291 44.7785 205.686 42.9827C206.116 41.0431 206.726 39.7142 207.945 39.7142H208.34V47.1491H212.86V39.7142H213.254C214.295 39.7142 215.084 40.9713 215.514 42.9108C215.873 44.7067 216.196 46.2511 216.626 47.1491H221.218C220.715 45.9997 220.034 43.5214 219.747 42.1207C219.281 39.8579 218.384 38.0261 216.806 37.4155L221.218 29.5855H216.303L213.577 36.7331H212.86V29.5855H208.34V36.7331H207.658L204.896 29.5855H199.982Z" fill="#E43949"/>
<path d="M223.177 29.5855V47.1491H227.876V40.217H231.57V47.1491H236.27V29.5855H231.57V36.2302H227.876V29.5855H223.177Z" fill="#E43949"/>
<path d="M239.714 29.5855V47.0054C241.041 47.185 242.799 47.3287 244.306 47.3287C246.279 47.3287 248.861 46.9336 250.691 45.6046C251.982 44.6349 252.915 43.1263 252.915 40.8995C252.915 36.8767 249.651 35.045 246.207 35.045C245.525 35.045 244.951 35.0809 244.377 35.1886V29.5855H239.714ZM244.377 38.5649C244.7 38.493 244.987 38.493 245.31 38.493C246.601 38.493 248.18 39.2832 248.18 41.1868C248.18 43.0186 246.637 43.8806 245.346 43.8806C245.023 43.8806 244.664 43.8806 244.377 43.8447V38.5649ZM254.35 29.5855V47.1491H259.013V29.5855H254.35Z" fill="#E43949"/>
<path d="M261.055 29.5855L264.929 38.4212L261.019 47.1491H265.718L266.794 43.8447C267.045 42.9468 267.332 42.0488 267.584 41.1509H267.655C267.906 42.0488 268.157 42.9468 268.48 43.8447L269.7 47.1491H274.794L270.776 38.2416L274.722 29.5855H270.023L268.983 32.7103C268.66 33.6801 268.409 34.7935 268.157 35.6556H268.086C267.835 34.8295 267.548 33.7519 267.225 32.7103L266.149 29.5855H261.055Z" fill="#E43949"/>
<path d="M283.175 47.1491H287.875V38.1338C288.197 38.1698 288.484 38.1698 288.807 38.1698C290.78 38.1698 293.183 37.4514 294.69 35.8351C295.945 34.5062 296.735 32.6385 296.735 30.0166C296.735 27.9693 296.089 25.9579 294.654 24.7008C293.112 23.2282 290.888 22.8331 288.09 22.8331C286.296 22.8331 284.503 23.0127 283.175 23.3V47.1491ZM287.875 26.8199C288.161 26.7122 288.592 26.6403 289.022 26.6403C291.211 26.6403 292.071 28.2925 292.071 30.4116C292.071 32.6744 291.031 34.3625 288.664 34.3625C288.377 34.3625 288.126 34.3625 287.875 34.3266V26.8199Z" fill="#E43949"/>
<path d="M298.127 29.5855L302.97 45.8561C303.042 46.0716 303.113 46.2871 303.113 46.5026C303.113 46.754 303.006 46.9695 302.862 47.2568C302.539 48.0111 302.037 48.7654 301.391 49.3759C300.674 50.0225 299.849 50.5253 299.06 50.8126L300.495 54.8713C301.212 54.6917 302.97 53.8656 304.476 52.1057C306.378 49.8788 307.525 46.4666 308.386 43.1623L311.973 29.5855H307.346L305.911 38.8163C305.768 39.786 305.624 40.7917 305.481 41.6897H305.409C305.266 40.7199 305.122 39.786 304.907 38.7444L303.185 29.5855H298.127Z" fill="#E43949"/>
<path d="M313.825 29.5855V47.1491H318.417V39.8938H318.74C319.923 39.8938 320.641 41.115 321.035 42.8749C321.43 44.6708 321.789 46.1793 322.327 47.1491H326.99C326.452 45.9638 325.734 43.4855 325.447 42.1566C324.981 39.8938 324.084 37.7388 322.363 37.1282L326.846 29.5855H321.968L318.919 36.5894H318.417V29.5855H313.825Z" fill="#E43949"/>
<path d="M341.185 36.6253C341.185 33.0336 340.324 29.2982 334.98 29.2982C332.505 29.2982 330.496 30.0884 329.491 30.6271L330.352 33.8238C331.428 33.1773 332.54 32.7822 333.939 32.7822C335.625 32.7822 336.415 33.7879 336.415 35.1886V35.5837C332.433 35.6196 328.379 37.4873 328.379 42.1207C328.379 45.2095 330.352 47.4364 333.007 47.4364C334.549 47.4364 335.948 46.754 336.881 45.425H336.988L337.24 47.1491H341.436C341.257 45.9638 341.185 44.5271 341.185 43.1263V36.6253ZM336.558 41.6537C336.558 41.977 336.522 42.2284 336.45 42.4798C336.128 43.5214 335.302 43.9884 334.513 43.9884C333.796 43.9884 332.827 43.3418 332.827 41.6178C332.827 39.1754 335.016 38.6367 336.558 38.6008V41.6537Z" fill="#E43949"/>
<path d="M343.261 29.5855L347.135 38.4212L343.226 47.1491H347.925L349.001 43.8447C349.252 42.9468 349.539 42.0488 349.79 41.1509H349.862C350.113 42.0488 350.364 42.9468 350.687 43.8447L351.906 47.1491H357L352.982 38.2416L356.928 29.5855H352.229L351.189 32.7103C350.866 33.6801 350.615 34.7935 350.364 35.6556H350.292C350.041 34.8295 349.754 33.7519 349.431 32.7103L348.355 29.5855H343.261Z" fill="#E43949"/>
<path d="M122.614 74.8567H124.245L123.449 62.0609H121.344L119.069 68.2499C118.5 69.8637 118.045 71.2685 117.704 72.5595H117.666C117.325 71.2306 116.907 69.8257 116.376 68.2499L114.196 62.0609H112.091L111.2 74.8567H112.774L113.115 69.37C113.229 67.4336 113.324 65.3073 113.362 63.7126H113.4C113.76 65.2314 114.253 66.8641 114.86 68.6866L116.945 74.7807H118.197L120.453 68.5727C121.098 66.8071 121.61 65.1934 122.065 63.7126H122.103C122.103 65.2883 122.216 67.4526 122.311 69.2372L122.614 74.8567Z" fill="#E43949"/>
<path d="M126.761 65.668V74.8567H128.43V70.699H132.772V74.8567H134.44V65.668H132.772V69.37H128.43V65.668H126.761Z" fill="#E43949"/>
<path d="M141.15 65.4782C138.629 65.4782 136.6 67.2817 136.6 70.3383C136.6 73.243 138.534 75.0655 140.999 75.0655C143.198 75.0655 145.568 73.5847 145.568 70.1864C145.568 67.3956 143.786 65.4782 141.15 65.4782ZM141.112 66.7312C143.084 66.7312 143.862 68.6866 143.862 70.2433C143.862 72.3127 142.667 73.8125 141.075 73.8125C139.444 73.8125 138.306 72.2937 138.306 70.2813C138.306 68.5537 139.16 66.7312 141.112 66.7312Z" fill="#E43949"/>
<path d="M147.726 65.668V74.8567H149.376V66.9969H153.358V65.668H147.726Z" fill="#E43949"/>
<path d="M158.671 65.4782C156.149 65.4782 154.12 67.2817 154.12 70.3383C154.12 73.243 156.054 75.0655 158.519 75.0655C160.719 75.0655 163.089 73.5847 163.089 70.1864C163.089 67.3956 161.306 65.4782 158.671 65.4782ZM158.633 66.7312C160.605 66.7312 161.382 68.6866 161.382 70.2433C161.382 72.3127 160.188 73.8125 158.595 73.8125C156.965 73.8125 155.827 72.2937 155.827 70.2813C155.827 68.5537 156.68 66.7312 158.633 66.7312Z" fill="#E43949"/>
<path d="M165.228 65.668V74.8567H166.897V66.978H171.163V74.8567H172.831V65.668H165.228Z" fill="#E43949"/>
<path d="M175.638 78.6157H177.287V73.6226H177.325C177.875 74.5339 178.937 75.0655 180.15 75.0655C182.312 75.0655 184.34 73.4328 184.34 70.1294C184.34 67.3577 182.672 65.4782 180.435 65.4782C178.937 65.4782 177.837 66.1236 177.173 67.2438H177.135L177.041 65.668H175.562C175.6 66.5413 175.638 67.4905 175.638 68.6676V78.6157ZM177.287 69.5219C177.287 69.3131 177.344 69.0663 177.401 68.8575C177.704 67.6045 178.785 66.8071 179.923 66.8071C181.686 66.8071 182.653 68.3828 182.653 70.2054C182.653 72.3127 181.629 73.7555 179.866 73.7555C178.671 73.7555 177.666 72.9582 177.363 71.8001C177.306 71.5913 177.287 71.3635 177.287 71.1167V69.5219Z" fill="#E43949"/>
<path d="M190.414 65.4782C187.892 65.4782 185.864 67.2817 185.864 70.3383C185.864 73.243 187.798 75.0655 190.262 75.0655C192.462 75.0655 194.832 73.5847 194.832 70.1864C194.832 67.3956 193.05 65.4782 190.414 65.4782ZM190.376 66.7312C192.348 66.7312 193.125 68.6866 193.125 70.2433C193.125 72.3127 191.931 73.8125 190.338 73.8125C188.708 73.8125 187.57 72.2937 187.57 70.2813C187.57 68.5537 188.423 66.7312 190.376 66.7312Z" fill="#E43949"/>
<path d="M200.953 61.4154L200.972 65.5161C198.393 65.725 196.364 67.3197 196.364 70.3383C196.364 73.205 198.317 74.8756 200.972 75.0465L200.953 78.6157H202.508L202.489 75.0275C205.067 74.8567 207.096 73.2619 207.096 70.2433C207.096 67.3956 205.162 65.706 202.489 65.4971L202.508 61.4154H200.953ZM200.972 73.8884C199.152 73.6606 198.014 72.1798 198.014 70.3003C198.014 68.4018 199.133 66.883 200.972 66.6552V73.8884ZM202.489 66.6552C204.328 66.902 205.446 68.3449 205.446 70.2433C205.446 72.1228 204.328 73.6416 202.489 73.9074V66.6552Z" fill="#E43949"/>
<path d="M209.212 65.668V74.8567H211.146C212.113 73.243 213.137 71.4774 214.009 70.0535C214.559 69.1232 214.939 68.3828 215.545 67.1868H215.583C215.507 68.6866 215.469 69.465 215.469 70.9648V74.8567H217.062V65.668H215.109L212.246 70.4142C211.62 71.4774 211.317 72.1228 210.748 73.2429L210.691 73.224C210.767 71.914 210.805 70.9838 210.805 69.5409V65.668H209.212Z" fill="#E43949"/>
<path d="M220.449 65.668V69.3321C220.449 71.3824 220.354 72.6734 219.501 73.2999C219.273 73.4898 218.913 73.6227 218.591 73.6796L218.761 74.9896C219.615 74.9896 220.126 74.7807 220.581 74.42C221.776 73.6416 222.022 71.914 222.022 69.3321V66.978H225.17V74.8567H226.838V65.668H220.449Z" fill="#E43949"/>
<path d="M229.585 65.668V74.8187C230.286 74.8946 231.139 74.9516 232.049 74.9516C233.396 74.9516 235.045 74.7428 236.05 73.8884C236.638 73.3948 237.017 72.7304 237.017 71.7811C237.017 69.3321 234.837 68.6676 232.77 68.6676C232.277 68.6676 231.651 68.7056 231.253 68.7625V65.668H229.585ZM231.234 69.9776C231.632 69.9016 231.993 69.8636 232.429 69.8636C233.68 69.8636 235.349 70.2244 235.349 71.8191C235.349 73.3379 233.718 73.7555 232.486 73.7555C231.936 73.7555 231.575 73.7366 231.234 73.6796V69.9776Z" fill="#E43949"/>
<path d="M239.123 65.668V74.8567H240.791V70.699H245.133V74.8567H246.802V65.668H245.133V69.37H240.791V65.668H239.123Z" fill="#E43949"/>
<path d="M256.071 69.2182C256.071 67.3956 255.389 65.4782 252.583 65.4782C251.426 65.4782 250.307 65.8009 249.549 66.2755L249.928 67.3956C250.573 66.959 251.464 66.7122 252.336 66.7122C254.213 66.6932 254.422 68.0791 254.422 68.8195V69.0093C250.876 68.9903 248.904 70.2054 248.904 72.4266C248.904 73.7555 249.852 75.0655 251.71 75.0655C253.019 75.0655 254.005 74.42 254.516 73.6986H254.573L254.706 74.8567H256.204C256.109 74.2302 256.071 73.4518 256.071 72.6544V69.2182ZM254.46 71.7621C254.46 71.914 254.441 72.1039 254.384 72.2937C254.118 73.0721 253.341 73.8315 252.127 73.8315C251.293 73.8315 250.573 73.3379 250.573 72.2367C250.573 70.4522 252.639 70.1294 254.46 70.1674V71.7621Z" fill="#E43949"/>
<path d="M265.689 65.7439C264.893 65.63 263.831 65.5541 262.75 65.5541C261.537 65.5541 260.418 65.725 259.66 66.1806C258.958 66.5793 258.446 67.2248 258.446 68.174C258.446 69.5979 259.679 70.3383 260.873 70.4712V70.5091C260.456 70.6041 260.115 70.7939 259.83 71.0407C259.015 71.7242 258.787 72.9202 258.389 73.8125C258.219 74.2112 258.029 74.5529 257.82 74.8567H259.603C259.736 74.6288 259.868 74.382 259.982 74.0973C260.342 73.205 260.589 72.0849 261.29 71.5343C261.632 71.1926 262.106 71.0027 262.807 71.0027H264.039V74.8567H265.689V65.7439ZM264.039 69.8826C263.66 69.8826 263.319 69.8826 262.617 69.8826C261.632 69.8826 260.172 69.446 260.172 68.2689C260.172 66.9969 261.537 66.6742 262.655 66.6742C263.243 66.6742 263.622 66.7122 264.039 66.7691V69.8826Z" fill="#E43949"/>
<path d="M272.61 65.668V74.8567H274.259V70.8129H274.582C276.117 70.8129 276.971 71.4963 277.596 72.9772C277.9 73.7366 278.203 74.458 278.45 74.8567H280.194C279.777 74.1162 279.473 73.224 279.227 72.6164C278.506 70.9648 277.615 69.9776 276.136 69.8067L280.118 65.668H278.089L274.657 69.6548H274.259V65.668H272.61Z" fill="#E43949"/>
<path d="M282.808 65.668V69.3321C282.808 71.3824 282.713 72.6734 281.86 73.2999C281.632 73.4898 281.272 73.6227 280.95 73.6796L281.12 74.9896C281.974 74.9896 282.485 74.7807 282.941 74.42C284.135 73.6416 284.382 71.914 284.382 69.3321V66.978H287.529V74.8567H289.197V65.668H282.808Z" fill="#E43949"/>
<path d="M291.944 65.668V74.8567H293.878C294.845 73.243 295.868 71.4774 296.741 70.0535C297.29 69.1232 297.67 68.3828 298.276 67.1868H298.314C298.238 68.6866 298.201 69.465 298.201 70.9648V74.8567H299.793V65.668H297.84L294.977 70.4142C294.352 71.4774 294.048 72.1228 293.479 73.2429L293.423 73.224C293.498 71.914 293.536 70.9838 293.536 69.5409V65.668H291.944Z" fill="#E43949"/>
<path d="M302.537 65.668V74.8567H304.206V70.699H308.547V74.8567H310.216V65.668H308.547V69.37H304.206V65.668H302.537Z" fill="#E43949"/>
<path d="M312.982 65.668V74.8567H314.916C315.883 73.243 316.907 71.4774 317.779 70.0535C318.329 69.1232 318.708 68.3828 319.315 67.1868H319.353C319.277 68.6866 319.239 69.465 319.239 70.9648V74.8567H320.832V65.668H318.879L316.016 70.4142C315.39 71.4774 315.087 72.1228 314.518 73.2429L314.461 73.224C314.537 71.914 314.575 70.9838 314.575 69.5409V65.668H312.982Z" fill="#E43949"/>
<path d="M323.633 65.668V74.8567H325.282V70.8129H325.604C327.14 70.8129 327.993 71.4963 328.619 72.9772C328.923 73.7366 329.226 74.458 329.472 74.8567H331.217C330.8 74.1162 330.496 73.224 330.25 72.6164C329.529 70.9648 328.638 69.9776 327.159 69.8067L331.141 65.668H329.112L325.68 69.6548H325.282V65.668H323.633Z" fill="#E43949"/>
<path d="M339.432 69.2182C339.432 67.3956 338.749 65.4782 335.943 65.4782C334.787 65.4782 333.668 65.8009 332.91 66.2755L333.289 67.3956C333.933 66.959 334.825 66.7122 335.697 66.7122C337.574 66.6932 337.782 68.0791 337.782 68.8195V69.0093C334.237 68.9903 332.265 70.2054 332.265 72.4266C332.265 73.7555 333.213 75.0655 335.071 75.0655C336.379 75.0655 337.365 74.42 337.877 73.6986H337.934L338.067 74.8567H339.565C339.47 74.2302 339.432 73.4518 339.432 72.6544V69.2182ZM337.82 71.7621C337.82 71.914 337.801 72.1039 337.744 72.2937C337.479 73.0721 336.702 73.8315 335.488 73.8315C334.654 73.8315 333.933 73.3379 333.933 72.2367C333.933 70.4522 336 70.1294 337.82 70.1674V71.7621Z" fill="#E43949"/>
<path d="M42.5795 11.2902C47.3281 10.8749 52.1602 11.4599 56.6866 12.9527C62.1943 14.7527 67.2306 17.9491 71.251 22.1214C74.9296 25.9505 77.7554 30.6024 79.4239 35.6477C81.113 40.7895 81.6422 46.3196 80.8843 51.6812C80.174 56.9297 78.2538 62.0046 75.3355 66.4212C72.6626 70.4727 69.156 73.97 65.101 76.6341C60.644 79.5708 55.519 81.4866 50.2284 82.1796C44.3148 82.9498 38.2047 82.2452 32.6443 80.0735C27.9381 78.2503 23.6326 75.4036 20.0939 71.8035C16.2303 67.8729 13.2812 63.041 11.5896 57.7912C10.3591 54.0046 9.77848 50.0033 9.87482 46.0238C9.9917 40.1479 11.6063 34.3092 14.5271 29.2112C18.2328 22.6936 24.0397 17.395 30.8743 14.3207C34.5632 12.6454 38.5425 11.6167 42.5795 11.2902ZM43.4131 12.2146C35.4354 12.6659 27.6683 16.0282 21.8562 21.5146C18.6052 24.5451 15.9336 28.2044 14.0711 32.2443C11.0783 38.5741 10.1728 45.8335 11.3404 52.7265C11.9389 56.1222 13.0294 59.4331 14.6029 62.5022C16.8777 66.9934 20.1581 70.9651 24.1104 74.0793C28.3439 77.421 33.37 79.7572 38.6594 80.8115C46.6743 82.4432 55.266 81.1484 62.3998 77.1201C66.7323 74.7157 70.5188 71.3496 73.4705 67.3701C76.3965 63.4125 78.4657 58.8236 79.4856 54.0059C80.6377 48.5362 80.454 42.7863 78.9333 37.4053C77.6758 32.9823 75.5423 28.8049 72.6549 25.2266C69.7417 21.557 66.0657 18.502 61.9464 16.2789C56.3103 13.2239 49.8071 11.8096 43.4131 12.2146Z" fill="#E43949"/>
<path d="M36.8853 24.4272C37.6506 24.185 38.4648 24.0678 39.2648 24.1799C40.1136 24.0511 40.9958 24.109 41.801 24.4233C42.6485 24.6694 43.505 25.1447 44.4116 24.8987C44.9625 24.7441 45.4377 25.1254 45.9179 25.3238C46.5292 25.5968 47.2123 25.6213 47.8352 25.857C48.8111 26.2525 49.8859 26.2306 50.8953 26.4934C51.6003 26.6171 52.2821 26.8992 53.0077 26.8837C53.9708 26.8579 54.9056 27.2959 55.5734 27.9786C56.0164 28.4424 56.7253 28.4037 57.2107 28.7992C57.8155 29.2152 58.0993 29.9186 58.4357 30.542C59.1022 31.7246 59.6685 32.9625 60.3696 34.1257C61.3328 35.6263 62.4153 37.0678 63.1151 38.7205C63.3334 39.3723 63.684 39.9944 63.7174 40.6965C64.4866 40.7957 65.225 41.0378 65.9839 41.1911C66.9162 41.4075 67.7252 42.004 68.687 42.1083C70.3513 42.384 72.0027 42.7202 73.6631 43.019C75.0628 43.2715 76.4163 43.7172 77.7633 44.1668C77.7582 44.2402 77.7479 44.3883 77.7441 44.4617C76.7219 44.3973 75.8114 43.8653 74.8175 43.6618C72.691 43.1916 70.5362 42.8516 68.3981 42.4329C67.4992 42.2809 66.7287 41.7528 65.8504 41.5364C65.0837 41.3406 64.3274 41.0675 63.5299 41.0417C63.2795 40.4002 63.0484 39.7497 62.8378 39.094C62.4191 37.9746 61.7617 36.966 61.117 35.9677C60.0756 34.391 59.1844 32.7203 58.3625 31.0199C58.0466 30.3694 57.6935 29.7318 57.2261 29.1792C56.801 28.642 56.0511 28.6626 55.4347 28.6201C54.3278 28.7876 53.1875 28.5415 52.0972 28.8352C50.5742 29.1818 49.1129 29.7434 47.6117 30.1723C46.2184 30.5498 45.0383 31.4205 43.8877 32.2578C43.08 32.8414 42.1156 33.1415 41.2706 33.6542C41.575 33.7714 41.9294 33.8809 42.0745 34.2081C42.2633 34.5495 42.0385 34.9462 41.7689 35.1678C41.218 35.6276 40.5541 35.9175 39.9249 36.2511C39.5923 36.4572 39.1967 36.2846 38.9027 36.0939C38.6587 35.9329 38.4828 35.6431 38.1669 35.6212C38.2054 35.8943 38.2439 36.2021 38.4712 36.3902C38.8295 36.7213 39.1839 37.0794 39.6321 37.2855C40.9303 37.5933 42.2427 37.1489 43.4395 36.671C45.1577 36.0076 46.7513 34.8599 48.6467 34.7813C50.076 34.6486 51.4449 34.1682 52.869 34.0007C53.2362 33.9466 53.6061 33.9067 53.9695 33.8217C54.3522 33.725 54.6616 33.3979 55.0777 33.4288C55.0096 33.7598 54.5255 33.8268 54.5563 34.172C54.9262 34.4374 55.3487 34.6409 55.6453 34.999C55.4617 34.9977 55.2793 34.9926 55.097 34.9797C55.1047 35.0351 55.1201 35.1472 55.1278 35.2025C53.8205 35.0493 52.5261 34.7633 51.2086 34.7143C50.1672 34.7736 49.163 35.0879 48.1318 35.2232C47.2637 35.3249 46.4791 35.741 45.7022 36.1146C44.4001 36.7818 43.0222 37.3164 41.5891 37.6217C40.9445 37.7157 40.2831 37.6874 39.6398 37.5998C38.9836 37.4954 38.5457 36.9377 38.1566 36.4508C37.8214 36.0643 37.7983 35.3971 38.2221 35.066C38.8731 34.4863 39.6976 34.1682 40.4603 33.7701C40.0404 33.4236 39.528 33.2033 39.1531 32.7976C38.2978 33.108 37.6057 33.7328 36.8005 34.1424C36.0943 34.5417 35.3058 34.7517 34.5212 34.9282C34.9809 36.027 35.9209 36.8076 36.8455 37.507C37.214 37.7608 37.5646 38.0635 38.0012 38.1949C38.0218 38.1228 38.0616 37.9798 38.0808 37.9077C39.3444 39.0129 40.54 40.2031 41.5531 41.5441C42.3699 42.496 43.1185 43.5046 43.9442 44.4463C44.5478 44.959 45.1552 45.4678 45.7587 45.9818C47.2766 46.9272 49.0461 47.427 50.8233 47.5288C51.6722 47.3085 52.4041 46.7946 53.2144 46.4738C53.2966 46.5408 53.3788 46.6104 53.4623 46.6799C52.964 46.9169 52.4349 47.1127 51.9945 47.4502C54.3509 47.4399 56.6777 47.0239 58.9905 46.6039C60.3979 46.2188 61.8361 45.6687 62.8814 44.6073C63.2269 44.2762 63.4349 43.8409 63.6917 43.4441C63.7662 43.8099 63.5312 44.1384 63.3386 44.4257C62.4564 45.6017 61.0554 46.202 59.7109 46.6735C57.2659 47.4618 54.6925 47.8289 52.1255 47.7877C51.9778 47.8045 51.5669 47.8058 51.7621 48.0428C52.5646 48.6392 53.6022 48.7088 54.5345 48.9818C57.0065 49.6272 59.1664 51.0532 61.4714 52.1043C64.181 53.4427 66.965 54.6201 69.6784 55.9494C70.0688 56.1748 70.5349 56.3359 70.8084 56.7146C70.6209 56.9387 70.3384 56.7738 70.142 56.6656C69.0813 56.0731 68.0077 55.496 66.879 55.0451C64.4096 53.9438 61.9568 52.8025 59.5491 51.5697C58.5718 51.1021 57.6409 50.5392 56.6469 50.1051C55.3024 49.4701 53.8334 49.1944 52.4131 48.7925C51.9855 48.6791 51.6452 48.3893 51.2805 48.1549C50.8824 47.8908 50.3855 47.9294 49.9322 47.8727C48.5427 47.7323 47.283 47.0844 45.9693 46.6645C45.5853 46.5679 45.4184 46.1866 45.1577 45.9315C44.6736 45.4691 44.1034 45.1032 43.6373 44.6202C42.8694 43.837 42.2581 42.9185 41.539 42.0941C41.0061 41.4694 40.4526 40.8639 39.9261 40.234C39.5409 39.7175 39.1056 39.2228 38.5367 38.9034C37.4362 38.2786 36.3305 37.6397 35.3507 36.8308C34.8294 36.2562 34.3786 35.6057 34.0358 34.9088C33.3565 34.8715 32.7234 34.5984 32.1609 34.23C31.6999 33.7701 31.4585 33.0977 31.4842 32.4498C30.8203 32.2398 30.0806 32.245 29.4797 31.8585C29.1021 31.6267 28.8504 31.2466 28.5833 30.9014C27.9823 30.77 27.4982 30.3501 27.1515 29.8567C26.9139 29.5141 27.1014 29.0864 27.1053 28.7077C27.6061 28.3019 28.225 28.101 28.7849 27.7996C29.9535 27.1619 31.2158 26.7304 32.4101 26.1507C33.8637 25.4835 35.3546 24.8935 36.8853 24.4272ZM37.5723 25.146C35.6474 26.1559 33.7751 27.2637 31.8412 28.253C31.9645 28.5325 32.1892 28.8275 32.0685 29.1495C31.9413 29.6365 31.375 29.7576 31.0181 30.0384C30.6469 30.305 30.2347 30.5382 29.7827 30.6283C29.4527 30.6915 29.1483 30.5124 28.8402 30.4274C28.8748 30.6696 28.9146 30.9298 29.1124 31.0985C29.7763 31.8843 30.8678 31.9899 31.8245 32.0505C32.1905 31.7439 32.604 31.5056 33.0085 31.2557C34.9424 30.0551 36.875 28.8546 38.8141 27.663C40.1188 26.8953 41.4864 26.2396 42.7718 25.441C42.8848 25.383 42.967 25.2928 43.0171 25.173C42.113 24.9154 41.2526 24.4259 40.2921 24.4272C39.3354 24.3898 38.4301 24.7673 37.5723 25.146ZM33.5465 25.9936C32.4614 26.4741 31.3481 26.8914 30.2899 27.4286C30.5249 27.6849 30.5442 28.0289 30.3952 28.3316C29.5875 28.6459 28.9082 29.393 27.9862 29.3119C27.8424 29.2307 27.6986 29.1521 27.5522 29.0748C27.2863 29.6094 27.9156 30.3926 28.4934 30.2702C28.758 29.4986 29.5952 29.2307 30.2193 28.8249C30.7754 28.4166 31.4097 28.1358 32.0235 27.8266C33.5375 27.1014 34.9899 26.2589 36.4461 25.4255C36.7582 25.2452 37.0985 25.1241 37.4375 25.0056C37.6622 24.9128 38.0128 24.8755 37.9781 24.5496C36.4307 24.7802 34.9899 25.4217 33.5465 25.9936ZM43.4588 25.6239C42.0064 26.2963 40.5412 26.9507 39.1839 27.8073C37.8407 28.6613 36.4294 29.4136 35.1273 30.3269C35.5845 30.4441 36.0647 30.5691 36.459 30.8344C36.6079 31.074 36.3395 31.2376 36.1906 31.3793C35.6641 31.8727 34.936 32.0517 34.3915 32.5193C34.1475 32.7229 34.0024 33.1312 33.6184 33.0732C32.9802 33.108 32.1661 33.09 31.7924 32.4781C31.7346 33.3 32.2316 34.1862 33.0714 34.3627C33.969 34.6834 34.9616 34.5688 35.8233 34.1952C37.4285 33.5292 38.8166 32.4498 40.3692 31.6808C41.3567 31.1925 42.3339 30.667 43.3766 30.3089C43.7079 30.1736 44.0508 30.3179 44.3834 30.3733C45.0627 30.4274 45.8062 30.6605 46.4406 30.3037C47.1969 29.9353 48.0047 29.6919 48.8214 29.5064C50.1132 29.2036 51.3152 28.5725 52.6404 28.4114C53.529 28.2685 54.4343 28.4501 55.3204 28.2749C54.7079 27.6025 53.7897 27.1735 52.8741 27.2302C51.6529 27.1748 50.5049 26.6763 49.2888 26.5771C48.4374 26.5372 47.6862 26.0786 46.8502 25.9614C46.2801 25.8764 45.7471 25.6535 45.2476 25.374C44.6646 25.0301 43.9994 25.3521 43.4588 25.6239ZM27.8488 28.6201C27.8629 28.6678 27.8912 28.7644 27.9053 28.8121C28.645 29.0233 29.332 28.5493 29.9009 28.1332C30.0832 28.0327 29.9535 27.8228 29.9355 27.6746C29.174 27.8627 28.6231 28.4655 27.8488 28.6201ZM29.2665 29.8168C29.1073 29.898 29.183 30.1105 29.1509 30.2535C30.0755 30.4622 30.9217 29.8877 31.5933 29.3209C31.8694 29.1599 31.8232 28.5145 31.4226 28.6201C30.706 29.0207 29.9663 29.3866 29.2665 29.8168ZM43.1506 30.8035C43.4177 31.1681 43.6142 31.5777 43.7259 32.017C44.2357 31.6911 44.6916 31.2866 45.2194 30.9852C45.2309 30.9349 45.2566 30.837 45.2682 30.7881C44.9856 30.7778 44.6954 30.7803 44.4283 30.676C44.0071 30.6167 43.5076 30.4995 43.1506 30.8035ZM34.4108 30.886C33.6685 31.4296 32.812 31.7787 32.0274 32.2527C32.3574 32.9766 33.2589 32.7087 33.883 32.7383C34.4146 31.95 35.3906 31.6988 36.0853 31.0998C36.1045 31.0599 36.1443 30.9787 36.1649 30.9375C35.9581 30.8589 35.754 30.7739 35.5601 30.6683C35.162 30.6013 34.7408 30.6322 34.4108 30.886ZM40.861 31.7787C40.3794 31.9873 39.9557 32.3081 39.4664 32.5013C39.4497 32.5644 39.4176 32.6907 39.4009 32.7551C39.8529 33.0694 40.2998 33.4017 40.8135 33.613C41.6854 33.1415 42.5971 32.7499 43.4434 32.2321C43.3818 31.7297 43.0954 31.3008 42.8899 30.8499C42.2427 31.2209 41.5249 31.4412 40.861 31.7787ZM38.5059 35.1922C38.7139 35.6328 39.1505 36.0411 39.659 36.0141C40.4025 35.6367 41.2706 35.37 41.792 34.6783C41.9281 34.2248 41.4183 33.9775 41.0639 33.8912C40.1059 34.096 39.3252 34.6963 38.5059 35.1922ZM52.6417 34.3446C52.6391 34.4155 52.6327 34.5546 52.6301 34.6255C52.9152 34.6332 53.2041 34.7079 53.4905 34.6499L53.5098 34.6705C53.9708 34.7182 54.4189 34.8316 54.8774 34.8985C54.9788 34.5057 54.5846 34.4245 54.2957 34.3768C53.7576 34.2493 53.1836 34.2364 52.6417 34.3446Z" fill="#E43949"/>
<path d="M19.8231 35.3185C19.8681 35.2761 19.9594 35.19 20.0057 35.1476C20.6691 35.798 21.4586 36.3057 22.3123 36.6682C23.8218 37.3275 25.2271 38.1913 26.6864 38.9484C27.6649 39.4188 28.5855 39.9947 29.519 40.5461C30.8111 41.2633 32.1882 41.8983 33.6655 42.1014C34.8111 42.3006 35.985 42.5602 36.9557 43.235C38.0923 44.0332 39.0348 45.1374 39.5645 46.4266C40.0184 46.6772 40.3462 47.0872 40.6972 47.4587C42.3031 49.1811 43.6738 51.1952 44.3295 53.478C44.6265 54.4665 44.7049 55.5037 44.7178 56.532C44.9582 56.784 45.1897 57.0449 45.4005 57.3238C46.1295 57.0462 46.883 56.7775 47.6737 56.7827C47.9129 56.8161 48.0234 56.5732 48.1919 56.4562C48.9363 55.8765 49.8903 55.721 50.7659 55.4382C51.2147 54.7325 51.9913 54.3559 52.7254 54.0166C53.5573 53.6323 54.4548 53.2364 55.3959 53.3829C56.0838 53.433 56.6817 54.0693 56.6341 54.7685C56.656 55.1953 56.3448 55.5243 56.1429 55.8688C56.3512 56.1529 56.6727 56.4228 56.6418 56.811C56.638 57.8559 56.0285 58.7608 55.4486 59.5848C54.7672 60.4781 54.0189 61.3187 53.3413 62.2146C53.0211 62.6015 52.6457 62.946 52.3898 63.3817C53.4776 63.0822 54.474 62.392 55.6376 62.4254C56.6727 62.4215 57.6408 63.1041 58.069 64.0321C58.2979 64.5552 58.0793 65.1645 57.7026 65.5604C57.1664 66.1709 56.3538 66.3804 55.6531 66.7365C54.5499 67.2082 53.6666 68.0681 52.5467 68.5115C51.9077 68.7429 51.2841 69.0385 50.6104 69.1568C50.7814 69.356 51.0629 69.3804 51.288 69.4936C51.9977 69.8046 52.7473 70.1954 53.1304 70.9049C53.4853 71.5218 53.4776 72.3882 52.9659 72.9177C51.9964 73.2044 50.9755 73.1851 49.9791 73.2879C48.3899 73.3522 46.7878 73.482 45.2115 73.1967C44.0672 72.973 42.9049 72.883 41.7438 72.7982C40.4902 72.6787 39.2533 72.4357 38.0126 72.2275C37.0341 71.9344 36.5378 70.9704 35.9027 70.2545C35.6584 69.9974 35.4951 69.6838 35.3408 69.3689C35.1608 69.0475 34.8021 68.892 34.5629 68.6221C33.5369 67.4241 32.5327 66.203 31.4039 65.0989C30.5295 64.2365 29.6835 63.2789 29.2875 62.0938C29.0574 61.4344 29.0548 60.7287 28.9687 60.0423C28.8722 58.8842 28.5238 57.7673 28.1715 56.6657C27.5286 54.8572 27.2445 52.9433 27.1197 51.0346C24.4492 49.7608 21.5589 49.0731 18.738 48.2248C17.6605 47.9047 16.5612 47.6721 15.476 47.3854C15.062 47.2415 14.5323 47.1387 14.3484 46.6824C14.99 46.879 15.5956 47.1914 16.2706 47.28C17.9935 47.5513 19.6547 48.0924 21.3352 48.5474C22.8048 48.9909 24.2847 49.4099 25.7093 49.9883C26.2056 50.1438 26.6427 50.4639 27.1635 50.5346C27.2933 49.9832 27.202 49.2479 27.6906 48.8662C28.0635 47.388 28.8542 46.0551 29.7748 44.8546C30.4935 43.9356 31.4129 43.0011 32.6279 42.8533C32.8928 42.87 33.335 42.78 33.3788 43.1399C32.9995 43.1451 32.606 43.0872 32.2409 43.2209C31.526 43.4458 30.995 44.0037 30.4678 44.5063C29.5344 45.5243 28.8426 46.7492 28.3592 48.0384C27.9156 49.2364 27.9863 50.541 28.0776 51.7929C28.2641 52.9896 28.4736 54.1965 28.9288 55.3264C29.4212 56.7261 30.3187 57.9459 31.3717 58.9781C32.5867 60.1387 33.3453 61.6837 34.5578 62.847C35.0104 63.2801 35.5864 63.5539 36.165 63.775C37.2167 64.0681 38.424 63.6182 39.0322 62.7133C39.4398 62.0038 39.3331 61.1259 39.0759 60.3817C38.6118 59.1503 37.8635 58.0513 37.0676 57.0115C36.2974 55.9626 35.4154 54.9215 35.1261 53.6181C35.0464 52.9575 35.0528 52.2698 35.274 51.6361C35.31 51.658 35.3845 51.703 35.4218 51.7261C35.436 52.1785 35.3305 52.631 35.3897 53.0847C35.4835 54.0179 35.9991 54.8328 36.4877 55.6091C37.2579 55.3431 38.0962 55.3572 38.8573 55.0474C39.8769 54.7647 40.822 54.2171 41.8788 54.0847C41.7438 54.3135 41.4918 54.4099 41.2617 54.5127C39.7818 55.0462 38.3058 55.6837 36.7166 55.7955C37.8133 57.5218 39.4231 59.0655 39.7034 61.1876C39.8615 61.9202 39.5478 62.6105 39.2765 63.2686C39.9978 62.9832 40.6921 62.6195 41.3427 62.1979C42.0769 61.7326 42.5976 61.0205 43.1299 60.3495C43.2057 60.2506 43.3047 60.1812 43.4256 60.1426C43.3793 60.5115 43.0759 60.7506 42.8753 61.0372C42.5603 61.5526 42.1206 61.9781 41.6821 62.3855C41.0135 62.8316 40.2794 63.1799 39.5324 63.4742C39.1466 63.6246 38.8329 63.9575 38.3906 63.9254C38.5205 64.0565 38.6503 64.1863 38.7802 64.3174C39.4025 63.6426 40.3874 63.6221 41.227 63.7866C41.389 63.8933 41.5458 64.0385 41.7528 64.0359C42.2671 64.0398 42.6966 64.3483 43.1543 64.5385C43.9232 64.8727 44.6818 65.2763 45.4674 65.5475C46.8958 64.6876 48.6072 64.4254 50.2516 64.5051C50.7094 64.5925 50.9292 64.0951 51.2365 63.8573C51.8125 63.3997 52.2317 62.7866 52.7961 62.3174C53.2796 61.9382 53.5419 61.3624 53.9559 60.9164C54.438 60.1323 55.1105 59.4858 55.5412 58.6683C55.7791 58.1606 56.3628 57.8161 56.3499 57.203C56.4078 56.5243 55.7958 55.9241 55.1349 55.8932C54.7029 55.8855 54.2516 55.8868 53.8466 56.0552C52.404 56.8135 51.4525 58.2081 50.7107 59.613C49.9006 59.82 49.1703 60.2519 48.4722 60.7004C47.8164 61.1169 47.2661 61.7056 46.9794 62.4331C46.9331 62.4485 46.8393 62.4807 46.7917 62.4974C46.7788 62.3277 46.766 62.158 46.7557 61.9884C45.5677 61.9794 44.3488 61.631 43.1762 61.9768C42.6632 62.1105 42.4189 62.6336 41.9624 62.8624C41.9418 62.766 41.9007 62.5732 41.8801 62.4768C42.2453 62.0436 42.685 61.6503 43.2315 61.4639C43.8473 61.4074 44.4683 61.23 45.0868 61.3971C45.7425 61.5552 46.469 61.6452 47.0656 61.2544C47.7843 61.0359 48.0954 60.2621 48.7936 60.0076C49.4352 59.7866 49.9328 59.2853 50.5975 59.1207C50.7685 58.4074 51.2558 57.8277 51.6814 57.2493C52.1263 56.6464 52.8026 56.2994 53.3722 55.8341C53.9225 55.4768 54.6399 55.2672 55.2789 55.5012C55.5412 55.5744 55.8074 55.7171 56.0748 55.577C56.2188 55.2724 56.3397 54.9575 56.4554 54.64C56.2304 54.3019 55.9681 53.9215 55.5425 53.8354C54.8148 53.6438 54.078 53.8739 53.394 54.1104C52.7537 54.3495 52.1494 54.6824 51.5914 55.0744C51.2134 55.3585 50.9652 55.7904 50.9447 56.2673C50.8804 56.2737 50.7505 56.2865 50.6862 56.293C50.6284 56.1657 50.5705 56.0385 50.5139 55.9112C49.6936 56.1387 48.8437 56.3984 48.1803 56.9523C47.8126 57.2261 47.8833 57.8482 47.3998 57.9935C47.4397 57.757 47.5104 57.5269 47.5979 57.3045C47.5014 57.2081 47.405 57.113 47.3086 57.0192C46.6875 57.2274 46.0202 57.3315 45.4841 57.7351C44.9839 58.05 44.6072 58.5282 44.3462 59.0526C44.2845 59.2274 44.2228 59.4022 44.1623 59.5783C43.954 59.9973 43.9708 60.5809 43.5388 60.8521C43.5066 60.347 43.738 59.8868 43.8512 59.4061C44.0852 58.7056 44.4208 57.9806 45.0598 57.5603C44.9286 57.3251 44.7834 57.0937 44.5802 56.9151C43.8808 56.9935 43.2263 57.2788 42.5732 57.5256C41.8634 57.8457 41.146 58.1811 40.534 58.6709C40.2704 58.8714 40.0698 59.1837 39.7226 59.2441C39.7522 58.8534 40.1135 58.6297 40.3758 58.3894C41.5278 57.4639 42.9447 56.9343 44.3629 56.5706C44.3128 55.2133 44.0736 53.8521 43.567 52.5873C42.7326 50.4742 41.3723 48.5898 39.7484 47.0127C39.7034 47.1052 39.6134 47.2929 39.5684 47.3854L39.4771 47.3135C39.3344 46.7261 39.1711 46.1168 38.7828 45.6386C38.478 45.2569 38.19 44.8636 37.875 44.4908C37.2026 43.7106 36.2884 43.1618 35.3138 42.8443C34.0705 42.4831 32.7423 42.4651 31.535 41.9702C29.6347 41.307 28.0545 40.0165 26.2223 39.217C23.9542 38.163 21.726 36.9574 19.8231 35.3185ZM27.5903 52.2852C27.5878 52.3919 27.5839 52.6053 27.5813 52.7132C27.7305 53.122 27.8513 53.5462 27.8359 53.987C27.8668 54.9343 28.4762 55.7505 28.4891 56.6991C28.8195 57.3727 29.0137 58.1002 29.2245 58.8174C29.4174 59.9691 29.2914 61.1734 29.7208 62.2814C30.1233 63.131 30.7751 63.82 31.2791 64.6053C31.4656 64.883 31.7394 65.0796 31.9824 65.3046C33.128 66.4331 34.2595 67.5822 35.256 68.8483C36.003 69.6426 36.6008 70.5707 37.3762 71.338C37.9573 71.9177 38.7918 72.0476 39.5722 72.1362C40.606 72.2622 41.6384 72.4075 42.6747 72.5219C43.8435 72.5681 44.9955 72.7789 46.1501 72.946C46.811 73.1851 47.504 72.9435 48.1829 72.9756C49.2976 72.9126 50.4124 72.8599 51.5297 72.8573C51.972 72.8625 52.4284 72.7339 52.7794 72.4627C53.1227 71.8676 52.9697 71.009 52.4258 70.581C51.3844 69.901 50.1964 69.4511 48.9646 69.2763C48.0582 69.2313 47.1581 69.3792 46.2555 69.4447C45.956 69.4563 45.5908 69.6786 45.3504 69.401C45.5445 69.2622 45.7605 69.1619 45.9945 69.1105C45.6898 68.892 45.3246 68.7827 44.9775 68.6542C44.3205 68.6131 43.7046 68.3303 43.0412 68.3239C42.2749 68.2468 41.4983 68.2352 40.7397 68.0912C40.7178 68.009 40.6741 67.8457 40.6535 67.7635C40.7757 67.757 41.0225 67.7442 41.146 67.7365C40.723 67.1658 40.3424 66.5604 39.8808 66.0205C39.3022 65.4164 38.7069 64.8316 38.1643 64.1953C37.5137 64.1838 36.858 64.302 36.2177 64.1246C35.355 64.0038 34.6671 63.4241 34.0744 62.829C33.5331 62.4087 33.3093 61.721 32.8118 61.2634C32.237 60.8071 31.8192 60.194 31.4 59.6002C30.9731 59.0385 30.419 58.5925 29.9574 58.0616C29.4534 57.505 29.1075 56.829 28.7899 56.1593C28.8156 55.6361 28.4556 55.2184 28.3309 54.7325C28.1085 53.9562 27.9066 53.1734 27.7536 52.3816C27.7138 52.3572 27.6315 52.3096 27.5903 52.2852ZM54.159 63.0706C53.2526 63.3958 52.3744 63.8007 51.5412 64.2853C51.144 64.5115 50.8907 64.9254 50.8174 65.3714C50.7827 65.6426 50.5011 65.5655 50.3776 65.4087C50.4162 65.2493 50.4535 65.0899 50.4908 64.9331C49.2012 64.8123 47.9257 65.0861 46.6991 65.4614C46.0524 65.6915 45.3581 65.9087 44.9029 66.4575C44.8129 66.4537 44.6342 66.446 44.5442 66.4421C44.6085 66.1773 44.8566 66.0282 44.9852 65.8033C44.6265 65.5642 44.1983 65.4691 43.8023 65.3149C43.1556 65.1002 42.5706 64.7416 41.9354 64.4961C41.2848 64.1465 40.5224 64.0784 39.7985 64.1606C39.4758 64.1516 39.2315 64.3688 39.0155 64.5784C39.1608 65.0796 39.6686 65.2917 40.0299 65.6092C40.6857 66.2879 41.2553 67.0462 41.758 67.8432C41.8763 68.0013 42.1039 67.9293 42.271 67.9511C43.315 67.9473 44.3321 68.2288 45.3568 68.3907C46.001 68.4768 46.4677 69.1298 47.1581 68.9884C48.35 68.7802 49.5728 69.0462 50.7518 68.7558C51.4217 68.6504 52.0054 68.2725 52.665 68.1298C53.2359 67.9858 53.6139 67.4961 54.1166 67.2236C54.4496 66.9987 54.8045 66.8162 55.1671 66.6465C55.8562 66.1786 56.6881 65.964 57.3593 65.4691C57.808 65.1221 57.9031 64.4794 57.7347 63.964C57.4583 63.3406 56.7665 63.0565 56.1661 62.8367C55.4962 62.8213 54.7749 62.7467 54.159 63.0706Z" fill="#E43949"/>
<path d="M47.4195 35.9172C47.8687 36.3444 48.3295 36.778 48.9322 36.9852C50.9095 37.7462 53.0857 38.4291 55.214 37.9009C55.8413 37.796 56.3808 37.4021 57.0094 37.319C56.9203 37.6413 56.5912 37.7884 56.3227 37.9406C55.0591 38.5442 53.5916 38.5788 52.2299 38.3588C50.8528 38.0838 49.5233 37.5965 48.261 36.9928C47.8777 36.7498 47.2892 36.4582 47.4195 35.9172Z" fill="#E43949"/>
<path d="M46.6324 36.95C46.9463 36.9031 47.1905 37.1192 47.4424 37.269C49.5999 38.6687 51.9628 39.7572 54.4471 40.4161C54.4329 40.4773 54.4032 40.6022 54.3877 40.6634C51.9473 40.2286 49.7381 39.0059 47.6439 37.7234C47.2887 37.4916 46.8869 37.3041 46.6324 36.95Z" fill="#E43949"/>
<path d="M58.9687 45.8096C59.5402 45.7131 60.0109 45.3086 60.5965 45.2814C60.3094 45.7527 59.7226 45.8887 59.2226 46.0458C57.8411 46.3761 56.4047 46.5072 54.9836 46.4058C54.4568 46.3699 53.9427 46.5221 53.4222 46.5641C53.4299 46.4973 53.4439 46.3625 53.4516 46.2957C54.0001 46.1807 54.5537 46.031 55.1214 46.0718C56.4085 46.1473 57.7033 46.0397 58.9687 45.8096Z" fill="#E43949"/>
<path d="M39.4401 48.6137C39.4686 48.3517 39.4178 48.0238 39.6559 47.8469C39.7663 49.5419 39.8085 51.3867 38.9464 52.8985C38.8075 53.1631 38.6115 53.4355 38.3052 53.491C38.3225 53.1076 38.6128 52.8378 38.7715 52.5138C39.4289 51.3364 39.3955 49.9292 39.4401 48.6137Z" fill="#E43949"/>
<path d="M33.8213 59.9979C34.1354 59.1997 34.9067 58.6676 35.6767 58.3655C35.7035 58.4349 35.7546 58.575 35.7801 58.6444C35.0382 58.8244 34.3576 59.4131 34.0805 60.1213C34.5198 61.3321 35.2949 62.3848 36.1441 63.3385C37.0622 63.0133 37.9165 62.4002 38.3239 61.485C38.3826 61.4542 38.5026 61.3925 38.5614 61.3616C38.5486 62.0017 38.0263 62.4734 37.5832 62.8693C37.0992 63.2202 36.508 63.6392 35.881 63.449C35.4443 63.057 35.1506 62.5339 34.7432 62.111C34.3985 61.4272 33.9681 60.7601 33.8213 59.9979Z" fill="#E43949"/>
<path d="M35.871 58.8317C35.9412 58.7597 36.0125 58.6902 36.0839 58.6221C37.0298 59.2123 37.6493 60.1665 38.4333 60.9355C38.5314 61.0436 38.6168 61.1619 38.6895 61.2917C38.4333 61.3895 38.2497 61.1683 38.0865 61.0178C37.3587 60.2823 36.8182 59.3101 35.871 58.8317Z" fill="#E43949"/>
<path d="M2.49275 36.5428C3.9465 36.0595 5.64657 37.1985 5.74349 38.7266C5.91309 39.9384 5.05969 41.1623 3.88323 41.4652C2.80638 41.7883 1.54108 41.2727 0.994585 40.2884C0.668838 39.7001 0.53154 38.973 0.738833 38.3214C0.951511 37.4718 1.66223 36.7892 2.49275 36.5428Z" fill="#E43949"/>
<path d="M87.298 36.5386C88.6044 36.1145 90.1431 36.9841 90.4694 38.3168C90.903 39.6684 89.9417 41.2407 88.5507 41.4884C87.1732 41.8559 85.6573 40.787 85.4881 39.3803C85.2572 38.154 86.1017 36.8603 87.298 36.5386Z" fill="#E43949"/>
<path d="M7.76362 31.1127C7.94519 30.8459 8.21695 30.393 8.52442 29.759C9.07375 28.6263 9.22428 27.8428 9.09609 27.2685C8.98139 26.7738 8.69117 26.34 8.16803 26.0853C7.44239 25.7321 6.7109 25.9716 6.22648 26.5404L6.20961 26.5322C6.27648 25.7706 5.95589 25.2489 5.45807 25.0066C4.93493 24.7519 4.41152 24.842 4.0079 25.1366C3.55823 25.4401 3.24862 25.885 2.86736 26.6711C2.5517 27.322 2.2828 28.027 2.17789 28.3939L7.76362 31.1127ZM3.64912 27.5323C3.68144 27.4226 3.74245 27.2538 3.88183 26.9664C4.1647 26.3831 4.5524 26.1644 4.98272 26.3738C5.4046 26.5792 5.51087 27.0697 5.17881 27.7544L4.97383 28.1771L3.64912 27.5323ZM5.89354 28.6248L6.10671 28.1852C6.41827 27.5428 6.89616 27.138 7.46149 27.4132C8.06056 27.7048 8.03831 28.3313 7.75544 28.9146C7.64885 29.1343 7.57506 29.2865 7.49669 29.4051L5.89354 28.6248Z" fill="#E43949"/>
<path d="M6.827 19.8568L11.7867 23.7854L12.6711 22.6649L10.5959 21.0211L12.0563 19.1707L14.1314 20.8145L15.0158 19.6939L10.0561 15.7653L9.17173 16.8859L11.0776 18.3955L9.61725 20.2459L7.71137 18.7362L6.827 19.8568Z" fill="#E43949"/>
<path d="M17.481 15.0988L18.9339 15.9726L20.0789 14.9291L14.367 11.5717L12.9791 12.8365L15.8113 18.8184L16.9008 17.8255L16.1418 16.3193L17.481 15.0988ZM15.5748 15.3877L14.9496 14.1406C14.7798 13.7999 14.5272 13.3822 14.3441 13.0408L14.358 13.0282C14.6799 13.243 15.0788 13.5147 15.4146 13.7169L16.6087 14.4454L15.5748 15.3877Z" fill="#E43949"/>
<path d="M18.3156 8.45296L19.2325 9.87349C19.6502 10.5206 19.9641 11.1454 20.1687 11.7739C20.3205 12.2688 20.4019 12.7756 20.4286 13.2843L19.9999 13.6068L21.504 15.8332L22.4178 15.2412L21.6149 13.8588L24.7265 11.8431L25.6554 13.1439L26.5613 12.557L25.1597 10.2643L24.6115 10.5746L21.7896 6.20251L18.3156 8.45296ZM20.058 8.71202L21.2238 7.95677L23.3938 11.3187L21.6292 12.4618C21.6001 12.1225 21.5252 11.7122 21.4109 11.3274C21.2221 10.6887 20.9137 10.0378 20.5164 9.42228L20.058 8.71202Z" fill="#E43949"/>
<path d="M28.4761 5.73498L26.3578 6.69863L25.8148 5.50063L28.0612 4.47871L27.5764 3.40907L24.0317 5.02162L26.6458 10.7891L30.3101 9.12215L29.8253 8.05252L27.4593 9.12884L26.8387 7.75971L28.957 6.79606L28.4761 5.73498Z" fill="#E43949"/>
<path d="M29.6067 2.50591L32.3855 4.71584C31.6068 5.07947 31.3641 5.76209 31.3019 6.62169C31.2548 7.2738 31.2511 7.9827 31.1404 8.65105L32.5312 8.29608C32.6179 7.83753 32.6064 7.29738 32.6225 6.82775C32.6557 6.121 32.8054 5.49122 33.5508 5.30097L33.769 5.24529L34.422 7.81349L35.7583 7.47244L35.1053 4.90423L35.3143 4.85087C36.0688 4.6583 36.501 5.13959 36.8587 5.74658C37.0971 6.15124 37.354 6.62876 37.6492 6.98985L39.0491 6.63256C38.6235 6.10109 38.309 5.47339 37.9287 4.89158C37.4727 4.16423 36.9176 3.65613 36.0581 3.77851L37.4518 0.50365L35.8428 0.91431L34.9641 3.85408L34.8459 3.88424L34.1974 1.33425L32.8611 1.67531L33.5096 4.2253L33.3914 4.25546L31.2157 2.09525L29.6067 2.50591Z" fill="#E43949"/>
<path d="M39.6796 0.301709L40.0453 6.62535L41.4688 6.54272L41.3158 3.89692L43.6664 3.76047L43.8195 6.40627L45.243 6.32364L44.8772 0L43.4537 0.0826303L43.5943 2.51263L41.2436 2.64908L41.1031 0.219079L39.6796 0.301709Z" fill="#E43949"/>
<path d="M48.0736 0.050729L47.2275 6.29954C47.5372 6.38906 48.0422 6.50511 48.7301 6.5986C49.641 6.72241 50.7167 6.67892 51.4041 6.1464C51.7537 5.87146 52.0095 5.45098 52.0889 4.86428C52.2806 3.44875 51.1778 2.64447 49.8857 2.46886C49.6533 2.43727 49.3706 2.42731 49.1809 2.42998L49.4773 0.241499L48.0736 0.050729ZM49.0359 3.50094C49.1779 3.50126 49.3477 3.50538 49.5336 3.53065C50.0728 3.60392 50.6937 3.98231 50.5966 4.69939C50.5033 5.38853 49.8592 5.67087 49.2363 5.58622C49.0504 5.56096 48.8751 5.52764 48.7673 5.48454L49.0359 3.50094ZM53.2328 0.751902L52.3828 7.02865L53.7957 7.22069L54.6457 0.943935L53.2328 0.751902Z" fill="#E43949"/>
<path d="M60.1378 9.22945L59.3523 5.56527L62.0003 3.17554L60.4478 2.67075L59.583 3.60489C59.3184 3.90419 59.1155 4.13465 58.8482 4.47261L58.8304 4.46681C58.7976 4.08071 58.7594 3.74221 58.6996 3.31769L58.5294 2.04702L56.9679 1.53934L57.6811 5.06143L54.9537 7.54392L56.5062 8.04871L57.3503 7.11771C57.6827 6.7614 57.9357 6.49785 58.1736 6.18985L58.1914 6.19565C58.248 6.59939 58.2894 6.95867 58.3764 7.45133L58.5674 8.71886L60.1378 9.22945Z" fill="#E43949"/>
<path d="M63.1335 10.6353L64.3662 11.3344L65.4846 9.35529C65.5851 9.44465 65.7274 9.53617 65.8906 9.62877C66.6253 10.0455 67.3602 10.2139 68.0066 10.0621C68.5123 9.94937 68.9471 9.58044 69.2522 9.04068C69.5572 8.50091 69.5874 7.91328 69.3854 7.4315C69.1844 6.92872 68.7207 6.47129 67.9533 6.03606C67.1941 5.60545 66.6276 5.34893 66.207 5.19673L63.1335 10.6353ZM66.9451 6.77096C67.0488 6.79736 67.2294 6.87824 67.4743 7.01714C68.1029 7.37367 68.2829 7.87536 67.9964 8.38241C67.6821 8.93853 67.0844 9.04233 66.4232 8.66728C66.2355 8.56079 66.1176 8.48316 66.0254 8.39843L66.9451 6.77096Z" fill="#E43949"/>
<path d="M71.2357 8.02135L70.2528 12.8095C70.2272 12.9201 70.1981 13.0044 70.0924 13.0652C69.8243 13.2146 69.4034 13.2701 69.0536 13.0012C68.8899 12.8754 68.7896 12.7747 68.71 12.6779L67.9315 13.5247C68.0404 13.6913 68.1664 13.8355 68.4269 14.0357C69.0149 14.4877 69.6258 14.5545 70.2673 14.3961C71.0009 14.2256 71.8885 13.6996 72.7876 13.1587L75.6343 11.4023L74.436 10.4813L72.5222 11.8531C72.072 12.1941 71.7257 12.461 71.5006 12.6314L71.4782 12.6143C71.5933 12.217 71.7306 11.837 71.8576 11.3778L72.5158 9.00531L71.2357 8.02135Z" fill="#E43949"/>
<path d="M76.9685 12.6608L72.4332 17.0742L73.4136 18.0854L75.3112 16.2388L75.5008 16.4343C76.0367 16.9871 75.8491 17.5759 75.488 18.2286C75.2561 18.6639 74.9912 19.092 74.832 19.5483L75.9039 20.6538C76.1456 19.9994 76.493 19.3731 76.8206 18.7398C77.1827 18.0207 77.3315 17.3649 76.9042 16.6409L80.4588 16.2606L79.2497 15.0135L76.1496 15.6064L76.0581 15.512L77.949 13.672L76.9685 12.6608Z" fill="#E43949"/>
<path d="M79.77 23.2086L78.7299 24.5489L79.6266 25.8128L83.6388 20.5344L82.5518 19.0024L76.2842 21.1018L77.1375 22.3045L78.7211 21.7302L79.77 23.2086ZM79.7123 21.278L81.0231 20.8059C81.3811 20.6778 81.8254 20.4767 82.1856 20.3355L82.1965 20.3508C81.945 20.6452 81.6279 21.0094 81.3873 21.3191L80.5221 22.4194L79.7123 21.278Z" fill="#E43949"/>
<path d="M82.3983 31.2993L84.4547 28.1686L88.0122 28.3839L87.2826 26.9211L86.0114 26.9586C85.6129 26.9795 85.3066 26.9962 84.8787 27.0424L84.8703 27.0256C85.1221 26.7314 85.3361 26.4667 85.5963 26.1263L86.3811 25.1136L85.6473 23.6424L83.6412 26.6218L79.962 26.4149L80.6916 27.8777L81.946 27.8276C82.4327 27.8151 82.7977 27.811 83.1836 27.7649L83.192 27.7817C82.9444 28.1052 82.7178 28.3868 82.4283 28.7944L81.6603 29.8197L82.3983 31.2993Z" fill="#E43949"/>
<path d="M84.9242 52.8847L84.8234 54.072L90.2493 54.2431L90.3856 52.6387L88.6389 51.9162C88.0535 51.6806 87.3559 51.4353 86.7431 51.2377L86.7459 51.2056C87.3892 51.1392 88.076 51.036 88.7161 50.9128L90.5642 50.5368L90.7026 48.9083L85.3305 48.1034L85.2344 49.2346L87.2771 49.5136C87.9475 49.603 88.7782 49.706 89.5055 49.7922L89.5041 49.8082C88.7873 49.8846 88.003 49.9955 87.3468 50.1174L85.2141 50.5176L85.133 51.4723L87.1848 52.3096C87.8002 52.5721 88.5504 52.8622 89.2246 53.0974L89.2233 53.1134C88.4379 53.0465 87.6505 53.0037 86.9993 52.9725L84.9242 52.8847Z" fill="#E43949"/>
<path d="M89.8084 56.5484L84.5503 55.2287L84.253 56.4158L86.453 56.968L85.962 58.9282L83.762 58.376L83.4647 59.5631L88.7229 60.8827L89.0202 59.6957L86.9996 59.1886L87.4905 57.2284L89.5111 57.7355L89.8084 56.5484Z" fill="#E43949"/>
<path d="M87.1932 65.2036C87.8081 63.7331 87.0915 62.2982 85.5928 61.6702C84.1609 61.0703 82.6742 61.4772 82.0562 62.9552C81.4414 64.4257 82.0151 65.8269 83.6621 66.5171C85.0495 67.0984 86.5504 66.741 87.1932 65.2036ZM86.3048 64.8052C85.9787 65.585 85.0301 65.6851 84.125 65.3058C83.1531 64.8986 82.6092 64.1557 82.9291 63.3907C83.2458 62.6332 84.1284 62.4618 85.1151 62.8753C86.087 63.2825 86.6278 64.0328 86.3048 64.8052Z" fill="#E43949"/>
<path d="M85.2736 69.038L80.5761 66.3297L79.9659 67.3902L83.7922 69.5962L82.7687 71.3753L83.6399 71.8776L85.2736 69.038Z" fill="#E43949"/>
<path d="M81.4683 75.0923C82.4285 73.8205 82.0899 72.2525 80.7938 71.2719C79.5553 70.3351 78.0142 70.36 77.0493 71.6383C76.0891 72.9101 76.2976 74.41 77.7221 75.4877C78.922 76.3954 80.4646 76.422 81.4683 75.0923ZM80.7065 74.4857C80.1973 75.1601 79.2536 75.0215 78.4707 74.4292C77.6302 73.7933 77.2874 72.9386 77.7869 72.277C78.2815 71.6218 79.1789 71.675 80.0323 72.3206C80.8729 72.9566 81.2108 73.8177 80.7065 74.4857Z" fill="#E43949"/>
<path d="M78.5481 78.4795L74.7429 74.6146L73.8722 75.4736L76.9717 78.6218L75.5969 79.9782L72.4974 76.83L71.6267 77.6891L75.4319 81.554L78.5481 78.4795Z" fill="#E43949"/>
<path d="M70.6664 78.4564L69.6974 79.1894L70.8709 80.7438C70.7666 80.7925 70.6462 80.8735 70.5179 80.9705C69.9404 81.4074 69.5578 81.9289 69.4569 82.4897C69.3732 82.9263 69.5149 83.3944 69.8349 83.8184C70.155 84.2423 70.6062 84.4661 71.0534 84.4709C71.5167 84.4837 72.0339 84.2741 72.6371 83.8178C73.2338 83.3664 73.6282 83.0074 73.891 82.7279L70.6664 78.4564ZM72.4033 82.7736C72.3472 82.8463 72.2222 82.961 72.0297 83.1067C71.5356 83.4804 71.0803 83.4515 70.7796 83.0533C70.4499 82.6165 70.5719 82.1104 71.0916 81.7172C71.2392 81.6056 71.3403 81.5392 71.4383 81.4953L72.4033 82.7736Z" fill="#E43949"/>
<path d="M67.2489 87.3882C68.6404 86.613 68.9635 85.0417 68.1736 83.6206C67.4188 82.2627 65.9989 81.6624 64.6004 82.4414C63.2088 83.2166 62.7942 84.673 63.6624 86.2348C64.3937 87.5504 65.7941 88.1985 67.2489 87.3882ZM66.7967 86.5251C66.0588 86.9362 65.2515 86.4277 64.7744 85.5693C64.2621 84.6477 64.2935 83.7273 65.0173 83.324C65.7342 82.9247 66.5336 83.3363 67.0538 84.272C67.5661 85.1936 67.5277 86.118 66.7967 86.5251Z" fill="#E43949"/>
<path d="M61.2501 90.3041L61.0884 89.8575C62.0489 89.4148 63.0182 88.3353 62.4317 86.7154C61.8644 85.1485 60.5708 84.9071 59.4291 85.2271L59.2619 84.7653L58.1882 85.1549L58.3554 85.6166C57.2595 86.1341 56.4311 87.154 57.0011 88.7285C57.5766 90.318 58.8881 90.5616 60.0147 90.2471L60.1764 90.6937L61.2501 90.3041ZM59.7148 86.0397C60.1952 85.9254 60.9213 86.1587 61.283 87.1578C61.6749 88.2403 61.24 88.8348 60.8082 89.06L59.7148 86.0397ZM59.7345 89.4495C59.2286 89.5645 58.5472 89.3836 58.158 88.3087C57.7661 87.2263 58.2038 86.6393 58.641 86.4293L59.7345 89.4495Z" fill="#E43949"/>
<path d="M56.0566 91.7067L55.0206 86.3801L53.6548 86.6463L52.9468 88.7775C52.7401 89.4002 52.5296 90.1712 52.4078 90.8512L52.3841 90.8558C52.3199 90.1465 52.1943 89.4164 52.0344 88.5945L51.7285 87.0218L50.6233 87.2372L51.6593 92.5637L52.8908 92.3237L53.6282 90.0063C53.8334 89.3758 54.0518 88.6032 54.2146 87.9234L54.2383 87.9188C54.3371 88.6378 54.4779 89.488 54.6439 90.3415L54.9513 91.9221L56.0566 91.7067Z" fill="#E43949"/>
<path d="M49.1776 92.8026L49.0494 90.431C49.0052 89.6109 49.0477 88.9072 49.3587 88.5517C49.4874 88.3996 49.6982 88.2753 49.9615 88.2288L49.7555 87.2482C49.3218 87.2716 48.9584 87.4042 48.6936 87.5717C47.9005 88.0984 47.782 89.1853 47.8572 90.5761L47.9266 91.8625L46.6979 91.929L46.4595 87.5153L45.2387 87.5814L45.5314 93L49.1776 92.8026Z" fill="#E43949"/>
<path d="M43.4514 92.9412L43.8673 87.5548C43.5978 87.4936 43.1599 87.4193 42.5504 87.3722C41.7164 87.3077 40.7979 87.3981 40.2358 87.8876C39.9501 88.14 39.7519 88.5123 39.7116 89.0341C39.6186 90.2382 40.5622 90.8684 41.7249 90.9584C41.9495 90.9757 42.216 90.9721 42.3862 90.9611L42.2406 92.8475L43.4514 92.9412ZM42.4575 90.0379C42.3119 90.0428 42.1663 90.0477 41.9899 90.034C41.4045 89.9887 40.9513 89.6953 40.999 89.0772C41.0461 88.4671 41.5496 88.2153 42.143 88.2612C42.3194 88.2749 42.4551 88.2935 42.5895 88.3281L42.4575 90.0379Z" fill="#E43949"/>
<path d="M37.6499 92.3554L38.8075 87.054L37.6132 86.7926L37.1288 89.0107L35.1567 88.5792L35.641 86.3611L34.4467 86.0998L33.2891 91.4012L34.4834 91.6625L34.9282 89.6253L36.9004 90.0568L36.4556 92.094L37.6499 92.3554Z" fill="#E43949"/>
<path d="M30.0972 86.0379L30.189 84.5864L28.9448 84.1244L28.643 89.8002L30.1512 90.3602L33.5824 85.8465L32.3985 85.4068L31.5526 86.5784L30.0972 86.0379ZM31.0678 87.3773L30.3662 88.3447C30.1741 88.6083 29.9561 88.9653 29.7688 89.2393L29.7537 89.2337C29.7902 88.9037 29.8395 88.4927 29.8609 88.1571L29.9442 86.9601L31.0678 87.3773Z" fill="#E43949"/>
<path d="M27.3896 83.3038C27.2321 83.4114 27.129 83.5024 27.0037 83.618C26.6538 83.9332 26.208 84.48 25.7515 84.6015C25.5595 84.6542 25.3551 84.6274 25.1421 84.5138L24.8795 84.3738L25.8775 82.4977L24.8055 81.9263L22.2916 86.6521C22.6092 86.8944 23.0835 87.2019 23.6088 87.482C24.2335 87.815 24.8614 88.022 25.378 87.9416C25.7972 87.8732 26.1812 87.6309 26.4156 87.1903C26.786 86.4939 26.5107 85.8637 26.0312 85.4804L26.0426 85.4591C26.229 85.4855 26.4092 85.4721 26.5687 85.4294C27.1159 85.2741 27.532 84.7662 28.0147 84.3211C28.1807 84.1633 28.3571 84.0202 28.5396 83.9168L27.3896 83.3038ZM24.4523 85.1769C24.563 85.2085 24.7121 85.288 24.847 85.3599C25.3439 85.6248 25.6238 86.075 25.3894 86.5156C25.1286 87.006 24.6503 86.9973 24.1817 86.7475C23.9616 86.6302 23.831 86.5332 23.7643 86.4702L24.4523 85.1769Z" fill="#E43949"/>
<path d="M18.697 84.3743L22.0436 80.1053L21.0946 79.3597L19.6943 81.1459L19.5109 81.0017C18.992 80.5942 19.0839 80.0727 19.3157 79.477C19.4627 79.0808 19.6387 78.6868 19.7216 78.2811L18.6839 77.466C18.5537 78.0494 18.3304 78.6211 18.1248 79.1964C17.8997 79.8487 17.8486 80.4225 18.2948 80.988L15.3183 81.7201L16.4888 82.6396L19.0546 81.7793L19.1432 81.8489L17.7479 83.6287L18.697 84.3743Z" fill="#E43949"/>
<path d="M13.9611 80.4116L15.651 78.7444C16.2353 78.1679 16.7901 77.7336 17.2621 77.7313C17.4612 77.7271 17.6939 77.8028 17.9031 77.9694L18.5004 77.1653C18.1955 76.8557 17.8556 76.671 17.5548 76.5834C16.6353 76.3376 15.7435 76.9688 14.7525 77.9465L13.8359 78.8508L12.9722 77.9734L16.117 74.8707L15.2589 73.9991L11.398 77.8083L13.9611 80.4116Z" fill="#E43949"/>
<path d="M10.1201 76.3004L14.4687 73.0603L13.6379 71.943L11.4122 72.2263C10.7621 72.3093 9.97654 72.4529 9.31152 72.6373L9.29712 72.6179C9.9081 72.253 10.5113 71.8237 11.1823 71.3237L12.4662 70.3671L11.7939 69.4629L7.44533 72.7029L8.19447 73.7105L10.6005 73.3731C11.2572 73.2853 12.0475 73.1481 12.73 73.0008L12.7444 73.0202C12.1398 73.4206 11.435 73.9156 10.7382 74.4348L9.44783 75.3962L10.1201 76.3004Z" fill="#E43949"/>
<path d="M6.31145 70.8837L11.0868 68.3154L10.5082 67.2374L8.51019 68.3119L7.55474 66.5317L9.55272 65.4571L8.97413 64.3791L4.19882 66.9474L4.77741 68.0254L6.61243 67.0385L7.56788 68.8187L5.73286 69.8056L6.31145 70.8837Z" fill="#E43949"/>
<path d="M3.35569 65.0281L8.45218 63.179L7.97807 61.8695L5.76517 61.4991C5.11868 61.3911 4.32512 61.3022 3.63524 61.2871L3.62702 61.2643C4.3171 61.0911 5.01824 60.8538 5.80464 60.5685L7.30939 60.0226L6.92572 58.9628L1.82923 60.8119L2.25675 61.9927L4.65794 62.3633C5.31199 62.4685 6.10829 62.565 6.80431 62.6208L6.81253 62.6435C6.11829 62.8525 5.30098 63.1234 4.48433 63.4197L2.97202 63.9683L3.35569 65.0281Z" fill="#E43949"/>
<path d="M1.30819 58.8638L6.60841 57.7252L6.35529 56.5444L4.13768 57.0208L4.08875 56.7925C3.95037 56.147 4.35416 55.805 4.913 55.4955C5.27919 55.2851 5.66618 55.0949 5.9891 54.8362L5.71235 53.5451C5.23947 53.9102 4.70254 54.2067 4.17684 54.5173C3.58712 54.8745 3.18111 55.2829 3.16278 56.0033L0.407068 54.6601L0.719253 56.1164L3.24117 57.0981L3.2648 57.2083L1.05506 57.683L1.30819 58.8638Z" fill="#E43949"/>
<path d="M4.02081 50.1182L5.37383 49.5882L5.26645 48.2641L0 50.3884L0.130149 51.9934L5.66666 53.1994L5.56449 51.9395L4.14641 51.667L4.02081 50.1182ZM3.21821 51.5648L2.04582 51.3369C1.72602 51.274 1.31068 51.227 0.983509 51.1728L0.982207 51.1568C1.29636 51.0505 1.68937 50.9216 2.00222 50.7992L3.12125 50.369L3.21821 51.5648Z" fill="#E43949"/>
</svg>
