<svg width="1600" height="2166" viewBox="0 0 1600 2166" fill="none" xmlns="http://www.w3.org/2000/svg">
<path d="M541.5 438.5C321.887 543.572 26 330.236 -140.5 0H1663.5L1617.5 759C1396.9 1019 940.076 1013.55 634 1135C502.542 1187.16 769.5 1397 1258.36 1322.67C1626.7 1266.67 1818 1492.79 1818 1635.03C1818 1798.06 1771.98 1909.04 1718.5 2001C1649 2120.5 1472.56 2166 1145.5 2166C942.496 2166 734.434 2084.98 519 2001C280.757 1908.13 109.84 1939.1 -95.476 2001L-50 1910C236.5 1765.5 418.998 1856.74 582.5 1899.5C821.5 1962 1249 2108 1396.9 1883.12C1487.04 1746.06 1236.86 1688.43 853.26 1648.26C546.384 1616.13 92.9042 1417.81 -95.476 1322.67L-109 759C248.5 819.3 700 893.369 962 803.685C1082.53 762.428 1296 655.762 1296 496.061C1296 252.035 977.291 230 541.5 438.5Z" fill="url(#paint0_linear_637_10448)"/>
<defs>
<linearGradient id="paint0_linear_637_10448" x1="787.5" y1="-61.5" x2="787.5" y2="1399" gradientUnits="userSpaceOnUse">
<stop stop-color="#FFF4E7" stop-opacity="0"/>
<stop offset="1" stop-color="#FFF4E7"/>
</linearGradient>
</defs>
</svg>
