<svg width="272" height="48" viewBox="0 0 272 48" fill="none" xmlns="http://www.w3.org/2000/svg">
<path d="M7.42 29.78C11.6667 29.4067 14.3967 29.01 15.61 28.59C19.53 27.2367 21.49 23.7833 21.49 18.23L21.42 12.77C21.42 11.6967 21.14 10.3667 20.58 8.78C20.02 7.19333 18.9 5.72333 17.22 4.37C15.5867 3.01667 13.23 2.34 10.15 2.34H2.1C1.72667 2.34 1.37667 2.45667 1.05 2.69C0.723333 2.92333 0.536667 3.29666 0.49 3.81C0.443333 8.43 0.396667 15.15 0.35 23.97C0.35 32.79 0.35 39.79 0.35 44.97C0.35 45.6233 0.513333 46.09 0.84 46.37C1.21333 46.65 1.70333 46.7433 2.31 46.65C2.45 46.6033 3.01 46.6033 3.99 46.65C5.01667 46.65 5.71667 46.65 6.09 46.65C6.83667 46.6033 7.21 46.16 7.21 45.32L7.42 29.78ZM7.35 8.71C7.67667 8.71 8.37667 8.73333 9.45 8.78C10.57 8.78 11.48 8.85 12.18 8.99C12.88 9.13 13.44 9.55 13.86 10.25C14.28 10.95 14.49 11.65 14.49 12.35V18.93C14.49 19.63 14.2567 20.3767 13.79 21.17C13.3233 21.9167 12.74 22.4067 12.04 22.64C11.4333 22.8267 10.57 22.99 9.45 23.13C8.37667 23.2233 7.65333 23.27 7.28 23.27L7.35 8.71ZM43.3103 27.54C43.4503 27.4467 43.6603 27.3533 43.9403 27.26C44.267 27.1667 44.5003 27.0967 44.6403 27.05C45.7136 26.49 46.7403 25.86 47.7203 25.16C48.747 24.46 49.7736 23.2467 50.8003 21.52C51.827 19.7933 52.3403 17.6 52.3403 14.94C52.3403 12.6067 51.757 10.5533 50.5903 8.78C49.4236 7.00666 47.907 5.63 46.0403 4.65C44.2203 3.67 42.307 3.18 40.3003 3.18C39.2736 3.08666 37.7103 3.04 35.6103 3.04L30.5003 3.11C29.707 3.11 28.9836 3.34333 28.3303 3.81C27.677 4.27666 27.3503 4.95333 27.3503 5.84L27.2803 45.18C27.2803 46.1133 27.537 46.6733 28.0503 46.86C28.3303 46.9533 28.9603 47 29.9403 47C31.387 47 32.297 46.9533 32.6703 46.86C33.277 46.7667 33.6736 46.6267 33.8603 46.44C34.047 46.2533 34.1403 45.7633 34.1403 44.97C34.1403 34.89 34.1636 29.3833 34.2103 28.45C35.0036 28.4033 35.5636 28.4967 35.8903 28.73C36.217 28.9633 36.5203 29.36 36.8003 29.92C37.7336 31.9267 39.227 35.0533 41.2803 39.3C43.3803 43.5467 44.5703 45.9033 44.8503 46.37C45.1303 47.07 45.527 47.42 46.0403 47.42C46.3203 47.42 46.6003 47.35 46.8803 47.21C47.8603 46.93 49.2136 46.37 50.9403 45.53C51.547 45.2033 51.8503 44.8767 51.8503 44.55C51.8503 44.3167 51.7336 43.9667 51.5003 43.5L48.9803 38.6C45.807 32.6267 43.917 28.94 43.3103 27.54ZM34.2803 19.28C34.2803 15.5933 34.257 12.91 34.2103 11.23C34.2103 10.4367 34.5836 10.04 35.3303 10.04C35.9836 9.99333 36.9403 9.97 38.2003 9.97C39.8336 10.0633 41.3503 10.4133 42.7503 11.02C44.1503 11.58 44.8503 12.8867 44.8503 14.94C44.8503 16.34 44.4303 17.5067 43.5903 18.44C42.7503 19.3733 41.817 20.05 40.7903 20.47C39.7636 20.89 39.0636 21.1 38.6903 21.1C38.317 21.1467 37.897 21.17 37.4303 21.17C37.197 21.17 36.9403 21.17 36.6603 21.17C36.3803 21.1233 35.9603 21.1 35.4003 21.1C34.9803 21.1 34.677 21.0067 34.4903 20.82C34.3503 20.5867 34.2803 20.26 34.2803 19.84V19.28ZM61.8756 47.07C60.989 47.07 60.3823 47.0467 60.0556 47L59.7056 47.07C59.1456 47.07 58.8656 46.6267 58.8656 45.74V17.39V5.63C58.9123 4.27667 58.959 3.46 59.0056 3.18C59.099 2.85333 59.3556 2.69 59.7756 2.69C59.9623 2.69 60.1956 2.71333 60.4756 2.76C60.8023 2.80666 61.2223 2.83 61.7356 2.83C61.8756 2.83 63.1356 2.9 65.5156 3.04C66.029 3.04 66.2856 3.34333 66.2856 3.95C66.1923 6.33 66.1456 15.4767 66.1456 31.39V44.55C66.1456 45.39 66.099 46.02 66.0056 46.44C65.9123 46.8133 65.679 47 65.3056 47L61.8756 47.07ZM91.1345 20.05C91.9279 19.91 92.7912 19.49 93.7245 18.79C94.7045 18.09 95.5212 17.1567 96.1745 15.99C96.8745 14.7767 97.2245 13.3767 97.2245 11.79C97.2245 9.03666 96.3145 6.86666 94.4945 5.28C92.6745 3.64666 90.5979 2.52666 88.2645 1.92C85.9779 1.26666 83.9479 0.916663 82.1745 0.869997H74.8245C73.8912 0.869997 73.4245 1.33666 73.4245 2.27V45.25C73.4245 46.1367 73.6579 46.7667 74.1245 47.14C74.5912 47.5133 75.3845 47.7 76.5045 47.7H88.1945C89.7812 47.7 91.5079 47.21 93.3745 46.23C95.2412 45.25 96.8045 43.78 98.0645 41.82C99.3712 39.86 100.025 37.48 100.025 34.68V31.32C100.025 29.8733 99.6279 28.38 98.8345 26.84C98.0412 25.2533 96.9445 23.8533 95.5445 22.64C94.1912 21.4267 92.7212 20.5633 91.1345 20.05ZM80.9845 14.87C81.0779 11.3233 81.1012 8.96667 81.0545 7.8C81.0545 7.56667 81.1012 7.40333 81.1945 7.31C81.2879 7.17 81.3812 7.1 81.4745 7.1C81.5679 7.05333 81.6379 7.03 81.6845 7.03C81.6845 6.93667 82.4779 7.00667 84.0645 7.24C85.6979 7.42667 87.1679 7.89333 88.4745 8.64C89.7812 9.38667 90.4345 10.5067 90.4345 12C90.4345 13.3067 89.7812 14.3567 88.4745 15.15C87.1679 15.8967 85.6745 16.4567 83.9945 16.83C82.3612 17.1567 81.5445 17.2733 81.5445 17.18H81.4745C81.1479 17.18 80.9845 16.9467 80.9845 16.48V14.87ZM81.1945 40.63C81.0545 40.5367 80.9845 38.1567 80.9845 33.49C80.9845 28.0767 81.0545 25.3 81.1945 25.16C81.3812 25.0667 81.7079 25.02 82.1745 25.02C82.7812 25.02 83.3645 25.0433 83.9245 25.09C84.4845 25.1367 84.9512 25.16 85.3245 25.16C87.3312 25.16 89.0112 25.8133 90.3645 27.12C91.7179 28.38 92.3945 29.92 92.3945 31.74V33.77C92.3945 35.2167 91.9979 36.4533 91.2045 37.48C90.4579 38.5067 89.5479 39.3 88.4745 39.86C87.4012 40.3733 86.4212 40.63 85.5345 40.63L81.8945 40.7C81.4745 40.7 81.2412 40.6767 81.1945 40.63ZM124.677 47.63C124.583 47.6767 124.443 47.7 124.257 47.7C123.79 47.7 123.463 47.5133 123.277 47.14C123.09 46.8133 122.997 46.5567 122.997 46.37L121.317 37.27C121.27 36.8967 121.153 36.6633 120.967 36.57C120.78 36.43 120.5 36.3833 120.127 36.43L116.837 36.36C114.55 36.36 113.383 36.4767 113.337 36.71L112.987 38.25C112.893 38.7167 112.543 40.21 111.937 42.73C111.377 45.25 111.003 46.6033 110.817 46.79C110.583 47.0233 109.673 46.8833 108.087 46.37C106.5 45.8567 105.613 45.5767 105.427 45.53C103.98 45.1567 103.397 44.4567 103.677 43.43C104.143 41.3767 105.963 34.2833 109.137 22.15C112.357 10.0167 114.083 3.83333 114.317 3.6C114.783 3.04 115.273 2.76 115.787 2.76L119.077 2.69C119.777 2.69 120.29 2.71333 120.617 2.76C121.037 2.76 121.317 2.80666 121.457 2.9C121.643 2.94667 121.807 3.11 121.947 3.39C122.553 4.97666 123.977 11.2767 126.217 22.29C128.503 33.3033 129.997 40.8167 130.697 44.83C130.743 44.97 130.767 45.1333 130.767 45.32C130.767 45.74 130.533 46.02 130.067 46.16L124.677 47.63ZM114.947 29.22C115.087 29.36 115.927 29.43 117.467 29.43C118.353 29.43 118.96 29.4067 119.287 29.36H119.357C119.637 29.36 119.707 29.1033 119.567 28.59C119.38 27.0033 119.1 24.81 118.727 22.01C118.4 19.21 118.167 17.5533 118.027 17.04C117.98 16.9933 117.933 16.9 117.887 16.76C117.887 16.5733 117.817 16.6667 117.677 17.04C117.303 18.4867 116.743 20.8433 115.997 24.11C115.25 27.3767 114.9 29.08 114.947 29.22ZM171.431 3.95C171.337 3.85666 170.754 3.81 169.681 3.81L166.111 3.88C165.691 3.88 165.387 4.02 165.201 4.3C165.061 4.58 164.991 4.74333 164.991 4.79L162.121 12.35C159.274 20.33 157.757 24.32 157.571 24.32C157.431 24.32 156.777 22.57 155.611 19.07C154.444 15.5233 153.627 13.0733 153.161 11.72L150.991 5.14C150.664 4.3 149.941 3.88 148.821 3.88L147.421 3.95C146.954 3.99667 146.464 4.02 145.951 4.02C145.437 4.02 144.994 4.04333 144.621 4.09C144.014 4.09 143.617 4.53333 143.431 5.42C143.011 8.03333 141.074 17.6233 137.621 34.19C137.107 36.7567 136.664 38.9267 136.291 40.7C135.917 42.4733 135.661 43.7567 135.521 44.55V44.9C135.521 45.2733 135.614 45.5533 135.801 45.74C135.941 45.9267 136.104 46.0433 136.291 46.09C136.431 46.1367 136.524 46.16 136.571 46.16L141.961 47C142.054 47 142.217 47 142.451 47C142.731 46.9533 143.011 46.8133 143.291 46.58C143.571 46.3467 143.757 45.9967 143.851 45.53C144.271 42.9167 145.064 38.18 146.231 31.32C147.397 24.4133 148.051 20.96 148.191 20.96C148.331 20.96 149.031 22.8033 150.291 26.49C151.597 30.1767 152.624 33.14 153.371 35.38C153.511 35.94 153.744 36.3133 154.071 36.5C154.444 36.6867 154.864 36.78 155.331 36.78L158.761 36.85C158.994 36.85 159.251 36.7567 159.531 36.57C159.811 36.3367 160.021 36.1267 160.161 35.94C160.394 35.5667 161.281 33.5133 162.821 29.78C165.387 23.8067 166.741 20.82 166.881 20.82C167.021 20.82 168.047 25.79 169.961 35.73L171.991 46.16C172.084 46.58 172.341 46.9533 172.761 47.28C173.181 47.6533 173.554 47.7933 173.881 47.7C176.774 46.8133 178.571 46.23 179.271 45.95C179.411 45.9033 179.527 45.74 179.621 45.46C179.761 45.18 179.807 44.9467 179.761 44.76C178.734 39.5333 177.124 31.46 174.931 20.54C172.737 9.62 171.571 4.09 171.431 3.95ZM202.424 20.05C203.217 19.91 204.08 19.49 205.014 18.79C205.994 18.09 206.81 17.1567 207.464 15.99C208.164 14.7767 208.514 13.3767 208.514 11.79C208.514 9.03666 207.604 6.86666 205.784 5.28C203.964 3.64666 201.887 2.52666 199.554 1.92C197.267 1.26666 195.237 0.916663 193.464 0.869997H186.114C185.18 0.869997 184.714 1.33666 184.714 2.27V45.25C184.714 46.1367 184.947 46.7667 185.414 47.14C185.88 47.5133 186.674 47.7 187.794 47.7H199.484C201.07 47.7 202.797 47.21 204.664 46.23C206.53 45.25 208.094 43.78 209.354 41.82C210.66 39.86 211.314 37.48 211.314 34.68V31.32C211.314 29.8733 210.917 28.38 210.124 26.84C209.33 25.2533 208.234 23.8533 206.834 22.64C205.48 21.4267 204.01 20.5633 202.424 20.05ZM192.274 14.87C192.367 11.3233 192.39 8.96667 192.344 7.8C192.344 7.56667 192.39 7.40333 192.484 7.31C192.577 7.17 192.67 7.1 192.764 7.1C192.857 7.05333 192.927 7.03 192.974 7.03C192.974 6.93667 193.767 7.00667 195.354 7.24C196.987 7.42667 198.457 7.89333 199.764 8.64C201.07 9.38667 201.724 10.5067 201.724 12C201.724 13.3067 201.07 14.3567 199.764 15.15C198.457 15.8967 196.964 16.4567 195.284 16.83C193.65 17.1567 192.834 17.2733 192.834 17.18H192.764C192.437 17.18 192.274 16.9467 192.274 16.48V14.87ZM192.484 40.63C192.344 40.5367 192.274 38.1567 192.274 33.49C192.274 28.0767 192.344 25.3 192.484 25.16C192.67 25.0667 192.997 25.02 193.464 25.02C194.07 25.02 194.654 25.0433 195.214 25.09C195.774 25.1367 196.24 25.16 196.614 25.16C198.62 25.16 200.3 25.8133 201.654 27.12C203.007 28.38 203.684 29.92 203.684 31.74V33.77C203.684 35.2167 203.287 36.4533 202.494 37.48C201.747 38.5067 200.837 39.3 199.764 39.86C198.69 40.3733 197.71 40.63 196.824 40.63L193.184 40.7C192.764 40.7 192.53 40.6767 192.484 40.63ZM235.966 47.63C235.872 47.6767 235.732 47.7 235.546 47.7C235.079 47.7 234.752 47.5133 234.566 47.14C234.379 46.8133 234.286 46.5567 234.286 46.37L232.606 37.27C232.559 36.8967 232.442 36.6633 232.256 36.57C232.069 36.43 231.789 36.3833 231.416 36.43L228.126 36.36C225.839 36.36 224.672 36.4767 224.626 36.71L224.276 38.25C224.182 38.7167 223.832 40.21 223.226 42.73C222.666 45.25 222.292 46.6033 222.106 46.79C221.872 47.0233 220.962 46.8833 219.376 46.37C217.789 45.8567 216.902 45.5767 216.716 45.53C215.269 45.1567 214.686 44.4567 214.966 43.43C215.432 41.3767 217.252 34.2833 220.426 22.15C223.646 10.0167 225.372 3.83333 225.606 3.6C226.072 3.04 226.562 2.76 227.076 2.76L230.366 2.69C231.066 2.69 231.579 2.71333 231.906 2.76C232.326 2.76 232.606 2.80666 232.746 2.9C232.932 2.94667 233.096 3.11 233.236 3.39C233.842 4.97666 235.266 11.2767 237.506 22.29C239.792 33.3033 241.286 40.8167 241.986 44.83C242.032 44.97 242.056 45.1333 242.056 45.32C242.056 45.74 241.822 46.02 241.356 46.16L235.966 47.63ZM226.236 29.22C226.376 29.36 227.216 29.43 228.756 29.43C229.642 29.43 230.249 29.4067 230.576 29.36H230.646C230.926 29.36 230.996 29.1033 230.856 28.59C230.669 27.0033 230.389 24.81 230.016 22.01C229.689 19.21 229.456 17.5533 229.316 17.04C229.269 16.9933 229.222 16.9 229.176 16.76C229.176 16.5733 229.106 16.6667 228.966 17.04C228.592 18.4867 228.032 20.8433 227.286 24.11C226.539 27.3767 226.189 29.08 226.236 29.22ZM254.72 28.87C254.486 28.6367 253.273 28.52 251.08 28.52H248.28C247.906 28.52 247.673 28.5667 247.58 28.66C247.44 28.7533 247.37 28.9867 247.37 29.36V33.63C247.37 35.4967 247.393 36.92 247.44 37.9C247.486 39.2533 247.953 40.6767 248.84 42.17C249.726 43.6633 251.01 44.9233 252.69 45.95C254.416 46.93 256.446 47.42 258.78 47.42C262.186 47.42 264.8 46.4633 266.62 44.55C268.44 42.6367 269.63 40.56 270.19 38.32C270.796 36.08 271.1 34.1667 271.1 32.58C271.1 30.2 270.493 28.0767 269.28 26.21C268.113 24.3433 266.946 22.9433 265.78 22.01C264.66 21.0767 263.353 20.12 261.86 19.14C261.626 19 261.37 18.8833 261.09 18.79C260.856 18.65 260.646 18.5333 260.46 18.44C258.78 17.6933 257.403 16.9233 256.33 16.13C255.303 15.3367 254.79 14.3567 254.79 13.19C254.79 11.65 255.256 10.53 256.19 9.83C257.123 9.13 258.243 8.78 259.55 8.78C260.576 8.78 261.533 9.17667 262.42 9.97C263.306 10.7633 263.936 11.6733 264.31 12.7C264.31 12.7933 264.45 12.8633 264.73 12.91C265.01 12.9567 265.22 12.9333 265.36 12.84C266.34 12.3267 267.763 11.51 269.63 10.39C270.143 10.0167 270.4 9.73667 270.4 9.55C270.4 9.36333 270.26 9.06 269.98 8.64C269.933 8.59333 269.63 8.01 269.07 6.89C268.556 5.77 267.413 4.65 265.64 3.53C263.866 2.36333 261.836 1.78 259.55 1.78C257.03 1.78 254.836 2.31666 252.97 3.39C251.103 4.46333 249.68 5.81667 248.7 7.45C247.72 9.08333 247.23 10.7167 247.23 12.35C247.23 14.59 247.673 16.5033 248.56 18.09C249.493 19.63 250.59 20.8667 251.85 21.8C253.11 22.7333 254.743 23.7367 256.75 24.81C258.943 26.0233 260.553 27.12 261.58 28.1C262.653 29.0333 263.19 30.2467 263.19 31.74C263.19 34.0733 262.933 35.8933 262.42 37.2C261.953 38.5067 260.95 39.16 259.41 39.16C258.01 39.16 256.96 38.6 256.26 37.48C255.606 36.3133 255.21 35.2167 255.07 34.19C255.023 33.63 255 32.6967 255 31.39C255 29.85 254.906 29.01 254.72 28.87Z" fill="#222222"/>
</svg>
