<svg width="1600" height="723" viewBox="0 0 1600 723" fill="none" xmlns="http://www.w3.org/2000/svg">
<path fill-rule="evenodd" clip-rule="evenodd" d="M836.888 360.489L845.719 626.098C848.805 718.926 710.178 758.983 647.466 683.386L384.645 366.563L365.399 632.744C358.598 726.811 213.004 754.717 160.402 672.034L-196 111.813L-18.8907 28.4724L183.78 347.046L199.345 131.785C205.734 43.4216 337.642 10.944 397.431 83.0186L635.224 369.672L626.156 96.9C623.045 3.34874 763.468 -36.2318 825.344 40.7583L1050 320.294L1035.84 156.02C1027.17 55.4905 1183.58 15.3139 1240.43 103.459L1370.13 304.529L1372.95 227.54C1376.33 135.006 1516.8 101.947 1574.49 180.109L1789 470.736L1618.55 563.788L1565.28 491.616L1561.37 598.697C1557.89 694.123 1410.38 724.84 1356.53 641.352L1268.34 504.638L1276.53 599.586C1284.77 695.152 1140.95 738.824 1077.6 659.995L836.888 360.489Z" fill="#FEECDF" fill-opacity="0.2"/>
</svg>
